G04 Layer: TopSolderMaskLayer*
G04 EasyEDA v6.5.5, 2022-06-17 14:32:01*
G04 5faef1715b7e4738a83644b9fd502409,a400d5e2854f4014a3cbb39b0ca33fd0,10*
G04 Gerber Generator version 0.2*
G04 Scale: 100 percent, Rotated: No, Reflected: No *
G04 Dimensions in millimeters *
G04 leading zeros omitted , absolute positions ,4 integer and 5 decimal *
%FSLAX45Y45*%
%MOMM*%

%ADD53C,0.6896*%
%ADD54C,0.4656*%
%ADD55C,0.6756*%
%ADD56C,0.4016*%
%ADD58C,1.9016*%
%ADD77C,1.7526*%
%ADD78C,1.6256*%
%ADD80C,1.7272*%
%ADD85R,3.6016X2.3016*%

%LPD*%
D53*
X19137708Y-2349500D02*
G01*
X18992009Y-2349500D01*
X19137708Y-2476500D02*
G01*
X18992009Y-2476500D01*
X19137708Y-2603500D02*
G01*
X18992009Y-2603500D01*
X19137708Y-2730500D02*
G01*
X18992009Y-2730500D01*
X19692190Y-2349500D02*
G01*
X19546491Y-2349500D01*
X19692190Y-2476500D02*
G01*
X19546491Y-2476500D01*
X19692190Y-2603500D02*
G01*
X19546491Y-2603500D01*
X19692190Y-2730500D02*
G01*
X19546491Y-2730500D01*
D54*
X1803806Y-988303D02*
G01*
X1803806Y-850503D01*
X1738807Y-988303D02*
G01*
X1738807Y-850503D01*
X1673809Y-988303D02*
G01*
X1673809Y-850503D01*
X1608810Y-988303D02*
G01*
X1608810Y-850503D01*
X1543786Y-988303D02*
G01*
X1543786Y-850503D01*
X1478787Y-988303D02*
G01*
X1478787Y-850503D01*
X1413789Y-988303D02*
G01*
X1413789Y-850503D01*
X1348790Y-988303D02*
G01*
X1348790Y-850503D01*
X1283792Y-988303D02*
G01*
X1283792Y-850503D01*
X1218793Y-988303D02*
G01*
X1218793Y-850503D01*
X1803806Y-1562496D02*
G01*
X1803806Y-1424696D01*
X1738807Y-1562496D02*
G01*
X1738807Y-1424696D01*
X1673809Y-1562496D02*
G01*
X1673809Y-1424696D01*
X1608810Y-1562496D02*
G01*
X1608810Y-1424696D01*
X1543786Y-1562496D02*
G01*
X1543786Y-1424696D01*
X1478787Y-1562496D02*
G01*
X1478787Y-1424696D01*
X1413789Y-1562496D02*
G01*
X1413789Y-1424696D01*
X1348790Y-1562496D02*
G01*
X1348790Y-1424696D01*
X1283792Y-1562496D02*
G01*
X1283792Y-1424696D01*
X1218793Y-1562496D02*
G01*
X1218793Y-1424696D01*
D55*
X1269489Y-4165600D02*
G01*
X1123088Y-4165600D01*
X1269489Y-4292600D02*
G01*
X1123088Y-4292600D01*
X1269489Y-4419600D02*
G01*
X1123088Y-4419600D01*
X1269489Y-4546600D02*
G01*
X1123088Y-4546600D01*
X1823311Y-4165600D02*
G01*
X1676910Y-4165600D01*
X1823311Y-4292600D02*
G01*
X1676910Y-4292600D01*
X1823311Y-4419600D02*
G01*
X1676910Y-4419600D01*
X1823311Y-4546600D02*
G01*
X1676910Y-4546600D01*
D56*
X8946794Y-1778421D02*
G01*
X8946794Y-1948421D01*
X8996806Y-1778421D02*
G01*
X8996806Y-1948421D01*
X9046794Y-1778421D02*
G01*
X9046794Y-1948421D01*
X9096806Y-1778421D02*
G01*
X9096806Y-1948421D01*
X9146793Y-1778421D02*
G01*
X9146793Y-1948421D01*
X9196806Y-1778421D02*
G01*
X9196806Y-1948421D01*
X9246793Y-1778421D02*
G01*
X9246793Y-1948421D01*
X9296806Y-1778421D02*
G01*
X9296806Y-1948421D01*
X9346793Y-1778421D02*
G01*
X9346793Y-1948421D01*
X9396806Y-1778421D02*
G01*
X9396806Y-1948421D01*
X9446793Y-1778421D02*
G01*
X9446793Y-1948421D01*
X9496806Y-1778421D02*
G01*
X9496806Y-1948421D01*
X9546793Y-1778421D02*
G01*
X9546793Y-1948421D01*
X9596805Y-1778421D02*
G01*
X9596805Y-1948421D01*
X9646793Y-1778421D02*
G01*
X9646793Y-1948421D01*
X9696805Y-1778421D02*
G01*
X9696805Y-1948421D01*
X9981780Y-2063394D02*
G01*
X9811781Y-2063394D01*
X9981780Y-2113406D02*
G01*
X9811781Y-2113406D01*
X9981780Y-2163394D02*
G01*
X9811781Y-2163394D01*
X9981780Y-2213406D02*
G01*
X9811781Y-2213406D01*
X9981780Y-2263394D02*
G01*
X9811781Y-2263394D01*
X9981780Y-2313406D02*
G01*
X9811781Y-2313406D01*
X9981780Y-2363393D02*
G01*
X9811781Y-2363393D01*
X9981780Y-2413406D02*
G01*
X9811781Y-2413406D01*
X9981780Y-2463393D02*
G01*
X9811781Y-2463393D01*
X9981780Y-2513406D02*
G01*
X9811781Y-2513406D01*
X9981780Y-2563393D02*
G01*
X9811781Y-2563393D01*
X9981780Y-2613405D02*
G01*
X9811781Y-2613405D01*
X9981780Y-2663393D02*
G01*
X9811781Y-2663393D01*
X9981780Y-2713405D02*
G01*
X9811781Y-2713405D01*
X9981780Y-2763393D02*
G01*
X9811781Y-2763393D01*
X9981780Y-2813405D02*
G01*
X9811781Y-2813405D01*
X9696805Y-2928381D02*
G01*
X9696805Y-3098380D01*
X9646793Y-2928381D02*
G01*
X9646793Y-3098380D01*
X9596805Y-2928381D02*
G01*
X9596805Y-3098380D01*
X9546793Y-2928381D02*
G01*
X9546793Y-3098380D01*
X9496806Y-2928381D02*
G01*
X9496806Y-3098380D01*
X9446793Y-2928381D02*
G01*
X9446793Y-3098380D01*
X9396806Y-2928381D02*
G01*
X9396806Y-3098380D01*
X9346793Y-2928381D02*
G01*
X9346793Y-3098380D01*
X9296806Y-2928381D02*
G01*
X9296806Y-3098380D01*
X9246793Y-2928381D02*
G01*
X9246793Y-3098380D01*
X9196806Y-2928381D02*
G01*
X9196806Y-3098380D01*
X9146793Y-2928381D02*
G01*
X9146793Y-3098380D01*
X9096806Y-2928381D02*
G01*
X9096806Y-3098380D01*
X9046794Y-2928381D02*
G01*
X9046794Y-3098380D01*
X8996806Y-2928381D02*
G01*
X8996806Y-3098380D01*
X8946794Y-2928381D02*
G01*
X8946794Y-3098380D01*
X8831821Y-2813405D02*
G01*
X8661821Y-2813405D01*
X8831821Y-2763393D02*
G01*
X8661821Y-2763393D01*
X8831821Y-2713405D02*
G01*
X8661821Y-2713405D01*
X8831821Y-2663393D02*
G01*
X8661821Y-2663393D01*
X8831821Y-2613405D02*
G01*
X8661821Y-2613405D01*
X8831821Y-2563393D02*
G01*
X8661821Y-2563393D01*
X8831821Y-2513406D02*
G01*
X8661821Y-2513406D01*
X8831821Y-2463393D02*
G01*
X8661821Y-2463393D01*
X8831821Y-2413406D02*
G01*
X8661821Y-2413406D01*
X8831821Y-2363393D02*
G01*
X8661821Y-2363393D01*
X8831821Y-2313406D02*
G01*
X8661821Y-2313406D01*
X8831821Y-2263394D02*
G01*
X8661821Y-2263394D01*
X8831821Y-2213406D02*
G01*
X8661821Y-2213406D01*
X8831821Y-2163394D02*
G01*
X8661821Y-2163394D01*
X8831821Y-2113406D02*
G01*
X8661821Y-2113406D01*
X8831821Y-2063394D02*
G01*
X8661821Y-2063394D01*
G36*
X3784091Y-392937D02*
G01*
X3784091Y-292862D01*
X3874261Y-292862D01*
X3874261Y-392937D01*
G37*
G36*
X3644138Y-392937D02*
G01*
X3644138Y-292862D01*
X3734308Y-292862D01*
X3734308Y-392937D01*
G37*
G36*
X4025138Y-392937D02*
G01*
X4025138Y-292862D01*
X4115308Y-292862D01*
X4115308Y-392937D01*
G37*
G36*
X4165091Y-392937D02*
G01*
X4165091Y-292862D01*
X4255261Y-292862D01*
X4255261Y-392937D01*
G37*
D58*
G01*
X4551299Y-4216400D03*
G01*
X4301109Y-4216400D03*
G01*
X4051172Y-4216400D03*
G01*
X3801236Y-4216400D03*
G01*
X3551300Y-4216400D03*
G36*
X6844284Y-1604771D02*
G01*
X6844284Y-1494536D01*
X6909308Y-1494536D01*
X6909308Y-1604771D01*
G37*
G36*
X6749288Y-1604771D02*
G01*
X6749288Y-1494536D01*
X6814311Y-1494536D01*
X6814311Y-1604771D01*
G37*
G36*
X6654291Y-1604771D02*
G01*
X6654291Y-1494536D01*
X6719315Y-1494536D01*
X6719315Y-1604771D01*
G37*
G36*
X6654291Y-1324863D02*
G01*
X6654291Y-1214628D01*
X6719315Y-1214628D01*
X6719315Y-1324863D01*
G37*
G36*
X6749288Y-1324863D02*
G01*
X6749288Y-1214628D01*
X6814311Y-1214628D01*
X6814311Y-1324863D01*
G37*
G36*
X6844284Y-1324863D02*
G01*
X6844284Y-1214628D01*
X6909308Y-1214628D01*
X6909308Y-1324863D01*
G37*
G36*
X6434581Y-1453387D02*
G01*
X6434581Y-1353057D01*
X6544818Y-1353057D01*
X6544818Y-1453387D01*
G37*
G36*
X6434581Y-1593342D02*
G01*
X6434581Y-1493012D01*
X6544818Y-1493012D01*
X6544818Y-1593342D01*
G37*
G36*
X6517640Y-935228D02*
G01*
X6517640Y-844550D01*
X6614159Y-844550D01*
X6614159Y-935228D01*
G37*
G36*
X6517640Y-1085850D02*
G01*
X6517640Y-995171D01*
X6614159Y-995171D01*
X6614159Y-1085850D01*
G37*
G36*
X6784340Y-935228D02*
G01*
X6784340Y-844550D01*
X6880859Y-844550D01*
X6880859Y-935228D01*
G37*
G36*
X6784340Y-1085850D02*
G01*
X6784340Y-995171D01*
X6880859Y-995171D01*
X6880859Y-1085850D01*
G37*
G36*
X1303781Y-2405887D02*
G01*
X1303781Y-2305557D01*
X1414018Y-2305557D01*
X1414018Y-2405887D01*
G37*
G36*
X1303781Y-2545842D02*
G01*
X1303781Y-2445512D01*
X1414018Y-2445512D01*
X1414018Y-2545842D01*
G37*
G36*
X5113781Y-1453387D02*
G01*
X5113781Y-1353057D01*
X5224018Y-1353057D01*
X5224018Y-1453387D01*
G37*
G36*
X5113781Y-1593342D02*
G01*
X5113781Y-1493012D01*
X5224018Y-1493012D01*
X5224018Y-1593342D01*
G37*
G36*
X7742681Y-1453387D02*
G01*
X7742681Y-1353057D01*
X7852918Y-1353057D01*
X7852918Y-1453387D01*
G37*
G36*
X7742681Y-1593342D02*
G01*
X7742681Y-1493012D01*
X7852918Y-1493012D01*
X7852918Y-1593342D01*
G37*
G36*
X13303758Y-1972818D02*
G01*
X13303758Y-1862581D01*
X13404088Y-1862581D01*
X13404088Y-1972818D01*
G37*
G36*
X13443711Y-1972818D02*
G01*
X13443711Y-1862581D01*
X13544041Y-1862581D01*
X13544041Y-1972818D01*
G37*
G36*
X4186681Y-729742D02*
G01*
X4186681Y-629412D01*
X4296918Y-629412D01*
X4296918Y-729742D01*
G37*
G36*
X4186681Y-589787D02*
G01*
X4186681Y-489457D01*
X4296918Y-489457D01*
X4296918Y-589787D01*
G37*
G36*
X10370311Y-2264918D02*
G01*
X10370311Y-2154681D01*
X10470641Y-2154681D01*
X10470641Y-2264918D01*
G37*
G36*
X10230358Y-2264918D02*
G01*
X10230358Y-2154681D01*
X10330688Y-2154681D01*
X10330688Y-2264918D01*
G37*
G36*
X5318506Y-922528D02*
G01*
X5318506Y-831850D01*
X5415025Y-831850D01*
X5415025Y-922528D01*
G37*
G36*
X5318506Y-1073150D02*
G01*
X5318506Y-982471D01*
X5415025Y-982471D01*
X5415025Y-1073150D01*
G37*
G36*
X5476240Y-922528D02*
G01*
X5476240Y-831850D01*
X5572759Y-831850D01*
X5572759Y-922528D01*
G37*
G36*
X5476240Y-1073150D02*
G01*
X5476240Y-982471D01*
X5572759Y-982471D01*
X5572759Y-1073150D01*
G37*
G36*
X7940040Y-935228D02*
G01*
X7940040Y-844550D01*
X8036559Y-844550D01*
X8036559Y-935228D01*
G37*
G36*
X7940040Y-1085850D02*
G01*
X7940040Y-995171D01*
X8036559Y-995171D01*
X8036559Y-1085850D01*
G37*
G36*
X8092440Y-935228D02*
G01*
X8092440Y-844550D01*
X8188959Y-844550D01*
X8188959Y-935228D01*
G37*
G36*
X8092440Y-1085850D02*
G01*
X8092440Y-995171D01*
X8188959Y-995171D01*
X8188959Y-1085850D01*
G37*
G36*
X4015740Y-1352550D02*
G01*
X4015740Y-1261871D01*
X4112259Y-1261871D01*
X4112259Y-1352550D01*
G37*
G36*
X4015740Y-1201928D02*
G01*
X4015740Y-1111250D01*
X4112259Y-1111250D01*
X4112259Y-1201928D01*
G37*
G36*
X3850640Y-1352550D02*
G01*
X3850640Y-1261871D01*
X3947159Y-1261871D01*
X3947159Y-1352550D01*
G37*
G36*
X3850640Y-1201928D02*
G01*
X3850640Y-1111250D01*
X3947159Y-1111250D01*
X3947159Y-1201928D01*
G37*
G36*
X12653772Y-1991360D02*
G01*
X12653772Y-1894839D01*
X12744450Y-1894839D01*
X12744450Y-1991360D01*
G37*
G36*
X12503150Y-1991360D02*
G01*
X12503150Y-1894839D01*
X12593827Y-1894839D01*
X12593827Y-1991360D01*
G37*
G36*
X5523484Y-1604771D02*
G01*
X5523484Y-1494536D01*
X5588508Y-1494536D01*
X5588508Y-1604771D01*
G37*
G36*
X5428488Y-1604771D02*
G01*
X5428488Y-1494536D01*
X5493511Y-1494536D01*
X5493511Y-1604771D01*
G37*
G36*
X5333491Y-1604771D02*
G01*
X5333491Y-1494536D01*
X5398515Y-1494536D01*
X5398515Y-1604771D01*
G37*
G36*
X5333491Y-1324863D02*
G01*
X5333491Y-1214628D01*
X5398515Y-1214628D01*
X5398515Y-1324863D01*
G37*
G36*
X5428488Y-1324863D02*
G01*
X5428488Y-1214628D01*
X5493511Y-1214628D01*
X5493511Y-1324863D01*
G37*
G36*
X5523484Y-1324863D02*
G01*
X5523484Y-1214628D01*
X5588508Y-1214628D01*
X5588508Y-1324863D01*
G37*
G36*
X8152384Y-1604771D02*
G01*
X8152384Y-1494536D01*
X8217408Y-1494536D01*
X8217408Y-1604771D01*
G37*
G36*
X8057388Y-1604771D02*
G01*
X8057388Y-1494536D01*
X8122411Y-1494536D01*
X8122411Y-1604771D01*
G37*
G36*
X7962391Y-1604771D02*
G01*
X7962391Y-1494536D01*
X8027415Y-1494536D01*
X8027415Y-1604771D01*
G37*
G36*
X7962391Y-1324863D02*
G01*
X7962391Y-1214628D01*
X8027415Y-1214628D01*
X8027415Y-1324863D01*
G37*
G36*
X8057388Y-1324863D02*
G01*
X8057388Y-1214628D01*
X8122411Y-1214628D01*
X8122411Y-1324863D01*
G37*
G36*
X8152384Y-1324863D02*
G01*
X8152384Y-1214628D01*
X8217408Y-1214628D01*
X8217408Y-1324863D01*
G37*
G36*
X13470636Y-2134615D02*
G01*
X13470636Y-2069592D01*
X13580872Y-2069592D01*
X13580872Y-2134615D01*
G37*
G36*
X13470636Y-2229612D02*
G01*
X13470636Y-2164587D01*
X13580872Y-2164587D01*
X13580872Y-2229612D01*
G37*
G36*
X13470636Y-2324607D02*
G01*
X13470636Y-2259584D01*
X13580872Y-2259584D01*
X13580872Y-2324607D01*
G37*
G36*
X13190727Y-2324607D02*
G01*
X13190727Y-2259584D01*
X13300963Y-2259584D01*
X13300963Y-2324607D01*
G37*
G36*
X13190727Y-2229612D02*
G01*
X13190727Y-2164587D01*
X13300963Y-2164587D01*
X13300963Y-2229612D01*
G37*
G36*
X13190727Y-2134615D02*
G01*
X13190727Y-2069592D01*
X13300963Y-2069592D01*
X13300963Y-2134615D01*
G37*
G36*
X3822191Y-575563D02*
G01*
X3822191Y-465328D01*
X3887215Y-465328D01*
X3887215Y-575563D01*
G37*
G36*
X3917188Y-575563D02*
G01*
X3917188Y-465328D01*
X3982211Y-465328D01*
X3982211Y-575563D01*
G37*
G36*
X4012184Y-575563D02*
G01*
X4012184Y-465328D01*
X4077208Y-465328D01*
X4077208Y-575563D01*
G37*
G36*
X4012184Y-855471D02*
G01*
X4012184Y-745236D01*
X4077208Y-745236D01*
X4077208Y-855471D01*
G37*
G36*
X3917188Y-855471D02*
G01*
X3917188Y-745236D01*
X3982211Y-745236D01*
X3982211Y-855471D01*
G37*
G36*
X3822191Y-855471D02*
G01*
X3822191Y-745236D01*
X3887215Y-745236D01*
X3887215Y-855471D01*
G37*
G36*
X10155427Y-2642107D02*
G01*
X10155427Y-2577084D01*
X10265663Y-2577084D01*
X10265663Y-2642107D01*
G37*
G36*
X10155427Y-2547112D02*
G01*
X10155427Y-2482087D01*
X10265663Y-2482087D01*
X10265663Y-2547112D01*
G37*
G36*
X10155427Y-2452115D02*
G01*
X10155427Y-2387092D01*
X10265663Y-2387092D01*
X10265663Y-2452115D01*
G37*
G36*
X10435336Y-2452115D02*
G01*
X10435336Y-2387092D01*
X10545572Y-2387092D01*
X10545572Y-2452115D01*
G37*
G36*
X10435336Y-2547112D02*
G01*
X10435336Y-2482087D01*
X10545572Y-2482087D01*
X10545572Y-2547112D01*
G37*
G36*
X10435336Y-2642107D02*
G01*
X10435336Y-2577084D01*
X10545572Y-2577084D01*
X10545572Y-2642107D01*
G37*
G36*
X10380472Y-3032760D02*
G01*
X10380472Y-2936239D01*
X10471150Y-2936239D01*
X10471150Y-3032760D01*
G37*
G36*
X10229850Y-3032760D02*
G01*
X10229850Y-2936239D01*
X10320527Y-2936239D01*
X10320527Y-3032760D01*
G37*
G36*
X10380472Y-2880360D02*
G01*
X10380472Y-2783839D01*
X10471150Y-2783839D01*
X10471150Y-2880360D01*
G37*
G36*
X10229850Y-2880360D02*
G01*
X10229850Y-2783839D01*
X10320527Y-2783839D01*
X10320527Y-2880360D01*
G37*
G36*
X2112772Y-1127760D02*
G01*
X2112772Y-1031239D01*
X2203450Y-1031239D01*
X2203450Y-1127760D01*
G37*
G36*
X1962150Y-1127760D02*
G01*
X1962150Y-1031239D01*
X2052827Y-1031239D01*
X2052827Y-1127760D01*
G37*
G36*
X20167854Y-2502154D02*
G01*
X20167854Y-2411984D01*
X20267929Y-2411984D01*
X20267929Y-2502154D01*
G37*
G36*
X20167854Y-2362200D02*
G01*
X20167854Y-2272029D01*
X20267929Y-2272029D01*
X20267929Y-2362200D01*
G37*
G36*
X1942845Y-2613405D02*
G01*
X1942845Y-2439923D01*
X2222754Y-2439923D01*
X2222754Y-2613405D01*
G37*
G36*
X1942845Y-2309876D02*
G01*
X1942845Y-2136394D01*
X2222754Y-2136394D01*
X2222754Y-2309876D01*
G37*
G36*
X2285745Y-2613405D02*
G01*
X2285745Y-2439923D01*
X2565654Y-2439923D01*
X2565654Y-2613405D01*
G37*
G36*
X2285745Y-2309876D02*
G01*
X2285745Y-2136394D01*
X2565654Y-2136394D01*
X2565654Y-2309876D01*
G37*
G36*
X18753581Y-2811018D02*
G01*
X18753581Y-2710687D01*
X18863818Y-2710687D01*
X18863818Y-2811018D01*
G37*
G36*
X18753581Y-2671063D02*
G01*
X18753581Y-2570734D01*
X18863818Y-2570734D01*
X18863818Y-2671063D01*
G37*
G36*
X1748281Y-1770887D02*
G01*
X1748281Y-1670557D01*
X1858518Y-1670557D01*
X1858518Y-1770887D01*
G37*
G36*
X1748281Y-1910842D02*
G01*
X1748281Y-1810512D01*
X1858518Y-1810512D01*
X1858518Y-1910842D01*
G37*
G36*
X18599404Y-2659887D02*
G01*
X18599404Y-2568955D01*
X18695924Y-2568955D01*
X18695924Y-2659887D01*
G37*
G36*
X18599404Y-2810510D02*
G01*
X18599404Y-2719578D01*
X18695924Y-2719578D01*
X18695924Y-2810510D01*
G37*
G36*
X18442940Y-2810510D02*
G01*
X18442940Y-2719578D01*
X18539459Y-2719578D01*
X18539459Y-2810510D01*
G37*
G36*
X18442940Y-2659887D02*
G01*
X18442940Y-2568955D01*
X18539459Y-2568955D01*
X18539459Y-2659887D01*
G37*
G36*
X12148311Y-1655318D02*
G01*
X12148311Y-1545081D01*
X12248641Y-1545081D01*
X12248641Y-1655318D01*
G37*
G36*
X12008358Y-1655318D02*
G01*
X12008358Y-1545081D01*
X12108688Y-1545081D01*
X12108688Y-1655318D01*
G37*
G36*
X16885411Y-2010918D02*
G01*
X16885411Y-1900681D01*
X16985741Y-1900681D01*
X16985741Y-2010918D01*
G37*
G36*
X16745458Y-2010918D02*
G01*
X16745458Y-1900681D01*
X16845788Y-1900681D01*
X16845788Y-2010918D01*
G37*
G36*
X3584447Y-2910839D02*
G01*
X3584447Y-2710434D01*
X3832352Y-2710434D01*
X3832352Y-2910839D01*
G37*
G36*
X3584447Y-2531110D02*
G01*
X3584447Y-2330704D01*
X3832352Y-2330704D01*
X3832352Y-2531110D01*
G37*
G36*
X3983481Y-2723387D02*
G01*
X3983481Y-2623057D01*
X4093972Y-2623057D01*
X4093972Y-2723387D01*
G37*
G36*
X3983481Y-2863342D02*
G01*
X3983481Y-2763012D01*
X4093972Y-2763012D01*
X4093972Y-2863342D01*
G37*
G36*
X18110961Y-2311907D02*
G01*
X18110961Y-2221737D01*
X18211038Y-2221737D01*
X18211038Y-2311907D01*
G37*
G36*
X18110961Y-2451862D02*
G01*
X18110961Y-2361692D01*
X18211038Y-2361692D01*
X18211038Y-2451862D01*
G37*
G36*
X18288761Y-2311907D02*
G01*
X18288761Y-2221737D01*
X18388838Y-2221737D01*
X18388838Y-2311907D01*
G37*
G36*
X18288761Y-2451862D02*
G01*
X18288761Y-2361692D01*
X18388838Y-2361692D01*
X18388838Y-2451862D01*
G37*
G36*
X20168361Y-2667507D02*
G01*
X20168361Y-2577337D01*
X20268438Y-2577337D01*
X20268438Y-2667507D01*
G37*
G36*
X20168361Y-2807462D02*
G01*
X20168361Y-2717292D01*
X20268438Y-2717292D01*
X20268438Y-2807462D01*
G37*
G36*
X671068Y-3824223D02*
G01*
X671068Y-3694176D01*
X1031239Y-3694176D01*
X1031239Y-3824223D01*
G37*
G36*
X137160Y-3824223D02*
G01*
X137160Y-3694176D01*
X497331Y-3694176D01*
X497331Y-3824223D01*
G37*
G36*
X4374641Y-2504947D02*
G01*
X4374641Y-2415031D01*
X4464558Y-2415031D01*
X4464558Y-2504947D01*
G37*
G36*
X4374641Y-2334768D02*
G01*
X4374641Y-2244852D01*
X4464558Y-2244852D01*
X4464558Y-2334768D01*
G37*
G36*
X7142734Y-2009647D02*
G01*
X7142734Y-1879600D01*
X7293102Y-1879600D01*
X7293102Y-2009647D01*
G37*
G36*
X7362697Y-2009647D02*
G01*
X7362697Y-1879600D01*
X7513065Y-1879600D01*
X7513065Y-2009647D01*
G37*
G36*
X7362697Y-2184654D02*
G01*
X7362697Y-2054605D01*
X7513065Y-2054605D01*
X7513065Y-2184654D01*
G37*
G36*
X7142734Y-2184654D02*
G01*
X7142734Y-2054605D01*
X7293102Y-2054605D01*
X7293102Y-2184654D01*
G37*
G36*
X3157727Y-3471418D02*
G01*
X3157727Y-3361181D01*
X3258058Y-3361181D01*
X3258058Y-3471418D01*
G37*
G36*
X3297681Y-3471418D02*
G01*
X3297681Y-3361181D01*
X3398011Y-3361181D01*
X3398011Y-3471418D01*
G37*
G36*
X4477258Y-3560318D02*
G01*
X4477258Y-3450081D01*
X4577588Y-3450081D01*
X4577588Y-3560318D01*
G37*
G36*
X4617211Y-3560318D02*
G01*
X4617211Y-3450081D01*
X4717541Y-3450081D01*
X4717541Y-3560318D01*
G37*
G36*
X5773927Y-3560318D02*
G01*
X5773927Y-3450081D01*
X5874258Y-3450081D01*
X5874258Y-3560318D01*
G37*
G36*
X5913881Y-3560318D02*
G01*
X5913881Y-3450081D01*
X6014211Y-3450081D01*
X6014211Y-3560318D01*
G37*
G36*
X7068058Y-3560318D02*
G01*
X7068058Y-3450081D01*
X7168388Y-3450081D01*
X7168388Y-3560318D01*
G37*
G36*
X7208011Y-3560318D02*
G01*
X7208011Y-3450081D01*
X7308341Y-3450081D01*
X7308341Y-3560318D01*
G37*
G36*
X8377427Y-3560318D02*
G01*
X8377427Y-3450081D01*
X8477758Y-3450081D01*
X8477758Y-3560318D01*
G37*
G36*
X8517381Y-3560318D02*
G01*
X8517381Y-3450081D01*
X8617711Y-3450081D01*
X8617711Y-3560318D01*
G37*
G36*
X9671558Y-3560318D02*
G01*
X9671558Y-3450081D01*
X9771888Y-3450081D01*
X9771888Y-3560318D01*
G37*
G36*
X9811511Y-3560318D02*
G01*
X9811511Y-3450081D01*
X9911841Y-3450081D01*
X9911841Y-3560318D01*
G37*
G36*
X10968227Y-3560318D02*
G01*
X10968227Y-3450081D01*
X11068558Y-3450081D01*
X11068558Y-3560318D01*
G37*
G36*
X11108181Y-3560318D02*
G01*
X11108181Y-3450081D01*
X11208511Y-3450081D01*
X11208511Y-3560318D01*
G37*
G36*
X12275058Y-3560318D02*
G01*
X12275058Y-3450081D01*
X12375388Y-3450081D01*
X12375388Y-3560318D01*
G37*
G36*
X12415011Y-3560318D02*
G01*
X12415011Y-3450081D01*
X12515341Y-3450081D01*
X12515341Y-3560318D01*
G37*
G36*
X13583158Y-3560318D02*
G01*
X13583158Y-3450081D01*
X13683488Y-3450081D01*
X13683488Y-3560318D01*
G37*
G36*
X13723111Y-3560318D02*
G01*
X13723111Y-3450081D01*
X13823441Y-3450081D01*
X13823441Y-3560318D01*
G37*
G36*
X14878558Y-3560318D02*
G01*
X14878558Y-3450081D01*
X14978888Y-3450081D01*
X14978888Y-3560318D01*
G37*
G36*
X15018511Y-3560318D02*
G01*
X15018511Y-3450081D01*
X15118841Y-3450081D01*
X15118841Y-3560318D01*
G37*
G36*
X16173958Y-3560318D02*
G01*
X16173958Y-3450081D01*
X16274288Y-3450081D01*
X16274288Y-3560318D01*
G37*
G36*
X16313911Y-3560318D02*
G01*
X16313911Y-3450081D01*
X16414241Y-3450081D01*
X16414241Y-3560318D01*
G37*
G36*
X17469358Y-3560318D02*
G01*
X17469358Y-3450081D01*
X17569688Y-3450081D01*
X17569688Y-3560318D01*
G37*
G36*
X17609311Y-3560318D02*
G01*
X17609311Y-3450081D01*
X17709641Y-3450081D01*
X17709641Y-3560318D01*
G37*
G36*
X18766027Y-3560318D02*
G01*
X18766027Y-3450081D01*
X18866358Y-3450081D01*
X18866358Y-3560318D01*
G37*
G36*
X18905981Y-3560318D02*
G01*
X18905981Y-3450081D01*
X19006311Y-3450081D01*
X19006311Y-3560318D01*
G37*
G36*
X20060158Y-3560318D02*
G01*
X20060158Y-3450081D01*
X20160488Y-3450081D01*
X20160488Y-3560318D01*
G37*
G36*
X20200111Y-3560318D02*
G01*
X20200111Y-3450081D01*
X20300441Y-3450081D01*
X20300441Y-3560318D01*
G37*
G36*
X21365209Y-3560318D02*
G01*
X21365209Y-3450081D01*
X21465540Y-3450081D01*
X21465540Y-3560318D01*
G37*
G36*
X21505163Y-3560318D02*
G01*
X21505163Y-3450081D01*
X21605493Y-3450081D01*
X21605493Y-3560318D01*
G37*
G36*
X22676358Y-3560318D02*
G01*
X22676358Y-3450081D01*
X22776688Y-3450081D01*
X22776688Y-3560318D01*
G37*
G36*
X22816311Y-3560318D02*
G01*
X22816311Y-3450081D01*
X22916641Y-3450081D01*
X22916641Y-3560318D01*
G37*
G36*
X19437858Y-2188718D02*
G01*
X19437858Y-2078481D01*
X19538188Y-2078481D01*
X19538188Y-2188718D01*
G37*
G36*
X19577811Y-2188718D02*
G01*
X19577811Y-2078481D01*
X19678141Y-2078481D01*
X19678141Y-2188718D01*
G37*
G36*
X18270981Y-2671318D02*
G01*
X18270981Y-2570987D01*
X18381218Y-2570987D01*
X18381218Y-2671318D01*
G37*
G36*
X18270981Y-2811271D02*
G01*
X18270981Y-2710942D01*
X18381218Y-2710942D01*
X18381218Y-2811271D01*
G37*
G36*
X13468858Y-2925318D02*
G01*
X13468858Y-2815081D01*
X13569188Y-2815081D01*
X13569188Y-2925318D01*
G37*
G36*
X13608811Y-2925318D02*
G01*
X13608811Y-2815081D01*
X13709141Y-2815081D01*
X13709141Y-2925318D01*
G37*
G36*
X20872958Y-2950718D02*
G01*
X20872958Y-2840481D01*
X20973288Y-2840481D01*
X20973288Y-2950718D01*
G37*
G36*
X21012911Y-2950718D02*
G01*
X21012911Y-2840481D01*
X21113241Y-2840481D01*
X21113241Y-2950718D01*
G37*
G36*
X1156970Y-3744721D02*
G01*
X1156970Y-3624326D01*
X1332229Y-3624326D01*
X1332229Y-3744721D01*
G37*
G36*
X1156970Y-3944873D02*
G01*
X1156970Y-3824478D01*
X1332229Y-3824478D01*
X1332229Y-3944873D01*
G37*
G36*
X1760981Y-2405887D02*
G01*
X1760981Y-2305557D01*
X1871218Y-2305557D01*
X1871218Y-2405887D01*
G37*
G36*
X1760981Y-2545842D02*
G01*
X1760981Y-2445512D01*
X1871218Y-2445512D01*
X1871218Y-2545842D01*
G37*
G36*
X2197861Y-4483607D02*
G01*
X2197861Y-4393437D01*
X2297938Y-4393437D01*
X2297938Y-4483607D01*
G37*
G36*
X2197861Y-4623562D02*
G01*
X2197861Y-4533392D01*
X2297938Y-4533392D01*
X2297938Y-4623562D01*
G37*
G36*
X2043938Y-4317237D02*
G01*
X2043938Y-4217162D01*
X2134108Y-4217162D01*
X2134108Y-4317237D01*
G37*
G36*
X2183891Y-4317237D02*
G01*
X2183891Y-4217162D01*
X2274061Y-4217162D01*
X2274061Y-4317237D01*
G37*
G36*
X8261858Y-2658618D02*
G01*
X8261858Y-2548381D01*
X8362188Y-2548381D01*
X8362188Y-2658618D01*
G37*
G36*
X8401811Y-2658618D02*
G01*
X8401811Y-2548381D01*
X8502141Y-2548381D01*
X8502141Y-2658618D01*
G37*
G36*
X9671558Y-3395218D02*
G01*
X9671558Y-3284981D01*
X9771888Y-3284981D01*
X9771888Y-3395218D01*
G37*
G36*
X9811511Y-3395218D02*
G01*
X9811511Y-3284981D01*
X9911841Y-3284981D01*
X9911841Y-3395218D01*
G37*
G36*
X8566658Y-3166618D02*
G01*
X8566658Y-3056381D01*
X8666988Y-3056381D01*
X8666988Y-3166618D01*
G37*
G36*
X8706611Y-3166618D02*
G01*
X8706611Y-3056381D01*
X8806941Y-3056381D01*
X8806941Y-3166618D01*
G37*
G36*
X8261858Y-1858518D02*
G01*
X8261858Y-1748281D01*
X8362188Y-1748281D01*
X8362188Y-1858518D01*
G37*
G36*
X8401811Y-1858518D02*
G01*
X8401811Y-1748281D01*
X8502141Y-1748281D01*
X8502141Y-1858518D01*
G37*
G36*
X8261858Y-2036318D02*
G01*
X8261858Y-1926081D01*
X8362188Y-1926081D01*
X8362188Y-2036318D01*
G37*
G36*
X8401811Y-2036318D02*
G01*
X8401811Y-1926081D01*
X8502141Y-1926081D01*
X8502141Y-2036318D01*
G37*
G36*
X10192511Y-1947418D02*
G01*
X10192511Y-1837181D01*
X10292841Y-1837181D01*
X10292841Y-1947418D01*
G37*
G36*
X10052558Y-1947418D02*
G01*
X10052558Y-1837181D01*
X10152888Y-1837181D01*
X10152888Y-1947418D01*
G37*
G36*
X2939288Y-4462018D02*
G01*
X2939288Y-4351781D01*
X3039618Y-4351781D01*
X3039618Y-4462018D01*
G37*
G36*
X3079241Y-4462018D02*
G01*
X3079241Y-4351781D01*
X3179572Y-4351781D01*
X3179572Y-4462018D01*
G37*
G36*
X6726681Y-2520442D02*
G01*
X6726681Y-2420112D01*
X6836918Y-2420112D01*
X6836918Y-2520442D01*
G37*
G36*
X6726681Y-2380487D02*
G01*
X6726681Y-2280157D01*
X6836918Y-2280157D01*
X6836918Y-2380487D01*
G37*
G36*
X6586981Y-2152142D02*
G01*
X6586981Y-2051812D01*
X6697472Y-2051812D01*
X6697472Y-2152142D01*
G37*
G36*
X6586981Y-2012187D02*
G01*
X6586981Y-1911857D01*
X6697472Y-1911857D01*
X6697472Y-2012187D01*
G37*
G36*
X6917181Y-2012442D02*
G01*
X6917181Y-1912112D01*
X7027672Y-1912112D01*
X7027672Y-2012442D01*
G37*
G36*
X6917181Y-2152395D02*
G01*
X6917181Y-2052065D01*
X7027672Y-2052065D01*
X7027672Y-2152395D01*
G37*
G36*
X6752081Y-2012442D02*
G01*
X6752081Y-1912112D01*
X6862572Y-1912112D01*
X6862572Y-2012442D01*
G37*
G36*
X6752081Y-2152395D02*
G01*
X6752081Y-2052065D01*
X6862572Y-2052065D01*
X6862572Y-2152395D01*
G37*
G36*
X672337Y-3253994D02*
G01*
X672337Y-3019805D01*
X887221Y-3019805D01*
X887221Y-3253994D01*
G37*
G36*
X154178Y-3253994D02*
G01*
X154178Y-3019805D01*
X369062Y-3019805D01*
X369062Y-3253994D01*
G37*
G36*
X1112520Y-2826765D02*
G01*
X1112520Y-2636773D01*
X1376679Y-2636773D01*
X1376679Y-2826765D01*
G37*
G36*
X1112520Y-3306826D02*
G01*
X1112520Y-3116834D01*
X1376679Y-3116834D01*
X1376679Y-3306826D01*
G37*
G36*
X1493773Y-3903979D02*
G01*
X1493773Y-3639820D01*
X1683765Y-3639820D01*
X1683765Y-3903979D01*
G37*
G36*
X1973834Y-3903979D02*
G01*
X1973834Y-3639820D01*
X2163825Y-3639820D01*
X2163825Y-3903979D01*
G37*
G36*
X2307336Y-3284981D02*
G01*
X2307336Y-2912618D01*
X2560065Y-2912618D01*
X2560065Y-3284981D01*
G37*
G36*
X1681734Y-3284981D02*
G01*
X1681734Y-2912618D01*
X1934463Y-2912618D01*
X1934463Y-3284981D01*
G37*
G36*
X3306572Y-3629660D02*
G01*
X3306572Y-3533139D01*
X3397250Y-3533139D01*
X3397250Y-3629660D01*
G37*
G36*
X3155950Y-3629660D02*
G01*
X3155950Y-3533139D01*
X3246627Y-3533139D01*
X3246627Y-3629660D01*
G37*
G36*
X4626102Y-3713226D02*
G01*
X4626102Y-3616705D01*
X4716779Y-3616705D01*
X4716779Y-3713226D01*
G37*
G36*
X4475225Y-3713226D02*
G01*
X4475225Y-3616705D01*
X4566158Y-3616705D01*
X4566158Y-3713226D01*
G37*
G36*
X5922772Y-3713226D02*
G01*
X5922772Y-3616705D01*
X6013450Y-3616705D01*
X6013450Y-3713226D01*
G37*
G36*
X5772150Y-3713226D02*
G01*
X5772150Y-3616705D01*
X5862827Y-3616705D01*
X5862827Y-3713226D01*
G37*
G36*
X7216902Y-3713226D02*
G01*
X7216902Y-3616705D01*
X7307579Y-3616705D01*
X7307579Y-3713226D01*
G37*
G36*
X7066025Y-3713226D02*
G01*
X7066025Y-3616705D01*
X7156958Y-3616705D01*
X7156958Y-3713226D01*
G37*
G36*
X8526272Y-3713226D02*
G01*
X8526272Y-3616705D01*
X8616950Y-3616705D01*
X8616950Y-3713226D01*
G37*
G36*
X8375650Y-3713226D02*
G01*
X8375650Y-3616705D01*
X8466327Y-3616705D01*
X8466327Y-3713226D01*
G37*
G36*
X9820402Y-3713226D02*
G01*
X9820402Y-3616705D01*
X9911079Y-3616705D01*
X9911079Y-3713226D01*
G37*
G36*
X9669525Y-3713226D02*
G01*
X9669525Y-3616705D01*
X9760458Y-3616705D01*
X9760458Y-3713226D01*
G37*
G36*
X11117072Y-3713226D02*
G01*
X11117072Y-3616705D01*
X11207750Y-3616705D01*
X11207750Y-3713226D01*
G37*
G36*
X10966450Y-3713226D02*
G01*
X10966450Y-3616705D01*
X11057127Y-3616705D01*
X11057127Y-3713226D01*
G37*
G36*
X12423902Y-3713226D02*
G01*
X12423902Y-3616705D01*
X12514579Y-3616705D01*
X12514579Y-3713226D01*
G37*
G36*
X12273025Y-3713226D02*
G01*
X12273025Y-3616705D01*
X12363958Y-3616705D01*
X12363958Y-3713226D01*
G37*
G36*
X13732002Y-3713226D02*
G01*
X13732002Y-3616705D01*
X13822679Y-3616705D01*
X13822679Y-3713226D01*
G37*
G36*
X13581125Y-3713226D02*
G01*
X13581125Y-3616705D01*
X13672058Y-3616705D01*
X13672058Y-3713226D01*
G37*
G36*
X15027402Y-3713226D02*
G01*
X15027402Y-3616705D01*
X15118079Y-3616705D01*
X15118079Y-3713226D01*
G37*
G36*
X14876525Y-3713226D02*
G01*
X14876525Y-3616705D01*
X14967458Y-3616705D01*
X14967458Y-3713226D01*
G37*
G36*
X16322802Y-3713226D02*
G01*
X16322802Y-3616705D01*
X16413479Y-3616705D01*
X16413479Y-3713226D01*
G37*
G36*
X16171925Y-3713226D02*
G01*
X16171925Y-3616705D01*
X16262858Y-3616705D01*
X16262858Y-3713226D01*
G37*
G36*
X17618202Y-3713226D02*
G01*
X17618202Y-3616705D01*
X17708879Y-3616705D01*
X17708879Y-3713226D01*
G37*
G36*
X17467325Y-3713226D02*
G01*
X17467325Y-3616705D01*
X17558258Y-3616705D01*
X17558258Y-3713226D01*
G37*
G36*
X18914872Y-3713226D02*
G01*
X18914872Y-3616705D01*
X19005550Y-3616705D01*
X19005550Y-3713226D01*
G37*
G36*
X18764250Y-3713226D02*
G01*
X18764250Y-3616705D01*
X18854927Y-3616705D01*
X18854927Y-3713226D01*
G37*
G36*
X20209002Y-3713226D02*
G01*
X20209002Y-3616705D01*
X20299679Y-3616705D01*
X20299679Y-3713226D01*
G37*
G36*
X20058125Y-3713226D02*
G01*
X20058125Y-3616705D01*
X20149058Y-3616705D01*
X20149058Y-3713226D01*
G37*
G36*
X21514054Y-3713226D02*
G01*
X21514054Y-3616705D01*
X21604731Y-3616705D01*
X21604731Y-3713226D01*
G37*
G36*
X21363431Y-3713226D02*
G01*
X21363431Y-3616705D01*
X21454109Y-3616705D01*
X21454109Y-3713226D01*
G37*
G36*
X22825202Y-3713226D02*
G01*
X22825202Y-3616705D01*
X22915879Y-3616705D01*
X22915879Y-3713226D01*
G37*
G36*
X22674325Y-3713226D02*
G01*
X22674325Y-3616705D01*
X22765258Y-3616705D01*
X22765258Y-3713226D01*
G37*
G36*
X18455640Y-2306828D02*
G01*
X18455640Y-2216150D01*
X18552159Y-2216150D01*
X18552159Y-2306828D01*
G37*
G36*
X18455640Y-2457450D02*
G01*
X18455640Y-2366771D01*
X18552159Y-2366771D01*
X18552159Y-2457450D01*
G37*
G36*
X18608040Y-2457450D02*
G01*
X18608040Y-2366771D01*
X18704559Y-2366771D01*
X18704559Y-2457450D01*
G37*
G36*
X18608040Y-2306828D02*
G01*
X18608040Y-2216150D01*
X18704559Y-2216150D01*
X18704559Y-2306828D01*
G37*
G36*
X18760440Y-2457450D02*
G01*
X18760440Y-2366771D01*
X18856959Y-2366771D01*
X18856959Y-2457450D01*
G37*
G36*
X18760440Y-2306828D02*
G01*
X18760440Y-2216150D01*
X18856959Y-2216150D01*
X18856959Y-2306828D01*
G37*
G36*
X20005040Y-2508250D02*
G01*
X20005040Y-2417571D01*
X20101559Y-2417571D01*
X20101559Y-2508250D01*
G37*
G36*
X20005040Y-2357628D02*
G01*
X20005040Y-2266950D01*
X20101559Y-2266950D01*
X20101559Y-2357628D01*
G37*
G36*
X20005040Y-2813050D02*
G01*
X20005040Y-2722371D01*
X20101559Y-2722371D01*
X20101559Y-2813050D01*
G37*
G36*
X20005040Y-2662428D02*
G01*
X20005040Y-2571750D01*
X20101559Y-2571750D01*
X20101559Y-2662428D01*
G37*
G36*
X19852640Y-2813050D02*
G01*
X19852640Y-2722371D01*
X19949159Y-2722371D01*
X19949159Y-2813050D01*
G37*
G36*
X19852640Y-2662428D02*
G01*
X19852640Y-2571750D01*
X19949159Y-2571750D01*
X19949159Y-2662428D01*
G37*
G36*
X891539Y-4376928D02*
G01*
X891539Y-4286250D01*
X988060Y-4286250D01*
X988060Y-4376928D01*
G37*
G36*
X891539Y-4527550D02*
G01*
X891539Y-4436871D01*
X988060Y-4436871D01*
X988060Y-4527550D01*
G37*
G36*
X891539Y-4681728D02*
G01*
X891539Y-4591050D01*
X988060Y-4591050D01*
X988060Y-4681728D01*
G37*
G36*
X891539Y-4832350D02*
G01*
X891539Y-4741671D01*
X988060Y-4741671D01*
X988060Y-4832350D01*
G37*
G36*
X1211071Y-4874260D02*
G01*
X1211071Y-4777739D01*
X1301750Y-4777739D01*
X1301750Y-4874260D01*
G37*
G36*
X1060450Y-4874260D02*
G01*
X1060450Y-4777739D01*
X1151128Y-4777739D01*
X1151128Y-4874260D01*
G37*
G36*
X2034540Y-4478528D02*
G01*
X2034540Y-4387850D01*
X2131059Y-4387850D01*
X2131059Y-4478528D01*
G37*
G36*
X2034540Y-4629150D02*
G01*
X2034540Y-4538471D01*
X2131059Y-4538471D01*
X2131059Y-4629150D01*
G37*
G36*
X13823695Y-2861563D02*
G01*
X13823695Y-2800604D01*
X14024356Y-2800604D01*
X14024356Y-2861563D01*
G37*
G36*
X13823695Y-2796539D02*
G01*
X13823695Y-2735579D01*
X14024356Y-2735579D01*
X14024356Y-2796539D01*
G37*
G36*
X13823695Y-2731515D02*
G01*
X13823695Y-2670555D01*
X14024356Y-2670555D01*
X14024356Y-2731515D01*
G37*
G36*
X13823695Y-2666492D02*
G01*
X13823695Y-2605531D01*
X14024356Y-2605531D01*
X14024356Y-2666492D01*
G37*
G36*
X13823695Y-2601468D02*
G01*
X13823695Y-2540507D01*
X14024356Y-2540507D01*
X14024356Y-2601468D01*
G37*
G36*
X13823695Y-2536444D02*
G01*
X13823695Y-2475484D01*
X14024356Y-2475484D01*
X14024356Y-2536444D01*
G37*
G36*
X13823695Y-2471420D02*
G01*
X13823695Y-2410460D01*
X14024356Y-2410460D01*
X14024356Y-2471420D01*
G37*
G36*
X13823695Y-2406395D02*
G01*
X13823695Y-2345436D01*
X14024356Y-2345436D01*
X14024356Y-2406395D01*
G37*
G36*
X14423643Y-2406395D02*
G01*
X14423643Y-2345436D01*
X14624304Y-2345436D01*
X14624304Y-2406395D01*
G37*
G36*
X14423643Y-2471420D02*
G01*
X14423643Y-2410460D01*
X14624304Y-2410460D01*
X14624304Y-2471420D01*
G37*
G36*
X14423643Y-2536444D02*
G01*
X14423643Y-2475484D01*
X14624304Y-2475484D01*
X14624304Y-2536444D01*
G37*
G36*
X14423643Y-2601468D02*
G01*
X14423643Y-2540507D01*
X14624304Y-2540507D01*
X14624304Y-2601468D01*
G37*
G36*
X14423643Y-2666492D02*
G01*
X14423643Y-2605531D01*
X14624304Y-2605531D01*
X14624304Y-2666492D01*
G37*
G36*
X14423643Y-2731515D02*
G01*
X14423643Y-2670555D01*
X14624304Y-2670555D01*
X14624304Y-2731515D01*
G37*
G36*
X14423643Y-2796539D02*
G01*
X14423643Y-2735579D01*
X14624304Y-2735579D01*
X14624304Y-2796539D01*
G37*
G36*
X14423643Y-2861563D02*
G01*
X14423643Y-2800604D01*
X14624304Y-2800604D01*
X14624304Y-2861563D01*
G37*
G36*
X21215095Y-2861563D02*
G01*
X21215095Y-2800604D01*
X21415756Y-2800604D01*
X21415756Y-2861563D01*
G37*
G36*
X21215095Y-2796539D02*
G01*
X21215095Y-2735579D01*
X21415756Y-2735579D01*
X21415756Y-2796539D01*
G37*
G36*
X21215095Y-2731515D02*
G01*
X21215095Y-2670555D01*
X21415756Y-2670555D01*
X21415756Y-2731515D01*
G37*
G36*
X21215095Y-2666492D02*
G01*
X21215095Y-2605531D01*
X21415756Y-2605531D01*
X21415756Y-2666492D01*
G37*
G36*
X21215095Y-2601468D02*
G01*
X21215095Y-2540507D01*
X21415756Y-2540507D01*
X21415756Y-2601468D01*
G37*
G36*
X21215095Y-2536444D02*
G01*
X21215095Y-2475484D01*
X21415756Y-2475484D01*
X21415756Y-2536444D01*
G37*
G36*
X21215095Y-2471420D02*
G01*
X21215095Y-2410460D01*
X21415756Y-2410460D01*
X21415756Y-2471420D01*
G37*
G36*
X21215095Y-2406395D02*
G01*
X21215095Y-2345436D01*
X21415756Y-2345436D01*
X21415756Y-2406395D01*
G37*
G36*
X21815043Y-2406395D02*
G01*
X21815043Y-2345436D01*
X22015704Y-2345436D01*
X22015704Y-2406395D01*
G37*
G36*
X21815043Y-2471420D02*
G01*
X21815043Y-2410460D01*
X22015704Y-2410460D01*
X22015704Y-2471420D01*
G37*
G36*
X21815043Y-2536444D02*
G01*
X21815043Y-2475484D01*
X22015704Y-2475484D01*
X22015704Y-2536444D01*
G37*
G36*
X21815043Y-2601468D02*
G01*
X21815043Y-2540507D01*
X22015704Y-2540507D01*
X22015704Y-2601468D01*
G37*
G36*
X21815043Y-2666492D02*
G01*
X21815043Y-2605531D01*
X22015704Y-2605531D01*
X22015704Y-2666492D01*
G37*
G36*
X21815043Y-2731515D02*
G01*
X21815043Y-2670555D01*
X22015704Y-2670555D01*
X22015704Y-2731515D01*
G37*
G36*
X21815043Y-2796539D02*
G01*
X21815043Y-2735579D01*
X22015704Y-2735579D01*
X22015704Y-2796539D01*
G37*
G36*
X21815043Y-2861563D02*
G01*
X21815043Y-2800604D01*
X22015704Y-2800604D01*
X22015704Y-2861563D01*
G37*
D77*
G01*
X2698013Y-3499993D03*
G01*
X2952013Y-3499993D03*
G01*
X3998010Y-3499993D03*
G01*
X4252010Y-3499993D03*
G01*
X5298008Y-3499993D03*
G01*
X5552008Y-3499993D03*
G01*
X6598005Y-3499993D03*
G01*
X6852005Y-3499993D03*
G01*
X7898002Y-3499993D03*
G01*
X8152002Y-3499993D03*
G01*
X9198000Y-3499993D03*
G01*
X9452000Y-3499993D03*
G01*
X10497997Y-3499993D03*
G01*
X10751997Y-3499993D03*
G01*
X11797995Y-3499993D03*
G01*
X12051995Y-3499993D03*
G01*
X13097992Y-3499993D03*
G01*
X13351992Y-3499993D03*
G01*
X14397990Y-3499993D03*
G01*
X14651990Y-3499993D03*
G01*
X15698012Y-3499993D03*
G01*
X15952012Y-3499993D03*
G01*
X16998010Y-3499993D03*
G01*
X17252010Y-3499993D03*
G01*
X18298007Y-3499993D03*
G01*
X18552007Y-3499993D03*
G01*
X19598004Y-3499993D03*
G01*
X19852004Y-3499993D03*
G01*
X20898002Y-3499993D03*
G01*
X21152002Y-3499993D03*
G01*
X22197999Y-3499993D03*
G01*
X22451999Y-3499993D03*
G01*
X2048002Y-1499996D03*
G01*
X2302002Y-1499996D03*
G01*
X3347999Y-1499996D03*
G01*
X3601999Y-1499996D03*
G01*
X4647996Y-1499971D03*
G01*
X4901996Y-1499971D03*
G01*
X5947994Y-1499971D03*
G01*
X6201994Y-1499971D03*
G01*
X7247991Y-1499971D03*
G01*
X7501991Y-1499971D03*
G01*
X8547988Y-1499996D03*
G01*
X8801988Y-1499996D03*
G01*
X9848011Y-1499996D03*
G01*
X10102011Y-1499996D03*
G01*
X11148009Y-1499996D03*
G01*
X11402009Y-1499996D03*
G01*
X12448006Y-1499996D03*
G01*
X12702006Y-1499996D03*
G01*
X13748004Y-1499996D03*
G01*
X14002004Y-1499996D03*
G01*
X15048001Y-1499996D03*
G01*
X15302001Y-1499996D03*
G01*
X16347998Y-1499996D03*
G01*
X16601998Y-1499996D03*
G01*
X17647996Y-1499996D03*
G01*
X17901996Y-1499996D03*
G01*
X18947993Y-1499996D03*
G01*
X19201993Y-1499996D03*
G01*
X20247991Y-1499996D03*
G01*
X20501991Y-1499996D03*
G01*
X21548013Y-1499996D03*
G01*
X21802013Y-1499996D03*
D78*
G01*
X863600Y-2200300D03*
G01*
X863600Y-2400300D03*
G36*
X782320Y-2681478D02*
G01*
X782320Y-2518918D01*
X944879Y-2518918D01*
X944879Y-2681478D01*
G37*
D80*
G01*
X827100Y-946200D03*
G01*
X1027099Y-946200D03*
G01*
X827100Y-1146200D03*
G01*
X1027099Y-1146200D03*
G01*
X827100Y-1346200D03*
G01*
X1027099Y-1346200D03*
G01*
X1026998Y-1746199D03*
G01*
X1026998Y-1546301D03*
G01*
X827100Y-1546301D03*
G01*
X827100Y-1746199D03*
G36*
X4171441Y-2504947D02*
G01*
X4171441Y-2415031D01*
X4261358Y-2415031D01*
X4261358Y-2504947D01*
G37*
G36*
X4171441Y-2334768D02*
G01*
X4171441Y-2244852D01*
X4261358Y-2244852D01*
X4261358Y-2334768D01*
G37*
G36*
X2654045Y-917955D02*
G01*
X2654045Y-807720D01*
X2743961Y-807720D01*
X2743961Y-917955D01*
G37*
G36*
X2749041Y-1148079D02*
G01*
X2749041Y-1037844D01*
X2838958Y-1037844D01*
X2838958Y-1148079D01*
G37*
G36*
X2844038Y-917955D02*
G01*
X2844038Y-807720D01*
X2933954Y-807720D01*
X2933954Y-917955D01*
G37*
G36*
X3454145Y-917955D02*
G01*
X3454145Y-807720D01*
X3544061Y-807720D01*
X3544061Y-917955D01*
G37*
G36*
X3549141Y-1148079D02*
G01*
X3549141Y-1037844D01*
X3639058Y-1037844D01*
X3639058Y-1148079D01*
G37*
G36*
X3644138Y-917955D02*
G01*
X3644138Y-807720D01*
X3734054Y-807720D01*
X3734054Y-917955D01*
G37*
G36*
X4762245Y-917955D02*
G01*
X4762245Y-807720D01*
X4852161Y-807720D01*
X4852161Y-917955D01*
G37*
G36*
X4857241Y-1148079D02*
G01*
X4857241Y-1037844D01*
X4947158Y-1037844D01*
X4947158Y-1148079D01*
G37*
G36*
X4952238Y-917955D02*
G01*
X4952238Y-807720D01*
X5042154Y-807720D01*
X5042154Y-917955D01*
G37*
G36*
X6057645Y-917955D02*
G01*
X6057645Y-807720D01*
X6147561Y-807720D01*
X6147561Y-917955D01*
G37*
G36*
X6152641Y-1148079D02*
G01*
X6152641Y-1037844D01*
X6242558Y-1037844D01*
X6242558Y-1148079D01*
G37*
G36*
X6247638Y-917955D02*
G01*
X6247638Y-807720D01*
X6337554Y-807720D01*
X6337554Y-917955D01*
G37*
G36*
X7353045Y-917955D02*
G01*
X7353045Y-807720D01*
X7442961Y-807720D01*
X7442961Y-917955D01*
G37*
G36*
X7448041Y-1148079D02*
G01*
X7448041Y-1037844D01*
X7537958Y-1037844D01*
X7537958Y-1148079D01*
G37*
G36*
X7543038Y-917955D02*
G01*
X7543038Y-807720D01*
X7632954Y-807720D01*
X7632954Y-917955D01*
G37*
G36*
X8661145Y-917955D02*
G01*
X8661145Y-807720D01*
X8751061Y-807720D01*
X8751061Y-917955D01*
G37*
G36*
X8756141Y-1148079D02*
G01*
X8756141Y-1037844D01*
X8846058Y-1037844D01*
X8846058Y-1148079D01*
G37*
G36*
X8851138Y-917955D02*
G01*
X8851138Y-807720D01*
X8941054Y-807720D01*
X8941054Y-917955D01*
G37*
G36*
X9956545Y-917955D02*
G01*
X9956545Y-807720D01*
X10046461Y-807720D01*
X10046461Y-917955D01*
G37*
G36*
X10051541Y-1148079D02*
G01*
X10051541Y-1037844D01*
X10141458Y-1037844D01*
X10141458Y-1148079D01*
G37*
G36*
X10146538Y-917955D02*
G01*
X10146538Y-807720D01*
X10236454Y-807720D01*
X10236454Y-917955D01*
G37*
G36*
X11048745Y-917955D02*
G01*
X11048745Y-807720D01*
X11138661Y-807720D01*
X11138661Y-917955D01*
G37*
G36*
X11143741Y-1148079D02*
G01*
X11143741Y-1037844D01*
X11233658Y-1037844D01*
X11233658Y-1148079D01*
G37*
G36*
X11238738Y-917955D02*
G01*
X11238738Y-807720D01*
X11328654Y-807720D01*
X11328654Y-917955D01*
G37*
G36*
X12814045Y-917955D02*
G01*
X12814045Y-807720D01*
X12903961Y-807720D01*
X12903961Y-917955D01*
G37*
G36*
X12909041Y-1148079D02*
G01*
X12909041Y-1037844D01*
X12998958Y-1037844D01*
X12998958Y-1148079D01*
G37*
G36*
X13004038Y-917955D02*
G01*
X13004038Y-807720D01*
X13093954Y-807720D01*
X13093954Y-917955D01*
G37*
G36*
X13868145Y-917955D02*
G01*
X13868145Y-807720D01*
X13958061Y-807720D01*
X13958061Y-917955D01*
G37*
G36*
X13963141Y-1148079D02*
G01*
X13963141Y-1037844D01*
X14053058Y-1037844D01*
X14053058Y-1148079D01*
G37*
G36*
X14058138Y-917955D02*
G01*
X14058138Y-807720D01*
X14148054Y-807720D01*
X14148054Y-917955D01*
G37*
G36*
X15163545Y-917955D02*
G01*
X15163545Y-807720D01*
X15253461Y-807720D01*
X15253461Y-917955D01*
G37*
G36*
X15258541Y-1148079D02*
G01*
X15258541Y-1037844D01*
X15348458Y-1037844D01*
X15348458Y-1148079D01*
G37*
G36*
X15353538Y-917955D02*
G01*
X15353538Y-807720D01*
X15443454Y-807720D01*
X15443454Y-917955D01*
G37*
G36*
X16458945Y-917955D02*
G01*
X16458945Y-807720D01*
X16548861Y-807720D01*
X16548861Y-917955D01*
G37*
G36*
X16553941Y-1148079D02*
G01*
X16553941Y-1037844D01*
X16643858Y-1037844D01*
X16643858Y-1148079D01*
G37*
G36*
X16648938Y-917955D02*
G01*
X16648938Y-807720D01*
X16738854Y-807720D01*
X16738854Y-917955D01*
G37*
G36*
X17767045Y-917955D02*
G01*
X17767045Y-807720D01*
X17856961Y-807720D01*
X17856961Y-917955D01*
G37*
G36*
X17862041Y-1148079D02*
G01*
X17862041Y-1037844D01*
X17951958Y-1037844D01*
X17951958Y-1148079D01*
G37*
G36*
X17957038Y-917955D02*
G01*
X17957038Y-807720D01*
X18046954Y-807720D01*
X18046954Y-917955D01*
G37*
G36*
X19062445Y-917955D02*
G01*
X19062445Y-807720D01*
X19152361Y-807720D01*
X19152361Y-917955D01*
G37*
G36*
X19157441Y-1148079D02*
G01*
X19157441Y-1037844D01*
X19247358Y-1037844D01*
X19247358Y-1148079D01*
G37*
G36*
X19252438Y-917955D02*
G01*
X19252438Y-807720D01*
X19342354Y-807720D01*
X19342354Y-917955D01*
G37*
G36*
X20357845Y-917955D02*
G01*
X20357845Y-807720D01*
X20447761Y-807720D01*
X20447761Y-917955D01*
G37*
G36*
X20452841Y-1148079D02*
G01*
X20452841Y-1037844D01*
X20542758Y-1037844D01*
X20542758Y-1148079D01*
G37*
G36*
X20547838Y-917955D02*
G01*
X20547838Y-807720D01*
X20637754Y-807720D01*
X20637754Y-917955D01*
G37*
G36*
X21665945Y-917955D02*
G01*
X21665945Y-807720D01*
X21755861Y-807720D01*
X21755861Y-917955D01*
G37*
G36*
X21760941Y-1148079D02*
G01*
X21760941Y-1037844D01*
X21850858Y-1037844D01*
X21850858Y-1148079D01*
G37*
G36*
X21855938Y-917955D02*
G01*
X21855938Y-807720D01*
X21945854Y-807720D01*
X21945854Y-917955D01*
G37*
G36*
X5526277Y-2801112D02*
G01*
X5526277Y-2655823D01*
X5616702Y-2655823D01*
X5616702Y-2801112D01*
G37*
G36*
X5431281Y-2551176D02*
G01*
X5431281Y-2405887D01*
X5521706Y-2405887D01*
X5521706Y-2551176D01*
G37*
G36*
X5621274Y-2551176D02*
G01*
X5621274Y-2405887D01*
X5711697Y-2405887D01*
X5711697Y-2551176D01*
G37*
G36*
X5847588Y-2801112D02*
G01*
X5847588Y-2655823D01*
X5938011Y-2655823D01*
X5938011Y-2801112D01*
G37*
G36*
X5752591Y-2551176D02*
G01*
X5752591Y-2405887D01*
X5843015Y-2405887D01*
X5843015Y-2551176D01*
G37*
G36*
X5942584Y-2551176D02*
G01*
X5942584Y-2405887D01*
X6033008Y-2405887D01*
X6033008Y-2551176D01*
G37*
G36*
X2673350Y-568960D02*
G01*
X2673350Y-472439D01*
X2764027Y-472439D01*
X2764027Y-568960D01*
G37*
G36*
X2823972Y-568960D02*
G01*
X2823972Y-472439D01*
X2914650Y-472439D01*
X2914650Y-568960D01*
G37*
G36*
X2823972Y-721360D02*
G01*
X2823972Y-624839D01*
X2914650Y-624839D01*
X2914650Y-721360D01*
G37*
G36*
X2673350Y-721360D02*
G01*
X2673350Y-624839D01*
X2764027Y-624839D01*
X2764027Y-721360D01*
G37*
G36*
X3486150Y-568960D02*
G01*
X3486150Y-472439D01*
X3576827Y-472439D01*
X3576827Y-568960D01*
G37*
G36*
X3636772Y-568960D02*
G01*
X3636772Y-472439D01*
X3727450Y-472439D01*
X3727450Y-568960D01*
G37*
G36*
X3636772Y-721360D02*
G01*
X3636772Y-624839D01*
X3727450Y-624839D01*
X3727450Y-721360D01*
G37*
G36*
X3486150Y-721360D02*
G01*
X3486150Y-624839D01*
X3576827Y-624839D01*
X3576827Y-721360D01*
G37*
G36*
X4781550Y-568960D02*
G01*
X4781550Y-472439D01*
X4872227Y-472439D01*
X4872227Y-568960D01*
G37*
G36*
X4932172Y-568960D02*
G01*
X4932172Y-472439D01*
X5022850Y-472439D01*
X5022850Y-568960D01*
G37*
G36*
X4932172Y-721360D02*
G01*
X4932172Y-624839D01*
X5022850Y-624839D01*
X5022850Y-721360D01*
G37*
G36*
X4781550Y-721360D02*
G01*
X4781550Y-624839D01*
X4872227Y-624839D01*
X4872227Y-721360D01*
G37*
G36*
X6064250Y-568960D02*
G01*
X6064250Y-472439D01*
X6154927Y-472439D01*
X6154927Y-568960D01*
G37*
G36*
X6214872Y-568960D02*
G01*
X6214872Y-472439D01*
X6305550Y-472439D01*
X6305550Y-568960D01*
G37*
G36*
X6214872Y-721360D02*
G01*
X6214872Y-624839D01*
X6305550Y-624839D01*
X6305550Y-721360D01*
G37*
G36*
X6064250Y-721360D02*
G01*
X6064250Y-624839D01*
X6154927Y-624839D01*
X6154927Y-721360D01*
G37*
G36*
X7372350Y-568960D02*
G01*
X7372350Y-472439D01*
X7463027Y-472439D01*
X7463027Y-568960D01*
G37*
G36*
X7522972Y-568960D02*
G01*
X7522972Y-472439D01*
X7613650Y-472439D01*
X7613650Y-568960D01*
G37*
G36*
X7522972Y-721360D02*
G01*
X7522972Y-624839D01*
X7613650Y-624839D01*
X7613650Y-721360D01*
G37*
G36*
X7372350Y-721360D02*
G01*
X7372350Y-624839D01*
X7463027Y-624839D01*
X7463027Y-721360D01*
G37*
G36*
X8680450Y-568960D02*
G01*
X8680450Y-472439D01*
X8771127Y-472439D01*
X8771127Y-568960D01*
G37*
G36*
X8831072Y-568960D02*
G01*
X8831072Y-472439D01*
X8921750Y-472439D01*
X8921750Y-568960D01*
G37*
G36*
X8831072Y-721360D02*
G01*
X8831072Y-624839D01*
X8921750Y-624839D01*
X8921750Y-721360D01*
G37*
G36*
X8680450Y-721360D02*
G01*
X8680450Y-624839D01*
X8771127Y-624839D01*
X8771127Y-721360D01*
G37*
G36*
X9963150Y-568960D02*
G01*
X9963150Y-472439D01*
X10053827Y-472439D01*
X10053827Y-568960D01*
G37*
G36*
X10113772Y-568960D02*
G01*
X10113772Y-472439D01*
X10204450Y-472439D01*
X10204450Y-568960D01*
G37*
G36*
X10113772Y-721360D02*
G01*
X10113772Y-624839D01*
X10204450Y-624839D01*
X10204450Y-721360D01*
G37*
G36*
X9963150Y-721360D02*
G01*
X9963150Y-624839D01*
X10053827Y-624839D01*
X10053827Y-721360D01*
G37*
G36*
X11055350Y-568960D02*
G01*
X11055350Y-472439D01*
X11146027Y-472439D01*
X11146027Y-568960D01*
G37*
G36*
X11205972Y-568960D02*
G01*
X11205972Y-472439D01*
X11296650Y-472439D01*
X11296650Y-568960D01*
G37*
G36*
X11205972Y-721360D02*
G01*
X11205972Y-624839D01*
X11296650Y-624839D01*
X11296650Y-721360D01*
G37*
G36*
X11055350Y-721360D02*
G01*
X11055350Y-624839D01*
X11146027Y-624839D01*
X11146027Y-721360D01*
G37*
G36*
X12833350Y-568960D02*
G01*
X12833350Y-472439D01*
X12924027Y-472439D01*
X12924027Y-568960D01*
G37*
G36*
X12983972Y-568960D02*
G01*
X12983972Y-472439D01*
X13074650Y-472439D01*
X13074650Y-568960D01*
G37*
G36*
X12983972Y-721360D02*
G01*
X12983972Y-624839D01*
X13074650Y-624839D01*
X13074650Y-721360D01*
G37*
G36*
X12833350Y-721360D02*
G01*
X12833350Y-624839D01*
X12924027Y-624839D01*
X12924027Y-721360D01*
G37*
G36*
X13887450Y-568960D02*
G01*
X13887450Y-472439D01*
X13978127Y-472439D01*
X13978127Y-568960D01*
G37*
G36*
X14038072Y-568960D02*
G01*
X14038072Y-472439D01*
X14128750Y-472439D01*
X14128750Y-568960D01*
G37*
G36*
X14038072Y-721360D02*
G01*
X14038072Y-624839D01*
X14128750Y-624839D01*
X14128750Y-721360D01*
G37*
G36*
X13887450Y-721360D02*
G01*
X13887450Y-624839D01*
X13978127Y-624839D01*
X13978127Y-721360D01*
G37*
G36*
X15182850Y-568960D02*
G01*
X15182850Y-472439D01*
X15273527Y-472439D01*
X15273527Y-568960D01*
G37*
G36*
X15333472Y-568960D02*
G01*
X15333472Y-472439D01*
X15424150Y-472439D01*
X15424150Y-568960D01*
G37*
G36*
X15333472Y-721360D02*
G01*
X15333472Y-624839D01*
X15424150Y-624839D01*
X15424150Y-721360D01*
G37*
G36*
X15182850Y-721360D02*
G01*
X15182850Y-624839D01*
X15273527Y-624839D01*
X15273527Y-721360D01*
G37*
G36*
X16478250Y-568960D02*
G01*
X16478250Y-472439D01*
X16568927Y-472439D01*
X16568927Y-568960D01*
G37*
G36*
X16628872Y-568960D02*
G01*
X16628872Y-472439D01*
X16719550Y-472439D01*
X16719550Y-568960D01*
G37*
G36*
X16628872Y-721360D02*
G01*
X16628872Y-624839D01*
X16719550Y-624839D01*
X16719550Y-721360D01*
G37*
G36*
X16478250Y-721360D02*
G01*
X16478250Y-624839D01*
X16568927Y-624839D01*
X16568927Y-721360D01*
G37*
G36*
X17786350Y-568960D02*
G01*
X17786350Y-472439D01*
X17877027Y-472439D01*
X17877027Y-568960D01*
G37*
G36*
X17936972Y-568960D02*
G01*
X17936972Y-472439D01*
X18027650Y-472439D01*
X18027650Y-568960D01*
G37*
G36*
X17936972Y-721360D02*
G01*
X17936972Y-624839D01*
X18027650Y-624839D01*
X18027650Y-721360D01*
G37*
G36*
X17786350Y-721360D02*
G01*
X17786350Y-624839D01*
X17877027Y-624839D01*
X17877027Y-721360D01*
G37*
G36*
X19081750Y-568960D02*
G01*
X19081750Y-472439D01*
X19172427Y-472439D01*
X19172427Y-568960D01*
G37*
G36*
X19232372Y-568960D02*
G01*
X19232372Y-472439D01*
X19323050Y-472439D01*
X19323050Y-568960D01*
G37*
G36*
X19232372Y-721360D02*
G01*
X19232372Y-624839D01*
X19323050Y-624839D01*
X19323050Y-721360D01*
G37*
G36*
X19081750Y-721360D02*
G01*
X19081750Y-624839D01*
X19172427Y-624839D01*
X19172427Y-721360D01*
G37*
G36*
X20377150Y-568960D02*
G01*
X20377150Y-472439D01*
X20467827Y-472439D01*
X20467827Y-568960D01*
G37*
G36*
X20527772Y-568960D02*
G01*
X20527772Y-472439D01*
X20618450Y-472439D01*
X20618450Y-568960D01*
G37*
G36*
X20527772Y-721360D02*
G01*
X20527772Y-624839D01*
X20618450Y-624839D01*
X20618450Y-721360D01*
G37*
G36*
X20377150Y-721360D02*
G01*
X20377150Y-624839D01*
X20467827Y-624839D01*
X20467827Y-721360D01*
G37*
G36*
X21685250Y-568960D02*
G01*
X21685250Y-472439D01*
X21775927Y-472439D01*
X21775927Y-568960D01*
G37*
G36*
X21835872Y-568960D02*
G01*
X21835872Y-472439D01*
X21926550Y-472439D01*
X21926550Y-568960D01*
G37*
G36*
X21835872Y-721360D02*
G01*
X21835872Y-624839D01*
X21926550Y-624839D01*
X21926550Y-721360D01*
G37*
G36*
X21685250Y-721360D02*
G01*
X21685250Y-624839D01*
X21775927Y-624839D01*
X21775927Y-721360D01*
G37*
G36*
X1858771Y-4874260D02*
G01*
X1858771Y-4777739D01*
X1949450Y-4777739D01*
X1949450Y-4874260D01*
G37*
G36*
X1708150Y-4874260D02*
G01*
X1708150Y-4777739D01*
X1798828Y-4777739D01*
X1798828Y-4874260D01*
G37*
G36*
X1553971Y-4874260D02*
G01*
X1553971Y-4777739D01*
X1644650Y-4777739D01*
X1644650Y-4874260D01*
G37*
G36*
X1403350Y-4874260D02*
G01*
X1403350Y-4777739D01*
X1494028Y-4777739D01*
X1494028Y-4874260D01*
G37*
G36*
X3090672Y-4290060D02*
G01*
X3090672Y-4193539D01*
X3181350Y-4193539D01*
X3181350Y-4290060D01*
G37*
G36*
X2940050Y-4290060D02*
G01*
X2940050Y-4193539D01*
X3030727Y-4193539D01*
X3030727Y-4290060D01*
G37*
G36*
X3090672Y-4137660D02*
G01*
X3090672Y-4041139D01*
X3181350Y-4041139D01*
X3181350Y-4137660D01*
G37*
G36*
X2940050Y-4137660D02*
G01*
X2940050Y-4041139D01*
X3030727Y-4041139D01*
X3030727Y-4137660D01*
G37*
G36*
X3090672Y-3985260D02*
G01*
X3090672Y-3888739D01*
X3181350Y-3888739D01*
X3181350Y-3985260D01*
G37*
G36*
X2940050Y-3985260D02*
G01*
X2940050Y-3888739D01*
X3030727Y-3888739D01*
X3030727Y-3985260D01*
G37*
G36*
X7635240Y-2520950D02*
G01*
X7635240Y-2430271D01*
X7731759Y-2430271D01*
X7731759Y-2520950D01*
G37*
G36*
X7635240Y-2370328D02*
G01*
X7635240Y-2279650D01*
X7731759Y-2279650D01*
X7731759Y-2370328D01*
G37*
G36*
X7482840Y-2370328D02*
G01*
X7482840Y-2279650D01*
X7579359Y-2279650D01*
X7579359Y-2370328D01*
G37*
G36*
X7482840Y-2520950D02*
G01*
X7482840Y-2430271D01*
X7579359Y-2430271D01*
X7579359Y-2520950D01*
G37*
G36*
X6898640Y-2370328D02*
G01*
X6898640Y-2279650D01*
X6995159Y-2279650D01*
X6995159Y-2370328D01*
G37*
G36*
X6898640Y-2520950D02*
G01*
X6898640Y-2430271D01*
X6995159Y-2430271D01*
X6995159Y-2520950D01*
G37*
G36*
X5454650Y-2338070D02*
G01*
X5454650Y-2241550D01*
X5545327Y-2241550D01*
X5545327Y-2338070D01*
G37*
G36*
X5605272Y-2338070D02*
G01*
X5605272Y-2241550D01*
X5695950Y-2241550D01*
X5695950Y-2338070D01*
G37*
G36*
X5910072Y-2338070D02*
G01*
X5910072Y-2241550D01*
X6000750Y-2241550D01*
X6000750Y-2338070D01*
G37*
G36*
X5759450Y-2338070D02*
G01*
X5759450Y-2241550D01*
X5850127Y-2241550D01*
X5850127Y-2338070D01*
G37*
G36*
X5247640Y-2332228D02*
G01*
X5247640Y-2241550D01*
X5344159Y-2241550D01*
X5344159Y-2332228D01*
G37*
G36*
X5247640Y-2482850D02*
G01*
X5247640Y-2392171D01*
X5344159Y-2392171D01*
X5344159Y-2482850D01*
G37*
G36*
X5247640Y-2624328D02*
G01*
X5247640Y-2533650D01*
X5344159Y-2533650D01*
X5344159Y-2624328D01*
G37*
G36*
X5247640Y-2774950D02*
G01*
X5247640Y-2684271D01*
X5344159Y-2684271D01*
X5344159Y-2774950D01*
G37*
G36*
X4561840Y-2344928D02*
G01*
X4561840Y-2254250D01*
X4658359Y-2254250D01*
X4658359Y-2344928D01*
G37*
G36*
X4561840Y-2495550D02*
G01*
X4561840Y-2404871D01*
X4658359Y-2404871D01*
X4658359Y-2495550D01*
G37*
G36*
X4714240Y-2343404D02*
G01*
X4714240Y-2252471D01*
X4810759Y-2252471D01*
X4810759Y-2343404D01*
G37*
G36*
X4714240Y-2494026D02*
G01*
X4714240Y-2403347D01*
X4810759Y-2403347D01*
X4810759Y-2494026D01*
G37*
G36*
X2292858Y-1038860D02*
G01*
X2292858Y-900429D01*
X2583941Y-900429D01*
X2583941Y-1038860D01*
G37*
G36*
X2292858Y-750570D02*
G01*
X2292858Y-612139D01*
X2583941Y-612139D01*
X2583941Y-750570D01*
G37*
G36*
X3092958Y-1038860D02*
G01*
X3092958Y-900429D01*
X3384041Y-900429D01*
X3384041Y-1038860D01*
G37*
G36*
X3092958Y-750570D02*
G01*
X3092958Y-612139D01*
X3384041Y-612139D01*
X3384041Y-750570D01*
G37*
G36*
X4401058Y-1038860D02*
G01*
X4401058Y-900429D01*
X4692141Y-900429D01*
X4692141Y-1038860D01*
G37*
G36*
X4401058Y-750570D02*
G01*
X4401058Y-612139D01*
X4692141Y-612139D01*
X4692141Y-750570D01*
G37*
G36*
X5696458Y-1038860D02*
G01*
X5696458Y-900429D01*
X5987541Y-900429D01*
X5987541Y-1038860D01*
G37*
G36*
X5696458Y-750570D02*
G01*
X5696458Y-612139D01*
X5987541Y-612139D01*
X5987541Y-750570D01*
G37*
G36*
X6991858Y-1038860D02*
G01*
X6991858Y-900429D01*
X7282941Y-900429D01*
X7282941Y-1038860D01*
G37*
G36*
X6991858Y-750570D02*
G01*
X6991858Y-612139D01*
X7282941Y-612139D01*
X7282941Y-750570D01*
G37*
G36*
X8312658Y-1038860D02*
G01*
X8312658Y-900429D01*
X8603741Y-900429D01*
X8603741Y-1038860D01*
G37*
G36*
X8312658Y-750570D02*
G01*
X8312658Y-612139D01*
X8603741Y-612139D01*
X8603741Y-750570D01*
G37*
G36*
X9595358Y-1038860D02*
G01*
X9595358Y-900429D01*
X9886441Y-900429D01*
X9886441Y-1038860D01*
G37*
G36*
X9595358Y-750570D02*
G01*
X9595358Y-612139D01*
X9886441Y-612139D01*
X9886441Y-750570D01*
G37*
G36*
X10687558Y-1038860D02*
G01*
X10687558Y-900429D01*
X10978641Y-900429D01*
X10978641Y-1038860D01*
G37*
G36*
X10687558Y-750570D02*
G01*
X10687558Y-612139D01*
X10978641Y-612139D01*
X10978641Y-750570D01*
G37*
G36*
X12465558Y-1038860D02*
G01*
X12465558Y-900429D01*
X12756641Y-900429D01*
X12756641Y-1038860D01*
G37*
G36*
X12465558Y-750570D02*
G01*
X12465558Y-612139D01*
X12756641Y-612139D01*
X12756641Y-750570D01*
G37*
G36*
X13519658Y-1038860D02*
G01*
X13519658Y-900429D01*
X13810741Y-900429D01*
X13810741Y-1038860D01*
G37*
G36*
X13519658Y-750570D02*
G01*
X13519658Y-612139D01*
X13810741Y-612139D01*
X13810741Y-750570D01*
G37*
G36*
X14815058Y-1038860D02*
G01*
X14815058Y-900429D01*
X15106141Y-900429D01*
X15106141Y-1038860D01*
G37*
G36*
X14815058Y-750570D02*
G01*
X14815058Y-612139D01*
X15106141Y-612139D01*
X15106141Y-750570D01*
G37*
G36*
X16110458Y-1038860D02*
G01*
X16110458Y-900429D01*
X16401541Y-900429D01*
X16401541Y-1038860D01*
G37*
G36*
X16110458Y-750570D02*
G01*
X16110458Y-612139D01*
X16401541Y-612139D01*
X16401541Y-750570D01*
G37*
G36*
X17418558Y-1038860D02*
G01*
X17418558Y-900429D01*
X17709641Y-900429D01*
X17709641Y-1038860D01*
G37*
G36*
X17418558Y-750570D02*
G01*
X17418558Y-612139D01*
X17709641Y-612139D01*
X17709641Y-750570D01*
G37*
G36*
X18713958Y-1038860D02*
G01*
X18713958Y-900429D01*
X19005041Y-900429D01*
X19005041Y-1038860D01*
G37*
G36*
X18713958Y-750570D02*
G01*
X18713958Y-612139D01*
X19005041Y-612139D01*
X19005041Y-750570D01*
G37*
G36*
X20009358Y-1038860D02*
G01*
X20009358Y-900429D01*
X20300441Y-900429D01*
X20300441Y-1038860D01*
G37*
G36*
X20009358Y-750570D02*
G01*
X20009358Y-612139D01*
X20300441Y-612139D01*
X20300441Y-750570D01*
G37*
G36*
X21317458Y-1038860D02*
G01*
X21317458Y-900429D01*
X21608541Y-900429D01*
X21608541Y-1038860D01*
G37*
G36*
X21317458Y-750570D02*
G01*
X21317458Y-612139D01*
X21608541Y-612139D01*
X21608541Y-750570D01*
G37*
G36*
X4173981Y-2863342D02*
G01*
X4173981Y-2763012D01*
X4284218Y-2763012D01*
X4284218Y-2863342D01*
G37*
G36*
X4173981Y-2723387D02*
G01*
X4173981Y-2623057D01*
X4284218Y-2623057D01*
X4284218Y-2723387D01*
G37*
G36*
X7615681Y-2012187D02*
G01*
X7615681Y-1911857D01*
X7725918Y-1911857D01*
X7725918Y-2012187D01*
G37*
G36*
X7615681Y-2152142D02*
G01*
X7615681Y-2051812D01*
X7725918Y-2051812D01*
X7725918Y-2152142D01*
G37*
G36*
X4351781Y-2863342D02*
G01*
X4351781Y-2763012D01*
X4462018Y-2763012D01*
X4462018Y-2863342D01*
G37*
G36*
X4351781Y-2723387D02*
G01*
X4351781Y-2623057D01*
X4462018Y-2623057D01*
X4462018Y-2723387D01*
G37*
G36*
X12163043Y-1847595D02*
G01*
X12163043Y-1786636D01*
X12363704Y-1786636D01*
X12363704Y-1847595D01*
G37*
G36*
X12163043Y-1912620D02*
G01*
X12163043Y-1851660D01*
X12363704Y-1851660D01*
X12363704Y-1912620D01*
G37*
G36*
X12163043Y-1977644D02*
G01*
X12163043Y-1916684D01*
X12363704Y-1916684D01*
X12363704Y-1977644D01*
G37*
G36*
X12163043Y-2042668D02*
G01*
X12163043Y-1981707D01*
X12363704Y-1981707D01*
X12363704Y-2042668D01*
G37*
G36*
X12163043Y-2107692D02*
G01*
X12163043Y-2046731D01*
X12363704Y-2046731D01*
X12363704Y-2107692D01*
G37*
G36*
X12163043Y-2172715D02*
G01*
X12163043Y-2111755D01*
X12363704Y-2111755D01*
X12363704Y-2172715D01*
G37*
G36*
X12163043Y-2237739D02*
G01*
X12163043Y-2176779D01*
X12363704Y-2176779D01*
X12363704Y-2237739D01*
G37*
G36*
X12163043Y-2302763D02*
G01*
X12163043Y-2241804D01*
X12363704Y-2241804D01*
X12363704Y-2302763D01*
G37*
G36*
X11563095Y-2302763D02*
G01*
X11563095Y-2241804D01*
X11763756Y-2241804D01*
X11763756Y-2302763D01*
G37*
G36*
X11563095Y-2237739D02*
G01*
X11563095Y-2176779D01*
X11763756Y-2176779D01*
X11763756Y-2237739D01*
G37*
G36*
X11563095Y-2172715D02*
G01*
X11563095Y-2111755D01*
X11763756Y-2111755D01*
X11763756Y-2172715D01*
G37*
G36*
X11563095Y-2107692D02*
G01*
X11563095Y-2046731D01*
X11763756Y-2046731D01*
X11763756Y-2107692D01*
G37*
G36*
X11563095Y-2042668D02*
G01*
X11563095Y-1981707D01*
X11763756Y-1981707D01*
X11763756Y-2042668D01*
G37*
G36*
X11563095Y-1977644D02*
G01*
X11563095Y-1916684D01*
X11763756Y-1916684D01*
X11763756Y-1977644D01*
G37*
G36*
X11563095Y-1912620D02*
G01*
X11563095Y-1851660D01*
X11763756Y-1851660D01*
X11763756Y-1912620D01*
G37*
G36*
X11563095Y-1847595D02*
G01*
X11563095Y-1786636D01*
X11763756Y-1786636D01*
X11763756Y-1847595D01*
G37*
G36*
X16417543Y-1987295D02*
G01*
X16417543Y-1926336D01*
X16618204Y-1926336D01*
X16618204Y-1987295D01*
G37*
G36*
X16417543Y-2052320D02*
G01*
X16417543Y-1991360D01*
X16618204Y-1991360D01*
X16618204Y-2052320D01*
G37*
G36*
X16417543Y-2117344D02*
G01*
X16417543Y-2056384D01*
X16618204Y-2056384D01*
X16618204Y-2117344D01*
G37*
G36*
X16417543Y-2182368D02*
G01*
X16417543Y-2121407D01*
X16618204Y-2121407D01*
X16618204Y-2182368D01*
G37*
G36*
X16417543Y-2247392D02*
G01*
X16417543Y-2186431D01*
X16618204Y-2186431D01*
X16618204Y-2247392D01*
G37*
G36*
X16417543Y-2312415D02*
G01*
X16417543Y-2251455D01*
X16618204Y-2251455D01*
X16618204Y-2312415D01*
G37*
G36*
X16417543Y-2377439D02*
G01*
X16417543Y-2316479D01*
X16618204Y-2316479D01*
X16618204Y-2377439D01*
G37*
G36*
X16417543Y-2442463D02*
G01*
X16417543Y-2381504D01*
X16618204Y-2381504D01*
X16618204Y-2442463D01*
G37*
G36*
X15817595Y-2442463D02*
G01*
X15817595Y-2381504D01*
X16018256Y-2381504D01*
X16018256Y-2442463D01*
G37*
G36*
X15817595Y-2377439D02*
G01*
X15817595Y-2316479D01*
X16018256Y-2316479D01*
X16018256Y-2377439D01*
G37*
G36*
X15817595Y-2312415D02*
G01*
X15817595Y-2251455D01*
X16018256Y-2251455D01*
X16018256Y-2312415D01*
G37*
G36*
X15817595Y-2247392D02*
G01*
X15817595Y-2186431D01*
X16018256Y-2186431D01*
X16018256Y-2247392D01*
G37*
G36*
X15817595Y-2182368D02*
G01*
X15817595Y-2121407D01*
X16018256Y-2121407D01*
X16018256Y-2182368D01*
G37*
G36*
X15817595Y-2117344D02*
G01*
X15817595Y-2056384D01*
X16018256Y-2056384D01*
X16018256Y-2117344D01*
G37*
G36*
X15817595Y-2052320D02*
G01*
X15817595Y-1991360D01*
X16018256Y-1991360D01*
X16018256Y-2052320D01*
G37*
G36*
X15817595Y-1987295D02*
G01*
X15817595Y-1926336D01*
X16018256Y-1926336D01*
X16018256Y-1987295D01*
G37*
G36*
X1368044Y-4461255D02*
G01*
X1368044Y-4250944D01*
X1578355Y-4250944D01*
X1578355Y-4461255D01*
G37*
D85*
G01*
X3086100Y-3065779D03*
G36*
X2796031Y-2561081D02*
G01*
X2796031Y-2330957D01*
X2916174Y-2330957D01*
X2916174Y-2561081D01*
G37*
G36*
X3025902Y-2561081D02*
G01*
X3025902Y-2330957D01*
X3146297Y-2330957D01*
X3146297Y-2561081D01*
G37*
G36*
X3256025Y-2561081D02*
G01*
X3256025Y-2330957D01*
X3376168Y-2330957D01*
X3376168Y-2561081D01*
G37*
G36*
X7111491Y-2366263D02*
G01*
X7111491Y-2256028D01*
X7176515Y-2256028D01*
X7176515Y-2366263D01*
G37*
G36*
X7206488Y-2366263D02*
G01*
X7206488Y-2256028D01*
X7271511Y-2256028D01*
X7271511Y-2366263D01*
G37*
G36*
X7301484Y-2366263D02*
G01*
X7301484Y-2256028D01*
X7366508Y-2256028D01*
X7366508Y-2366263D01*
G37*
G36*
X7301484Y-2646171D02*
G01*
X7301484Y-2535936D01*
X7366508Y-2535936D01*
X7366508Y-2646171D01*
G37*
G36*
X7206488Y-2646171D02*
G01*
X7206488Y-2535936D01*
X7271511Y-2535936D01*
X7271511Y-2646171D01*
G37*
G36*
X7111491Y-2646171D02*
G01*
X7111491Y-2535936D01*
X7176515Y-2535936D01*
X7176515Y-2646171D01*
G37*
G36*
X8981440Y-1581150D02*
G01*
X8981440Y-1490471D01*
X9077959Y-1490471D01*
X9077959Y-1581150D01*
G37*
G36*
X8981440Y-1430528D02*
G01*
X8981440Y-1339850D01*
X9077959Y-1339850D01*
X9077959Y-1430528D01*
G37*
M02*
