G04 Layer: TopPasteMaskLayer*
G04 EasyEDA v6.5.5, 2022-06-17 14:32:01*
G04 5faef1715b7e4738a83644b9fd502409,a400d5e2854f4014a3cbb39b0ca33fd0,10*
G04 Gerber Generator version 0.2*
G04 Scale: 100 percent, Rotated: No, Reflected: No *
G04 Dimensions in millimeters *
G04 leading zeros omitted , absolute positions ,4 integer and 5 decimal *
%FSLAX45Y45*%
%MOMM*%

%ADD12C,0.3000*%
%ADD15C,0.5880*%
%ADD16C,0.3640*%
%ADD17C,0.5740*%
%ADD19R,0.8000X0.9000*%
%ADD20R,0.5500X1.0000*%
%ADD21R,0.9000X0.8000*%
%ADD24R,1.0000X0.5500*%
%ADD26R,2.3760X1.9000*%
%ADD27R,3.5000X1.2000*%
%ADD30R,1.5500X1.0000*%
%ADD31R,2.0475X2.2410*%
%ADD32R,2.5400X1.8000*%
%ADD33R,1.8000X2.5400*%
%ADD35R,1.8034X0.4064*%
%ADD36R,0.8000X1.0000*%
%ADD40R,3.5000X2.2000*%
%ADD41R,1.1000X2.2000*%

%LPD*%
G36*
X6525920Y-840689D02*
G01*
X6520891Y-845718D01*
X6520891Y-925677D01*
X6525920Y-930706D01*
X6548678Y-930706D01*
X6548678Y-893673D01*
X6581698Y-893673D01*
X6581698Y-930706D01*
X6605879Y-930706D01*
X6610908Y-925677D01*
X6610908Y-845718D01*
X6605879Y-840689D01*
G37*
G36*
X6525920Y-1000709D02*
G01*
X6520891Y-1005687D01*
X6520891Y-1084681D01*
X6525920Y-1089710D01*
X6605879Y-1089710D01*
X6610908Y-1084681D01*
X6610908Y-1005687D01*
X6605879Y-1000709D01*
X6581698Y-1000709D01*
X6581698Y-1038707D01*
X6548678Y-1038707D01*
X6548678Y-1000709D01*
G37*
G36*
X6792620Y-840689D02*
G01*
X6787591Y-845718D01*
X6787591Y-925677D01*
X6792620Y-930706D01*
X6815378Y-930706D01*
X6815378Y-893673D01*
X6848398Y-893673D01*
X6848398Y-930706D01*
X6872579Y-930706D01*
X6877608Y-925677D01*
X6877608Y-845718D01*
X6872579Y-840689D01*
G37*
G36*
X6792620Y-1000709D02*
G01*
X6787591Y-1005687D01*
X6787591Y-1084681D01*
X6792620Y-1089710D01*
X6872579Y-1089710D01*
X6877608Y-1084681D01*
X6877608Y-1005687D01*
X6872579Y-1000709D01*
X6848398Y-1000709D01*
X6848398Y-1038707D01*
X6815378Y-1038707D01*
X6815378Y-1000709D01*
G37*
G36*
X5326684Y-827989D02*
G01*
X5321706Y-833018D01*
X5321706Y-912977D01*
X5326684Y-918006D01*
X5349494Y-918006D01*
X5349494Y-880973D01*
X5382514Y-880973D01*
X5382514Y-918006D01*
X5406694Y-918006D01*
X5411673Y-912977D01*
X5411673Y-833018D01*
X5406694Y-827989D01*
G37*
G36*
X5326684Y-988009D02*
G01*
X5321706Y-992987D01*
X5321706Y-1071981D01*
X5326684Y-1077010D01*
X5406694Y-1077010D01*
X5411673Y-1071981D01*
X5411673Y-992987D01*
X5406694Y-988009D01*
X5382514Y-988009D01*
X5382514Y-1026007D01*
X5349494Y-1026007D01*
X5349494Y-988009D01*
G37*
G36*
X5484520Y-827989D02*
G01*
X5479491Y-833018D01*
X5479491Y-912977D01*
X5484520Y-918006D01*
X5507278Y-918006D01*
X5507278Y-880973D01*
X5540298Y-880973D01*
X5540298Y-918006D01*
X5564479Y-918006D01*
X5569508Y-912977D01*
X5569508Y-833018D01*
X5564479Y-827989D01*
G37*
G36*
X5484520Y-988009D02*
G01*
X5479491Y-992987D01*
X5479491Y-1071981D01*
X5484520Y-1077010D01*
X5564479Y-1077010D01*
X5569508Y-1071981D01*
X5569508Y-992987D01*
X5564479Y-988009D01*
X5540298Y-988009D01*
X5540298Y-1026007D01*
X5507278Y-1026007D01*
X5507278Y-988009D01*
G37*
G36*
X7948320Y-840689D02*
G01*
X7943291Y-845718D01*
X7943291Y-925677D01*
X7948320Y-930706D01*
X7971078Y-930706D01*
X7971078Y-893673D01*
X8004098Y-893673D01*
X8004098Y-930706D01*
X8028279Y-930706D01*
X8033308Y-925677D01*
X8033308Y-845718D01*
X8028279Y-840689D01*
G37*
G36*
X7948320Y-1000709D02*
G01*
X7943291Y-1005687D01*
X7943291Y-1084681D01*
X7948320Y-1089710D01*
X8028279Y-1089710D01*
X8033308Y-1084681D01*
X8033308Y-1005687D01*
X8028279Y-1000709D01*
X8004098Y-1000709D01*
X8004098Y-1038707D01*
X7971078Y-1038707D01*
X7971078Y-1000709D01*
G37*
G36*
X8100720Y-840689D02*
G01*
X8095691Y-845718D01*
X8095691Y-925677D01*
X8100720Y-930706D01*
X8123478Y-930706D01*
X8123478Y-893673D01*
X8156498Y-893673D01*
X8156498Y-930706D01*
X8180679Y-930706D01*
X8185708Y-925677D01*
X8185708Y-845718D01*
X8180679Y-840689D01*
G37*
G36*
X8100720Y-1000709D02*
G01*
X8095691Y-1005687D01*
X8095691Y-1084681D01*
X8100720Y-1089710D01*
X8180679Y-1089710D01*
X8185708Y-1084681D01*
X8185708Y-1005687D01*
X8180679Y-1000709D01*
X8156498Y-1000709D01*
X8156498Y-1038707D01*
X8123478Y-1038707D01*
X8123478Y-1000709D01*
G37*
G36*
X4024020Y-1266393D02*
G01*
X4018991Y-1271422D01*
X4018991Y-1351381D01*
X4024020Y-1356410D01*
X4103979Y-1356410D01*
X4109008Y-1351381D01*
X4109008Y-1271422D01*
X4103979Y-1266393D01*
X4081221Y-1266393D01*
X4081221Y-1303426D01*
X4048201Y-1303426D01*
X4048201Y-1266393D01*
G37*
G36*
X4024020Y-1107389D02*
G01*
X4018991Y-1112418D01*
X4018991Y-1191412D01*
X4024020Y-1196390D01*
X4048201Y-1196390D01*
X4048201Y-1158392D01*
X4081221Y-1158392D01*
X4081221Y-1196390D01*
X4103979Y-1196390D01*
X4109008Y-1191412D01*
X4109008Y-1112418D01*
X4103979Y-1107389D01*
G37*
G36*
X3858920Y-1266393D02*
G01*
X3853891Y-1271422D01*
X3853891Y-1351381D01*
X3858920Y-1356410D01*
X3938879Y-1356410D01*
X3943908Y-1351381D01*
X3943908Y-1271422D01*
X3938879Y-1266393D01*
X3916121Y-1266393D01*
X3916121Y-1303426D01*
X3883101Y-1303426D01*
X3883101Y-1266393D01*
G37*
G36*
X3858920Y-1107389D02*
G01*
X3853891Y-1112418D01*
X3853891Y-1191412D01*
X3858920Y-1196390D01*
X3883101Y-1196390D01*
X3883101Y-1158392D01*
X3916121Y-1158392D01*
X3916121Y-1196390D01*
X3938879Y-1196390D01*
X3943908Y-1191412D01*
X3943908Y-1112418D01*
X3938879Y-1107389D01*
G37*
G36*
X12663322Y-1898091D02*
G01*
X12658293Y-1903120D01*
X12658293Y-1925878D01*
X12695275Y-1925878D01*
X12695275Y-1958898D01*
X12658293Y-1958898D01*
X12658293Y-1983079D01*
X12663322Y-1988108D01*
X12743281Y-1988108D01*
X12748310Y-1983079D01*
X12748310Y-1903120D01*
X12743281Y-1898091D01*
G37*
G36*
X12504318Y-1898091D02*
G01*
X12499289Y-1903120D01*
X12499289Y-1983079D01*
X12504318Y-1988108D01*
X12583312Y-1988108D01*
X12588290Y-1983079D01*
X12588290Y-1958898D01*
X12550292Y-1958898D01*
X12550292Y-1925878D01*
X12588290Y-1925878D01*
X12588290Y-1903120D01*
X12583312Y-1898091D01*
G37*
G36*
X10390022Y-2939491D02*
G01*
X10384993Y-2944520D01*
X10384993Y-2967278D01*
X10421975Y-2967278D01*
X10421975Y-3000298D01*
X10384993Y-3000298D01*
X10384993Y-3024479D01*
X10390022Y-3029508D01*
X10469981Y-3029508D01*
X10475010Y-3024479D01*
X10475010Y-2944520D01*
X10469981Y-2939491D01*
G37*
G36*
X10231018Y-2939491D02*
G01*
X10225989Y-2944520D01*
X10225989Y-3024479D01*
X10231018Y-3029508D01*
X10310012Y-3029508D01*
X10314990Y-3024479D01*
X10314990Y-3000298D01*
X10276992Y-3000298D01*
X10276992Y-2967278D01*
X10314990Y-2967278D01*
X10314990Y-2944520D01*
X10310012Y-2939491D01*
G37*
G36*
X10390022Y-2787091D02*
G01*
X10384993Y-2792120D01*
X10384993Y-2814878D01*
X10421975Y-2814878D01*
X10421975Y-2847898D01*
X10384993Y-2847898D01*
X10384993Y-2872079D01*
X10390022Y-2877108D01*
X10469981Y-2877108D01*
X10475010Y-2872079D01*
X10475010Y-2792120D01*
X10469981Y-2787091D01*
G37*
G36*
X10231018Y-2787091D02*
G01*
X10225989Y-2792120D01*
X10225989Y-2872079D01*
X10231018Y-2877108D01*
X10310012Y-2877108D01*
X10314990Y-2872079D01*
X10314990Y-2847898D01*
X10276992Y-2847898D01*
X10276992Y-2814878D01*
X10314990Y-2814878D01*
X10314990Y-2792120D01*
X10310012Y-2787091D01*
G37*
G36*
X2122322Y-1034491D02*
G01*
X2117293Y-1039520D01*
X2117293Y-1062278D01*
X2154275Y-1062278D01*
X2154275Y-1095298D01*
X2117293Y-1095298D01*
X2117293Y-1119479D01*
X2122322Y-1124508D01*
X2202281Y-1124508D01*
X2207310Y-1119479D01*
X2207310Y-1039520D01*
X2202281Y-1034491D01*
G37*
G36*
X1963318Y-1034491D02*
G01*
X1958289Y-1039520D01*
X1958289Y-1119479D01*
X1963318Y-1124508D01*
X2042312Y-1124508D01*
X2047290Y-1119479D01*
X2047290Y-1095298D01*
X2009292Y-1095298D01*
X2009292Y-1062278D01*
X2047290Y-1062278D01*
X2047290Y-1039520D01*
X2042312Y-1034491D01*
G37*
G36*
X1957781Y-2444902D02*
G01*
X1947824Y-2454910D01*
X1947824Y-2598420D01*
X1957781Y-2608376D01*
X2207818Y-2608376D01*
X2217775Y-2598420D01*
X2217775Y-2454910D01*
X2207818Y-2444902D01*
X2138680Y-2444902D01*
X2128723Y-2454910D01*
X2128723Y-2490470D01*
X2118715Y-2500477D01*
X2046884Y-2500477D01*
X2036876Y-2490470D01*
X2036876Y-2454910D01*
X2026920Y-2444902D01*
G37*
G36*
X1957781Y-2141423D02*
G01*
X1947824Y-2151380D01*
X1947824Y-2294890D01*
X1957781Y-2304897D01*
X2026920Y-2304897D01*
X2036876Y-2294890D01*
X2036876Y-2259330D01*
X2046884Y-2249322D01*
X2118715Y-2249322D01*
X2128723Y-2259330D01*
X2128723Y-2294890D01*
X2138680Y-2304897D01*
X2207818Y-2304897D01*
X2217775Y-2294890D01*
X2217775Y-2151380D01*
X2207818Y-2141423D01*
G37*
G36*
X2300681Y-2444902D02*
G01*
X2290724Y-2454910D01*
X2290724Y-2598420D01*
X2300681Y-2608376D01*
X2550718Y-2608376D01*
X2560675Y-2598420D01*
X2560675Y-2454910D01*
X2550718Y-2444902D01*
X2481580Y-2444902D01*
X2471623Y-2454910D01*
X2471623Y-2490470D01*
X2461615Y-2500477D01*
X2389784Y-2500477D01*
X2379776Y-2490470D01*
X2379776Y-2454910D01*
X2369820Y-2444902D01*
G37*
G36*
X2300681Y-2141423D02*
G01*
X2290724Y-2151380D01*
X2290724Y-2294890D01*
X2300681Y-2304897D01*
X2369820Y-2304897D01*
X2379776Y-2294890D01*
X2379776Y-2259330D01*
X2389784Y-2249322D01*
X2461615Y-2249322D01*
X2471623Y-2259330D01*
X2471623Y-2294890D01*
X2481580Y-2304897D01*
X2550718Y-2304897D01*
X2560675Y-2294890D01*
X2560675Y-2151380D01*
X2550718Y-2141423D01*
G37*
G36*
X18607582Y-2565247D02*
G01*
X18602553Y-2570276D01*
X18602553Y-2650286D01*
X18607582Y-2655265D01*
X18630392Y-2655265D01*
X18630392Y-2618282D01*
X18663361Y-2618282D01*
X18663361Y-2655265D01*
X18687592Y-2655265D01*
X18692571Y-2650286D01*
X18692571Y-2570276D01*
X18687592Y-2565247D01*
G37*
G36*
X18607582Y-2725267D02*
G01*
X18602553Y-2730246D01*
X18602553Y-2809290D01*
X18607582Y-2814269D01*
X18687592Y-2814269D01*
X18692571Y-2809290D01*
X18692571Y-2730246D01*
X18687592Y-2725267D01*
X18663361Y-2725267D01*
X18663361Y-2763266D01*
X18630392Y-2763266D01*
X18630392Y-2725267D01*
G37*
G36*
X18451220Y-2724251D02*
G01*
X18446191Y-2729280D01*
X18446191Y-2809290D01*
X18451220Y-2814269D01*
X18531179Y-2814269D01*
X18536208Y-2809290D01*
X18536208Y-2729280D01*
X18531179Y-2724251D01*
X18508421Y-2724251D01*
X18508421Y-2761284D01*
X18475401Y-2761284D01*
X18475401Y-2724251D01*
G37*
G36*
X18451220Y-2565247D02*
G01*
X18446191Y-2570276D01*
X18446191Y-2649270D01*
X18451220Y-2654249D01*
X18475401Y-2654249D01*
X18475401Y-2616250D01*
X18508421Y-2616250D01*
X18508421Y-2654249D01*
X18531179Y-2654249D01*
X18536208Y-2649270D01*
X18536208Y-2570276D01*
X18531179Y-2565247D01*
G37*
G36*
X3316122Y-3536391D02*
G01*
X3311093Y-3541420D01*
X3311093Y-3564178D01*
X3348075Y-3564178D01*
X3348075Y-3597198D01*
X3311093Y-3597198D01*
X3311093Y-3621379D01*
X3316122Y-3626408D01*
X3396081Y-3626408D01*
X3401110Y-3621379D01*
X3401110Y-3541420D01*
X3396081Y-3536391D01*
G37*
G36*
X3157118Y-3536391D02*
G01*
X3152089Y-3541420D01*
X3152089Y-3621379D01*
X3157118Y-3626408D01*
X3236112Y-3626408D01*
X3241090Y-3621379D01*
X3241090Y-3597198D01*
X3203092Y-3597198D01*
X3203092Y-3564178D01*
X3241090Y-3564178D01*
X3241090Y-3541420D01*
X3236112Y-3536391D01*
G37*
G36*
X4635550Y-3619906D02*
G01*
X4630572Y-3624884D01*
X4630572Y-3647694D01*
X4667554Y-3647694D01*
X4667554Y-3680663D01*
X4630572Y-3680663D01*
X4630572Y-3704894D01*
X4635550Y-3709873D01*
X4715560Y-3709873D01*
X4720539Y-3704894D01*
X4720539Y-3624884D01*
X4715560Y-3619906D01*
G37*
G36*
X4476546Y-3619906D02*
G01*
X4471568Y-3624884D01*
X4471568Y-3704894D01*
X4476546Y-3709873D01*
X4555540Y-3709873D01*
X4560570Y-3704894D01*
X4560570Y-3680663D01*
X4522571Y-3680663D01*
X4522571Y-3647694D01*
X4560570Y-3647694D01*
X4560570Y-3624884D01*
X4555540Y-3619906D01*
G37*
G36*
X5932322Y-3619906D02*
G01*
X5927293Y-3624884D01*
X5927293Y-3647694D01*
X5964275Y-3647694D01*
X5964275Y-3680663D01*
X5927293Y-3680663D01*
X5927293Y-3704894D01*
X5932322Y-3709873D01*
X6012281Y-3709873D01*
X6017310Y-3704894D01*
X6017310Y-3624884D01*
X6012281Y-3619906D01*
G37*
G36*
X5773318Y-3619906D02*
G01*
X5768289Y-3624884D01*
X5768289Y-3704894D01*
X5773318Y-3709873D01*
X5852312Y-3709873D01*
X5857290Y-3704894D01*
X5857290Y-3680663D01*
X5819292Y-3680663D01*
X5819292Y-3647694D01*
X5857290Y-3647694D01*
X5857290Y-3624884D01*
X5852312Y-3619906D01*
G37*
G36*
X7226350Y-3619906D02*
G01*
X7221372Y-3624884D01*
X7221372Y-3647694D01*
X7258354Y-3647694D01*
X7258354Y-3680663D01*
X7221372Y-3680663D01*
X7221372Y-3704894D01*
X7226350Y-3709873D01*
X7306360Y-3709873D01*
X7311339Y-3704894D01*
X7311339Y-3624884D01*
X7306360Y-3619906D01*
G37*
G36*
X7067346Y-3619906D02*
G01*
X7062368Y-3624884D01*
X7062368Y-3704894D01*
X7067346Y-3709873D01*
X7146340Y-3709873D01*
X7151370Y-3704894D01*
X7151370Y-3680663D01*
X7113371Y-3680663D01*
X7113371Y-3647694D01*
X7151370Y-3647694D01*
X7151370Y-3624884D01*
X7146340Y-3619906D01*
G37*
G36*
X8535822Y-3619906D02*
G01*
X8530793Y-3624884D01*
X8530793Y-3647694D01*
X8567775Y-3647694D01*
X8567775Y-3680663D01*
X8530793Y-3680663D01*
X8530793Y-3704894D01*
X8535822Y-3709873D01*
X8615781Y-3709873D01*
X8620810Y-3704894D01*
X8620810Y-3624884D01*
X8615781Y-3619906D01*
G37*
G36*
X8376818Y-3619906D02*
G01*
X8371789Y-3624884D01*
X8371789Y-3704894D01*
X8376818Y-3709873D01*
X8455812Y-3709873D01*
X8460790Y-3704894D01*
X8460790Y-3680663D01*
X8422792Y-3680663D01*
X8422792Y-3647694D01*
X8460790Y-3647694D01*
X8460790Y-3624884D01*
X8455812Y-3619906D01*
G37*
G36*
X9829850Y-3619906D02*
G01*
X9824872Y-3624884D01*
X9824872Y-3647694D01*
X9861854Y-3647694D01*
X9861854Y-3680663D01*
X9824872Y-3680663D01*
X9824872Y-3704894D01*
X9829850Y-3709873D01*
X9909860Y-3709873D01*
X9914839Y-3704894D01*
X9914839Y-3624884D01*
X9909860Y-3619906D01*
G37*
G36*
X9670846Y-3619906D02*
G01*
X9665868Y-3624884D01*
X9665868Y-3704894D01*
X9670846Y-3709873D01*
X9749840Y-3709873D01*
X9754870Y-3704894D01*
X9754870Y-3680663D01*
X9716871Y-3680663D01*
X9716871Y-3647694D01*
X9754870Y-3647694D01*
X9754870Y-3624884D01*
X9749840Y-3619906D01*
G37*
G36*
X11126622Y-3619906D02*
G01*
X11121593Y-3624884D01*
X11121593Y-3647694D01*
X11158575Y-3647694D01*
X11158575Y-3680663D01*
X11121593Y-3680663D01*
X11121593Y-3704894D01*
X11126622Y-3709873D01*
X11206581Y-3709873D01*
X11211610Y-3704894D01*
X11211610Y-3624884D01*
X11206581Y-3619906D01*
G37*
G36*
X10967618Y-3619906D02*
G01*
X10962589Y-3624884D01*
X10962589Y-3704894D01*
X10967618Y-3709873D01*
X11046612Y-3709873D01*
X11051590Y-3704894D01*
X11051590Y-3680663D01*
X11013592Y-3680663D01*
X11013592Y-3647694D01*
X11051590Y-3647694D01*
X11051590Y-3624884D01*
X11046612Y-3619906D01*
G37*
G36*
X12433350Y-3619906D02*
G01*
X12428372Y-3624884D01*
X12428372Y-3647694D01*
X12465354Y-3647694D01*
X12465354Y-3680663D01*
X12428372Y-3680663D01*
X12428372Y-3704894D01*
X12433350Y-3709873D01*
X12513360Y-3709873D01*
X12518339Y-3704894D01*
X12518339Y-3624884D01*
X12513360Y-3619906D01*
G37*
G36*
X12274346Y-3619906D02*
G01*
X12269368Y-3624884D01*
X12269368Y-3704894D01*
X12274346Y-3709873D01*
X12353340Y-3709873D01*
X12358370Y-3704894D01*
X12358370Y-3680663D01*
X12320371Y-3680663D01*
X12320371Y-3647694D01*
X12358370Y-3647694D01*
X12358370Y-3624884D01*
X12353340Y-3619906D01*
G37*
G36*
X13741450Y-3619906D02*
G01*
X13736472Y-3624884D01*
X13736472Y-3647694D01*
X13773454Y-3647694D01*
X13773454Y-3680663D01*
X13736472Y-3680663D01*
X13736472Y-3704894D01*
X13741450Y-3709873D01*
X13821460Y-3709873D01*
X13826439Y-3704894D01*
X13826439Y-3624884D01*
X13821460Y-3619906D01*
G37*
G36*
X13582446Y-3619906D02*
G01*
X13577468Y-3624884D01*
X13577468Y-3704894D01*
X13582446Y-3709873D01*
X13661440Y-3709873D01*
X13666469Y-3704894D01*
X13666469Y-3680663D01*
X13628471Y-3680663D01*
X13628471Y-3647694D01*
X13666469Y-3647694D01*
X13666469Y-3624884D01*
X13661440Y-3619906D01*
G37*
G36*
X15036850Y-3619906D02*
G01*
X15031872Y-3624884D01*
X15031872Y-3647694D01*
X15068854Y-3647694D01*
X15068854Y-3680663D01*
X15031872Y-3680663D01*
X15031872Y-3704894D01*
X15036850Y-3709873D01*
X15116860Y-3709873D01*
X15121839Y-3704894D01*
X15121839Y-3624884D01*
X15116860Y-3619906D01*
G37*
G36*
X14877846Y-3619906D02*
G01*
X14872868Y-3624884D01*
X14872868Y-3704894D01*
X14877846Y-3709873D01*
X14956840Y-3709873D01*
X14961869Y-3704894D01*
X14961869Y-3680663D01*
X14923871Y-3680663D01*
X14923871Y-3647694D01*
X14961869Y-3647694D01*
X14961869Y-3624884D01*
X14956840Y-3619906D01*
G37*
G36*
X16332250Y-3619906D02*
G01*
X16327272Y-3624884D01*
X16327272Y-3647694D01*
X16364254Y-3647694D01*
X16364254Y-3680663D01*
X16327272Y-3680663D01*
X16327272Y-3704894D01*
X16332250Y-3709873D01*
X16412260Y-3709873D01*
X16417239Y-3704894D01*
X16417239Y-3624884D01*
X16412260Y-3619906D01*
G37*
G36*
X16173246Y-3619906D02*
G01*
X16168268Y-3624884D01*
X16168268Y-3704894D01*
X16173246Y-3709873D01*
X16252240Y-3709873D01*
X16257269Y-3704894D01*
X16257269Y-3680663D01*
X16219271Y-3680663D01*
X16219271Y-3647694D01*
X16257269Y-3647694D01*
X16257269Y-3624884D01*
X16252240Y-3619906D01*
G37*
G36*
X17627650Y-3619906D02*
G01*
X17622672Y-3624884D01*
X17622672Y-3647694D01*
X17659654Y-3647694D01*
X17659654Y-3680663D01*
X17622672Y-3680663D01*
X17622672Y-3704894D01*
X17627650Y-3709873D01*
X17707660Y-3709873D01*
X17712639Y-3704894D01*
X17712639Y-3624884D01*
X17707660Y-3619906D01*
G37*
G36*
X17468646Y-3619906D02*
G01*
X17463668Y-3624884D01*
X17463668Y-3704894D01*
X17468646Y-3709873D01*
X17547640Y-3709873D01*
X17552670Y-3704894D01*
X17552670Y-3680663D01*
X17514671Y-3680663D01*
X17514671Y-3647694D01*
X17552670Y-3647694D01*
X17552670Y-3624884D01*
X17547640Y-3619906D01*
G37*
G36*
X18924422Y-3619906D02*
G01*
X18919393Y-3624884D01*
X18919393Y-3647694D01*
X18956375Y-3647694D01*
X18956375Y-3680663D01*
X18919393Y-3680663D01*
X18919393Y-3704894D01*
X18924422Y-3709873D01*
X19004381Y-3709873D01*
X19009410Y-3704894D01*
X19009410Y-3624884D01*
X19004381Y-3619906D01*
G37*
G36*
X18765418Y-3619906D02*
G01*
X18760389Y-3624884D01*
X18760389Y-3704894D01*
X18765418Y-3709873D01*
X18844412Y-3709873D01*
X18849390Y-3704894D01*
X18849390Y-3680663D01*
X18811392Y-3680663D01*
X18811392Y-3647694D01*
X18849390Y-3647694D01*
X18849390Y-3624884D01*
X18844412Y-3619906D01*
G37*
G36*
X20218450Y-3619906D02*
G01*
X20213472Y-3624884D01*
X20213472Y-3647694D01*
X20250454Y-3647694D01*
X20250454Y-3680663D01*
X20213472Y-3680663D01*
X20213472Y-3704894D01*
X20218450Y-3709873D01*
X20298460Y-3709873D01*
X20303439Y-3704894D01*
X20303439Y-3624884D01*
X20298460Y-3619906D01*
G37*
G36*
X20059446Y-3619906D02*
G01*
X20054468Y-3624884D01*
X20054468Y-3704894D01*
X20059446Y-3709873D01*
X20138440Y-3709873D01*
X20143470Y-3704894D01*
X20143470Y-3680663D01*
X20105471Y-3680663D01*
X20105471Y-3647694D01*
X20143470Y-3647694D01*
X20143470Y-3624884D01*
X20138440Y-3619906D01*
G37*
G36*
X21523604Y-3619906D02*
G01*
X21518575Y-3624884D01*
X21518575Y-3647694D01*
X21555608Y-3647694D01*
X21555608Y-3680663D01*
X21518575Y-3680663D01*
X21518575Y-3704894D01*
X21523604Y-3709873D01*
X21603614Y-3709873D01*
X21608592Y-3704894D01*
X21608592Y-3624884D01*
X21603614Y-3619906D01*
G37*
G36*
X21364600Y-3619906D02*
G01*
X21359571Y-3624884D01*
X21359571Y-3704894D01*
X21364600Y-3709873D01*
X21443594Y-3709873D01*
X21448572Y-3704894D01*
X21448572Y-3680663D01*
X21410574Y-3680663D01*
X21410574Y-3647694D01*
X21448572Y-3647694D01*
X21448572Y-3624884D01*
X21443594Y-3619906D01*
G37*
G36*
X22834650Y-3619906D02*
G01*
X22829672Y-3624884D01*
X22829672Y-3647694D01*
X22866654Y-3647694D01*
X22866654Y-3680663D01*
X22829672Y-3680663D01*
X22829672Y-3704894D01*
X22834650Y-3709873D01*
X22914660Y-3709873D01*
X22919639Y-3704894D01*
X22919639Y-3624884D01*
X22914660Y-3619906D01*
G37*
G36*
X22675646Y-3619906D02*
G01*
X22670668Y-3624884D01*
X22670668Y-3704894D01*
X22675646Y-3709873D01*
X22754640Y-3709873D01*
X22759670Y-3704894D01*
X22759670Y-3680663D01*
X22721671Y-3680663D01*
X22721671Y-3647694D01*
X22759670Y-3647694D01*
X22759670Y-3624884D01*
X22754640Y-3619906D01*
G37*
G36*
X18463920Y-2212289D02*
G01*
X18458891Y-2217318D01*
X18458891Y-2297277D01*
X18463920Y-2302306D01*
X18486678Y-2302306D01*
X18486678Y-2265273D01*
X18519698Y-2265273D01*
X18519698Y-2302306D01*
X18543879Y-2302306D01*
X18548908Y-2297277D01*
X18548908Y-2217318D01*
X18543879Y-2212289D01*
G37*
G36*
X18463920Y-2372309D02*
G01*
X18458891Y-2377287D01*
X18458891Y-2456281D01*
X18463920Y-2461310D01*
X18543879Y-2461310D01*
X18548908Y-2456281D01*
X18548908Y-2377287D01*
X18543879Y-2372309D01*
X18519698Y-2372309D01*
X18519698Y-2410307D01*
X18486678Y-2410307D01*
X18486678Y-2372309D01*
G37*
G36*
X18616320Y-2371293D02*
G01*
X18611291Y-2376322D01*
X18611291Y-2456281D01*
X18616320Y-2461310D01*
X18696279Y-2461310D01*
X18701308Y-2456281D01*
X18701308Y-2376322D01*
X18696279Y-2371293D01*
X18673521Y-2371293D01*
X18673521Y-2408326D01*
X18640501Y-2408326D01*
X18640501Y-2371293D01*
G37*
G36*
X18616320Y-2212289D02*
G01*
X18611291Y-2217318D01*
X18611291Y-2296312D01*
X18616320Y-2301290D01*
X18640501Y-2301290D01*
X18640501Y-2263292D01*
X18673521Y-2263292D01*
X18673521Y-2301290D01*
X18696279Y-2301290D01*
X18701308Y-2296312D01*
X18701308Y-2217318D01*
X18696279Y-2212289D01*
G37*
G36*
X18768720Y-2371293D02*
G01*
X18763691Y-2376322D01*
X18763691Y-2456281D01*
X18768720Y-2461310D01*
X18848679Y-2461310D01*
X18853708Y-2456281D01*
X18853708Y-2376322D01*
X18848679Y-2371293D01*
X18825921Y-2371293D01*
X18825921Y-2408326D01*
X18792901Y-2408326D01*
X18792901Y-2371293D01*
G37*
G36*
X18768720Y-2212289D02*
G01*
X18763691Y-2217318D01*
X18763691Y-2296312D01*
X18768720Y-2301290D01*
X18792901Y-2301290D01*
X18792901Y-2263292D01*
X18825921Y-2263292D01*
X18825921Y-2301290D01*
X18848679Y-2301290D01*
X18853708Y-2296312D01*
X18853708Y-2217318D01*
X18848679Y-2212289D01*
G37*
G36*
X20013320Y-2422093D02*
G01*
X20008291Y-2427122D01*
X20008291Y-2507081D01*
X20013320Y-2512110D01*
X20093279Y-2512110D01*
X20098308Y-2507081D01*
X20098308Y-2427122D01*
X20093279Y-2422093D01*
X20070521Y-2422093D01*
X20070521Y-2459126D01*
X20037501Y-2459126D01*
X20037501Y-2422093D01*
G37*
G36*
X20013320Y-2263089D02*
G01*
X20008291Y-2268118D01*
X20008291Y-2347112D01*
X20013320Y-2352090D01*
X20037501Y-2352090D01*
X20037501Y-2314092D01*
X20070521Y-2314092D01*
X20070521Y-2352090D01*
X20093279Y-2352090D01*
X20098308Y-2347112D01*
X20098308Y-2268118D01*
X20093279Y-2263089D01*
G37*
G36*
X20013320Y-2726893D02*
G01*
X20008291Y-2731922D01*
X20008291Y-2811881D01*
X20013320Y-2816910D01*
X20093279Y-2816910D01*
X20098308Y-2811881D01*
X20098308Y-2731922D01*
X20093279Y-2726893D01*
X20070521Y-2726893D01*
X20070521Y-2763926D01*
X20037501Y-2763926D01*
X20037501Y-2726893D01*
G37*
G36*
X20013320Y-2567889D02*
G01*
X20008291Y-2572918D01*
X20008291Y-2651912D01*
X20013320Y-2656890D01*
X20037501Y-2656890D01*
X20037501Y-2618892D01*
X20070521Y-2618892D01*
X20070521Y-2656890D01*
X20093279Y-2656890D01*
X20098308Y-2651912D01*
X20098308Y-2572918D01*
X20093279Y-2567889D01*
G37*
G36*
X19860920Y-2726893D02*
G01*
X19855891Y-2731922D01*
X19855891Y-2811881D01*
X19860920Y-2816910D01*
X19940879Y-2816910D01*
X19945908Y-2811881D01*
X19945908Y-2731922D01*
X19940879Y-2726893D01*
X19918121Y-2726893D01*
X19918121Y-2763926D01*
X19885101Y-2763926D01*
X19885101Y-2726893D01*
G37*
G36*
X19860920Y-2567889D02*
G01*
X19855891Y-2572918D01*
X19855891Y-2651912D01*
X19860920Y-2656890D01*
X19885101Y-2656890D01*
X19885101Y-2618892D01*
X19918121Y-2618892D01*
X19918121Y-2656890D01*
X19940879Y-2656890D01*
X19945908Y-2651912D01*
X19945908Y-2572918D01*
X19940879Y-2567889D01*
G37*
G36*
X899820Y-4282389D02*
G01*
X894791Y-4287418D01*
X894791Y-4367377D01*
X899820Y-4372406D01*
X922578Y-4372406D01*
X922578Y-4335373D01*
X955598Y-4335373D01*
X955598Y-4372406D01*
X979779Y-4372406D01*
X984808Y-4367377D01*
X984808Y-4287418D01*
X979779Y-4282389D01*
G37*
G36*
X899820Y-4442409D02*
G01*
X894791Y-4447387D01*
X894791Y-4526381D01*
X899820Y-4531410D01*
X979779Y-4531410D01*
X984808Y-4526381D01*
X984808Y-4447387D01*
X979779Y-4442409D01*
X955598Y-4442409D01*
X955598Y-4480407D01*
X922578Y-4480407D01*
X922578Y-4442409D01*
G37*
G36*
X899820Y-4587189D02*
G01*
X894791Y-4592218D01*
X894791Y-4672177D01*
X899820Y-4677206D01*
X922578Y-4677206D01*
X922578Y-4640173D01*
X955598Y-4640173D01*
X955598Y-4677206D01*
X979779Y-4677206D01*
X984808Y-4672177D01*
X984808Y-4592218D01*
X979779Y-4587189D01*
G37*
G36*
X899820Y-4747209D02*
G01*
X894791Y-4752187D01*
X894791Y-4831181D01*
X899820Y-4836210D01*
X979779Y-4836210D01*
X984808Y-4831181D01*
X984808Y-4752187D01*
X979779Y-4747209D01*
X955598Y-4747209D01*
X955598Y-4785207D01*
X922578Y-4785207D01*
X922578Y-4747209D01*
G37*
G36*
X1220622Y-4780991D02*
G01*
X1215593Y-4786020D01*
X1215593Y-4808778D01*
X1252626Y-4808778D01*
X1252626Y-4841798D01*
X1215593Y-4841798D01*
X1215593Y-4865979D01*
X1220622Y-4871008D01*
X1300581Y-4871008D01*
X1305610Y-4865979D01*
X1305610Y-4786020D01*
X1300581Y-4780991D01*
G37*
G36*
X1061618Y-4780991D02*
G01*
X1056589Y-4786020D01*
X1056589Y-4865979D01*
X1061618Y-4871008D01*
X1140612Y-4871008D01*
X1145590Y-4865979D01*
X1145590Y-4841798D01*
X1107592Y-4841798D01*
X1107592Y-4808778D01*
X1145590Y-4808778D01*
X1145590Y-4786020D01*
X1140612Y-4780991D01*
G37*
G36*
X2042820Y-4383989D02*
G01*
X2037791Y-4389018D01*
X2037791Y-4468977D01*
X2042820Y-4474006D01*
X2065578Y-4474006D01*
X2065578Y-4436973D01*
X2098598Y-4436973D01*
X2098598Y-4474006D01*
X2122779Y-4474006D01*
X2127808Y-4468977D01*
X2127808Y-4389018D01*
X2122779Y-4383989D01*
G37*
G36*
X2042820Y-4544009D02*
G01*
X2037791Y-4548987D01*
X2037791Y-4627981D01*
X2042820Y-4633010D01*
X2122779Y-4633010D01*
X2127808Y-4627981D01*
X2127808Y-4548987D01*
X2122779Y-4544009D01*
X2098598Y-4544009D01*
X2098598Y-4582007D01*
X2065578Y-4582007D01*
X2065578Y-4544009D01*
G37*
G36*
X2674518Y-475691D02*
G01*
X2669489Y-480720D01*
X2669489Y-560679D01*
X2674518Y-565708D01*
X2754477Y-565708D01*
X2759506Y-560679D01*
X2759506Y-537921D01*
X2722524Y-537921D01*
X2722524Y-504901D01*
X2759506Y-504901D01*
X2759506Y-480720D01*
X2754477Y-475691D01*
G37*
G36*
X2834487Y-475691D02*
G01*
X2829509Y-480720D01*
X2829509Y-504901D01*
X2867507Y-504901D01*
X2867507Y-537921D01*
X2829509Y-537921D01*
X2829509Y-560679D01*
X2834487Y-565708D01*
X2913481Y-565708D01*
X2918510Y-560679D01*
X2918510Y-480720D01*
X2913481Y-475691D01*
G37*
G36*
X2833522Y-628091D02*
G01*
X2828493Y-633120D01*
X2828493Y-655878D01*
X2865475Y-655878D01*
X2865475Y-688898D01*
X2828493Y-688898D01*
X2828493Y-713079D01*
X2833522Y-718108D01*
X2913481Y-718108D01*
X2918510Y-713079D01*
X2918510Y-633120D01*
X2913481Y-628091D01*
G37*
G36*
X2674518Y-628091D02*
G01*
X2669489Y-633120D01*
X2669489Y-713079D01*
X2674518Y-718108D01*
X2753512Y-718108D01*
X2758490Y-713079D01*
X2758490Y-688898D01*
X2720492Y-688898D01*
X2720492Y-655878D01*
X2758490Y-655878D01*
X2758490Y-633120D01*
X2753512Y-628091D01*
G37*
G36*
X3487318Y-475691D02*
G01*
X3482289Y-480720D01*
X3482289Y-560679D01*
X3487318Y-565708D01*
X3567277Y-565708D01*
X3572306Y-560679D01*
X3572306Y-537921D01*
X3535324Y-537921D01*
X3535324Y-504901D01*
X3572306Y-504901D01*
X3572306Y-480720D01*
X3567277Y-475691D01*
G37*
G36*
X3647287Y-475691D02*
G01*
X3642309Y-480720D01*
X3642309Y-504901D01*
X3680307Y-504901D01*
X3680307Y-537921D01*
X3642309Y-537921D01*
X3642309Y-560679D01*
X3647287Y-565708D01*
X3726281Y-565708D01*
X3731310Y-560679D01*
X3731310Y-480720D01*
X3726281Y-475691D01*
G37*
G36*
X3646322Y-628091D02*
G01*
X3641293Y-633120D01*
X3641293Y-655878D01*
X3678275Y-655878D01*
X3678275Y-688898D01*
X3641293Y-688898D01*
X3641293Y-713079D01*
X3646322Y-718108D01*
X3726281Y-718108D01*
X3731310Y-713079D01*
X3731310Y-633120D01*
X3726281Y-628091D01*
G37*
G36*
X3487318Y-628091D02*
G01*
X3482289Y-633120D01*
X3482289Y-713079D01*
X3487318Y-718108D01*
X3566312Y-718108D01*
X3571290Y-713079D01*
X3571290Y-688898D01*
X3533292Y-688898D01*
X3533292Y-655878D01*
X3571290Y-655878D01*
X3571290Y-633120D01*
X3566312Y-628091D01*
G37*
G36*
X4782718Y-475691D02*
G01*
X4777689Y-480720D01*
X4777689Y-560679D01*
X4782718Y-565708D01*
X4862677Y-565708D01*
X4867706Y-560679D01*
X4867706Y-537921D01*
X4830724Y-537921D01*
X4830724Y-504901D01*
X4867706Y-504901D01*
X4867706Y-480720D01*
X4862677Y-475691D01*
G37*
G36*
X4942687Y-475691D02*
G01*
X4937709Y-480720D01*
X4937709Y-504901D01*
X4975707Y-504901D01*
X4975707Y-537921D01*
X4937709Y-537921D01*
X4937709Y-560679D01*
X4942687Y-565708D01*
X5021681Y-565708D01*
X5026710Y-560679D01*
X5026710Y-480720D01*
X5021681Y-475691D01*
G37*
G36*
X4941722Y-628091D02*
G01*
X4936693Y-633120D01*
X4936693Y-655878D01*
X4973675Y-655878D01*
X4973675Y-688898D01*
X4936693Y-688898D01*
X4936693Y-713079D01*
X4941722Y-718108D01*
X5021681Y-718108D01*
X5026710Y-713079D01*
X5026710Y-633120D01*
X5021681Y-628091D01*
G37*
G36*
X4782718Y-628091D02*
G01*
X4777689Y-633120D01*
X4777689Y-713079D01*
X4782718Y-718108D01*
X4861712Y-718108D01*
X4866690Y-713079D01*
X4866690Y-688898D01*
X4828692Y-688898D01*
X4828692Y-655878D01*
X4866690Y-655878D01*
X4866690Y-633120D01*
X4861712Y-628091D01*
G37*
G36*
X6065418Y-475691D02*
G01*
X6060389Y-480720D01*
X6060389Y-560679D01*
X6065418Y-565708D01*
X6145377Y-565708D01*
X6150406Y-560679D01*
X6150406Y-537921D01*
X6113424Y-537921D01*
X6113424Y-504901D01*
X6150406Y-504901D01*
X6150406Y-480720D01*
X6145377Y-475691D01*
G37*
G36*
X6225387Y-475691D02*
G01*
X6220409Y-480720D01*
X6220409Y-504901D01*
X6258407Y-504901D01*
X6258407Y-537921D01*
X6220409Y-537921D01*
X6220409Y-560679D01*
X6225387Y-565708D01*
X6304381Y-565708D01*
X6309410Y-560679D01*
X6309410Y-480720D01*
X6304381Y-475691D01*
G37*
G36*
X6224422Y-628091D02*
G01*
X6219393Y-633120D01*
X6219393Y-655878D01*
X6256375Y-655878D01*
X6256375Y-688898D01*
X6219393Y-688898D01*
X6219393Y-713079D01*
X6224422Y-718108D01*
X6304381Y-718108D01*
X6309410Y-713079D01*
X6309410Y-633120D01*
X6304381Y-628091D01*
G37*
G36*
X6065418Y-628091D02*
G01*
X6060389Y-633120D01*
X6060389Y-713079D01*
X6065418Y-718108D01*
X6144412Y-718108D01*
X6149390Y-713079D01*
X6149390Y-688898D01*
X6111392Y-688898D01*
X6111392Y-655878D01*
X6149390Y-655878D01*
X6149390Y-633120D01*
X6144412Y-628091D01*
G37*
G36*
X7373518Y-475691D02*
G01*
X7368489Y-480720D01*
X7368489Y-560679D01*
X7373518Y-565708D01*
X7453477Y-565708D01*
X7458506Y-560679D01*
X7458506Y-537921D01*
X7421524Y-537921D01*
X7421524Y-504901D01*
X7458506Y-504901D01*
X7458506Y-480720D01*
X7453477Y-475691D01*
G37*
G36*
X7533487Y-475691D02*
G01*
X7528509Y-480720D01*
X7528509Y-504901D01*
X7566507Y-504901D01*
X7566507Y-537921D01*
X7528509Y-537921D01*
X7528509Y-560679D01*
X7533487Y-565708D01*
X7612481Y-565708D01*
X7617510Y-560679D01*
X7617510Y-480720D01*
X7612481Y-475691D01*
G37*
G36*
X7532522Y-628091D02*
G01*
X7527493Y-633120D01*
X7527493Y-655878D01*
X7564475Y-655878D01*
X7564475Y-688898D01*
X7527493Y-688898D01*
X7527493Y-713079D01*
X7532522Y-718108D01*
X7612481Y-718108D01*
X7617510Y-713079D01*
X7617510Y-633120D01*
X7612481Y-628091D01*
G37*
G36*
X7373518Y-628091D02*
G01*
X7368489Y-633120D01*
X7368489Y-713079D01*
X7373518Y-718108D01*
X7452512Y-718108D01*
X7457490Y-713079D01*
X7457490Y-688898D01*
X7419492Y-688898D01*
X7419492Y-655878D01*
X7457490Y-655878D01*
X7457490Y-633120D01*
X7452512Y-628091D01*
G37*
G36*
X8681618Y-475691D02*
G01*
X8676589Y-480720D01*
X8676589Y-560679D01*
X8681618Y-565708D01*
X8761577Y-565708D01*
X8766606Y-560679D01*
X8766606Y-537921D01*
X8729624Y-537921D01*
X8729624Y-504901D01*
X8766606Y-504901D01*
X8766606Y-480720D01*
X8761577Y-475691D01*
G37*
G36*
X8841587Y-475691D02*
G01*
X8836609Y-480720D01*
X8836609Y-504901D01*
X8874607Y-504901D01*
X8874607Y-537921D01*
X8836609Y-537921D01*
X8836609Y-560679D01*
X8841587Y-565708D01*
X8920581Y-565708D01*
X8925610Y-560679D01*
X8925610Y-480720D01*
X8920581Y-475691D01*
G37*
G36*
X8840622Y-628091D02*
G01*
X8835593Y-633120D01*
X8835593Y-655878D01*
X8872575Y-655878D01*
X8872575Y-688898D01*
X8835593Y-688898D01*
X8835593Y-713079D01*
X8840622Y-718108D01*
X8920581Y-718108D01*
X8925610Y-713079D01*
X8925610Y-633120D01*
X8920581Y-628091D01*
G37*
G36*
X8681618Y-628091D02*
G01*
X8676589Y-633120D01*
X8676589Y-713079D01*
X8681618Y-718108D01*
X8760612Y-718108D01*
X8765590Y-713079D01*
X8765590Y-688898D01*
X8727592Y-688898D01*
X8727592Y-655878D01*
X8765590Y-655878D01*
X8765590Y-633120D01*
X8760612Y-628091D01*
G37*
G36*
X9964318Y-475691D02*
G01*
X9959289Y-480720D01*
X9959289Y-560679D01*
X9964318Y-565708D01*
X10044277Y-565708D01*
X10049306Y-560679D01*
X10049306Y-537921D01*
X10012324Y-537921D01*
X10012324Y-504901D01*
X10049306Y-504901D01*
X10049306Y-480720D01*
X10044277Y-475691D01*
G37*
G36*
X10124287Y-475691D02*
G01*
X10119309Y-480720D01*
X10119309Y-504901D01*
X10157307Y-504901D01*
X10157307Y-537921D01*
X10119309Y-537921D01*
X10119309Y-560679D01*
X10124287Y-565708D01*
X10203281Y-565708D01*
X10208310Y-560679D01*
X10208310Y-480720D01*
X10203281Y-475691D01*
G37*
G36*
X10123322Y-628091D02*
G01*
X10118293Y-633120D01*
X10118293Y-655878D01*
X10155275Y-655878D01*
X10155275Y-688898D01*
X10118293Y-688898D01*
X10118293Y-713079D01*
X10123322Y-718108D01*
X10203281Y-718108D01*
X10208310Y-713079D01*
X10208310Y-633120D01*
X10203281Y-628091D01*
G37*
G36*
X9964318Y-628091D02*
G01*
X9959289Y-633120D01*
X9959289Y-713079D01*
X9964318Y-718108D01*
X10043312Y-718108D01*
X10048290Y-713079D01*
X10048290Y-688898D01*
X10010292Y-688898D01*
X10010292Y-655878D01*
X10048290Y-655878D01*
X10048290Y-633120D01*
X10043312Y-628091D01*
G37*
G36*
X11056518Y-475691D02*
G01*
X11051489Y-480720D01*
X11051489Y-560679D01*
X11056518Y-565708D01*
X11136477Y-565708D01*
X11141506Y-560679D01*
X11141506Y-537921D01*
X11104524Y-537921D01*
X11104524Y-504901D01*
X11141506Y-504901D01*
X11141506Y-480720D01*
X11136477Y-475691D01*
G37*
G36*
X11216487Y-475691D02*
G01*
X11211509Y-480720D01*
X11211509Y-504901D01*
X11249507Y-504901D01*
X11249507Y-537921D01*
X11211509Y-537921D01*
X11211509Y-560679D01*
X11216487Y-565708D01*
X11295481Y-565708D01*
X11300510Y-560679D01*
X11300510Y-480720D01*
X11295481Y-475691D01*
G37*
G36*
X11215522Y-628091D02*
G01*
X11210493Y-633120D01*
X11210493Y-655878D01*
X11247475Y-655878D01*
X11247475Y-688898D01*
X11210493Y-688898D01*
X11210493Y-713079D01*
X11215522Y-718108D01*
X11295481Y-718108D01*
X11300510Y-713079D01*
X11300510Y-633120D01*
X11295481Y-628091D01*
G37*
G36*
X11056518Y-628091D02*
G01*
X11051489Y-633120D01*
X11051489Y-713079D01*
X11056518Y-718108D01*
X11135512Y-718108D01*
X11140490Y-713079D01*
X11140490Y-688898D01*
X11102492Y-688898D01*
X11102492Y-655878D01*
X11140490Y-655878D01*
X11140490Y-633120D01*
X11135512Y-628091D01*
G37*
G36*
X12834518Y-475691D02*
G01*
X12829489Y-480720D01*
X12829489Y-560679D01*
X12834518Y-565708D01*
X12914477Y-565708D01*
X12919506Y-560679D01*
X12919506Y-537921D01*
X12882524Y-537921D01*
X12882524Y-504901D01*
X12919506Y-504901D01*
X12919506Y-480720D01*
X12914477Y-475691D01*
G37*
G36*
X12994487Y-475691D02*
G01*
X12989509Y-480720D01*
X12989509Y-504901D01*
X13027507Y-504901D01*
X13027507Y-537921D01*
X12989509Y-537921D01*
X12989509Y-560679D01*
X12994487Y-565708D01*
X13073481Y-565708D01*
X13078510Y-560679D01*
X13078510Y-480720D01*
X13073481Y-475691D01*
G37*
G36*
X12993522Y-628091D02*
G01*
X12988493Y-633120D01*
X12988493Y-655878D01*
X13025475Y-655878D01*
X13025475Y-688898D01*
X12988493Y-688898D01*
X12988493Y-713079D01*
X12993522Y-718108D01*
X13073481Y-718108D01*
X13078510Y-713079D01*
X13078510Y-633120D01*
X13073481Y-628091D01*
G37*
G36*
X12834518Y-628091D02*
G01*
X12829489Y-633120D01*
X12829489Y-713079D01*
X12834518Y-718108D01*
X12913512Y-718108D01*
X12918490Y-713079D01*
X12918490Y-688898D01*
X12880492Y-688898D01*
X12880492Y-655878D01*
X12918490Y-655878D01*
X12918490Y-633120D01*
X12913512Y-628091D01*
G37*
G36*
X13888618Y-475691D02*
G01*
X13883589Y-480720D01*
X13883589Y-560679D01*
X13888618Y-565708D01*
X13968577Y-565708D01*
X13973606Y-560679D01*
X13973606Y-537921D01*
X13936624Y-537921D01*
X13936624Y-504901D01*
X13973606Y-504901D01*
X13973606Y-480720D01*
X13968577Y-475691D01*
G37*
G36*
X14048587Y-475691D02*
G01*
X14043609Y-480720D01*
X14043609Y-504901D01*
X14081607Y-504901D01*
X14081607Y-537921D01*
X14043609Y-537921D01*
X14043609Y-560679D01*
X14048587Y-565708D01*
X14127581Y-565708D01*
X14132610Y-560679D01*
X14132610Y-480720D01*
X14127581Y-475691D01*
G37*
G36*
X14047622Y-628091D02*
G01*
X14042593Y-633120D01*
X14042593Y-655878D01*
X14079575Y-655878D01*
X14079575Y-688898D01*
X14042593Y-688898D01*
X14042593Y-713079D01*
X14047622Y-718108D01*
X14127581Y-718108D01*
X14132610Y-713079D01*
X14132610Y-633120D01*
X14127581Y-628091D01*
G37*
G36*
X13888618Y-628091D02*
G01*
X13883589Y-633120D01*
X13883589Y-713079D01*
X13888618Y-718108D01*
X13967612Y-718108D01*
X13972590Y-713079D01*
X13972590Y-688898D01*
X13934592Y-688898D01*
X13934592Y-655878D01*
X13972590Y-655878D01*
X13972590Y-633120D01*
X13967612Y-628091D01*
G37*
G36*
X15184018Y-475691D02*
G01*
X15178989Y-480720D01*
X15178989Y-560679D01*
X15184018Y-565708D01*
X15263977Y-565708D01*
X15269006Y-560679D01*
X15269006Y-537921D01*
X15232024Y-537921D01*
X15232024Y-504901D01*
X15269006Y-504901D01*
X15269006Y-480720D01*
X15263977Y-475691D01*
G37*
G36*
X15343987Y-475691D02*
G01*
X15339009Y-480720D01*
X15339009Y-504901D01*
X15377007Y-504901D01*
X15377007Y-537921D01*
X15339009Y-537921D01*
X15339009Y-560679D01*
X15343987Y-565708D01*
X15422981Y-565708D01*
X15428010Y-560679D01*
X15428010Y-480720D01*
X15422981Y-475691D01*
G37*
G36*
X15343022Y-628091D02*
G01*
X15337993Y-633120D01*
X15337993Y-655878D01*
X15374975Y-655878D01*
X15374975Y-688898D01*
X15337993Y-688898D01*
X15337993Y-713079D01*
X15343022Y-718108D01*
X15422981Y-718108D01*
X15428010Y-713079D01*
X15428010Y-633120D01*
X15422981Y-628091D01*
G37*
G36*
X15184018Y-628091D02*
G01*
X15178989Y-633120D01*
X15178989Y-713079D01*
X15184018Y-718108D01*
X15263012Y-718108D01*
X15267990Y-713079D01*
X15267990Y-688898D01*
X15229992Y-688898D01*
X15229992Y-655878D01*
X15267990Y-655878D01*
X15267990Y-633120D01*
X15263012Y-628091D01*
G37*
G36*
X16479418Y-475691D02*
G01*
X16474389Y-480720D01*
X16474389Y-560679D01*
X16479418Y-565708D01*
X16559377Y-565708D01*
X16564406Y-560679D01*
X16564406Y-537921D01*
X16527424Y-537921D01*
X16527424Y-504901D01*
X16564406Y-504901D01*
X16564406Y-480720D01*
X16559377Y-475691D01*
G37*
G36*
X16639387Y-475691D02*
G01*
X16634409Y-480720D01*
X16634409Y-504901D01*
X16672407Y-504901D01*
X16672407Y-537921D01*
X16634409Y-537921D01*
X16634409Y-560679D01*
X16639387Y-565708D01*
X16718381Y-565708D01*
X16723410Y-560679D01*
X16723410Y-480720D01*
X16718381Y-475691D01*
G37*
G36*
X16638422Y-628091D02*
G01*
X16633393Y-633120D01*
X16633393Y-655878D01*
X16670375Y-655878D01*
X16670375Y-688898D01*
X16633393Y-688898D01*
X16633393Y-713079D01*
X16638422Y-718108D01*
X16718381Y-718108D01*
X16723410Y-713079D01*
X16723410Y-633120D01*
X16718381Y-628091D01*
G37*
G36*
X16479418Y-628091D02*
G01*
X16474389Y-633120D01*
X16474389Y-713079D01*
X16479418Y-718108D01*
X16558412Y-718108D01*
X16563390Y-713079D01*
X16563390Y-688898D01*
X16525392Y-688898D01*
X16525392Y-655878D01*
X16563390Y-655878D01*
X16563390Y-633120D01*
X16558412Y-628091D01*
G37*
G36*
X17787518Y-475691D02*
G01*
X17782489Y-480720D01*
X17782489Y-560679D01*
X17787518Y-565708D01*
X17867477Y-565708D01*
X17872506Y-560679D01*
X17872506Y-537921D01*
X17835524Y-537921D01*
X17835524Y-504901D01*
X17872506Y-504901D01*
X17872506Y-480720D01*
X17867477Y-475691D01*
G37*
G36*
X17947487Y-475691D02*
G01*
X17942509Y-480720D01*
X17942509Y-504901D01*
X17980507Y-504901D01*
X17980507Y-537921D01*
X17942509Y-537921D01*
X17942509Y-560679D01*
X17947487Y-565708D01*
X18026481Y-565708D01*
X18031510Y-560679D01*
X18031510Y-480720D01*
X18026481Y-475691D01*
G37*
G36*
X17946522Y-628091D02*
G01*
X17941493Y-633120D01*
X17941493Y-655878D01*
X17978475Y-655878D01*
X17978475Y-688898D01*
X17941493Y-688898D01*
X17941493Y-713079D01*
X17946522Y-718108D01*
X18026481Y-718108D01*
X18031510Y-713079D01*
X18031510Y-633120D01*
X18026481Y-628091D01*
G37*
G36*
X17787518Y-628091D02*
G01*
X17782489Y-633120D01*
X17782489Y-713079D01*
X17787518Y-718108D01*
X17866512Y-718108D01*
X17871490Y-713079D01*
X17871490Y-688898D01*
X17833492Y-688898D01*
X17833492Y-655878D01*
X17871490Y-655878D01*
X17871490Y-633120D01*
X17866512Y-628091D01*
G37*
G36*
X19082918Y-475691D02*
G01*
X19077889Y-480720D01*
X19077889Y-560679D01*
X19082918Y-565708D01*
X19162877Y-565708D01*
X19167906Y-560679D01*
X19167906Y-537921D01*
X19130924Y-537921D01*
X19130924Y-504901D01*
X19167906Y-504901D01*
X19167906Y-480720D01*
X19162877Y-475691D01*
G37*
G36*
X19242887Y-475691D02*
G01*
X19237909Y-480720D01*
X19237909Y-504901D01*
X19275907Y-504901D01*
X19275907Y-537921D01*
X19237909Y-537921D01*
X19237909Y-560679D01*
X19242887Y-565708D01*
X19321881Y-565708D01*
X19326910Y-560679D01*
X19326910Y-480720D01*
X19321881Y-475691D01*
G37*
G36*
X19241922Y-628091D02*
G01*
X19236893Y-633120D01*
X19236893Y-655878D01*
X19273875Y-655878D01*
X19273875Y-688898D01*
X19236893Y-688898D01*
X19236893Y-713079D01*
X19241922Y-718108D01*
X19321881Y-718108D01*
X19326910Y-713079D01*
X19326910Y-633120D01*
X19321881Y-628091D01*
G37*
G36*
X19082918Y-628091D02*
G01*
X19077889Y-633120D01*
X19077889Y-713079D01*
X19082918Y-718108D01*
X19161912Y-718108D01*
X19166890Y-713079D01*
X19166890Y-688898D01*
X19128892Y-688898D01*
X19128892Y-655878D01*
X19166890Y-655878D01*
X19166890Y-633120D01*
X19161912Y-628091D01*
G37*
G36*
X20378318Y-475691D02*
G01*
X20373289Y-480720D01*
X20373289Y-560679D01*
X20378318Y-565708D01*
X20458277Y-565708D01*
X20463306Y-560679D01*
X20463306Y-537921D01*
X20426324Y-537921D01*
X20426324Y-504901D01*
X20463306Y-504901D01*
X20463306Y-480720D01*
X20458277Y-475691D01*
G37*
G36*
X20538287Y-475691D02*
G01*
X20533309Y-480720D01*
X20533309Y-504901D01*
X20571307Y-504901D01*
X20571307Y-537921D01*
X20533309Y-537921D01*
X20533309Y-560679D01*
X20538287Y-565708D01*
X20617281Y-565708D01*
X20622310Y-560679D01*
X20622310Y-480720D01*
X20617281Y-475691D01*
G37*
G36*
X20537322Y-628091D02*
G01*
X20532293Y-633120D01*
X20532293Y-655878D01*
X20569275Y-655878D01*
X20569275Y-688898D01*
X20532293Y-688898D01*
X20532293Y-713079D01*
X20537322Y-718108D01*
X20617281Y-718108D01*
X20622310Y-713079D01*
X20622310Y-633120D01*
X20617281Y-628091D01*
G37*
G36*
X20378318Y-628091D02*
G01*
X20373289Y-633120D01*
X20373289Y-713079D01*
X20378318Y-718108D01*
X20457312Y-718108D01*
X20462290Y-713079D01*
X20462290Y-688898D01*
X20424292Y-688898D01*
X20424292Y-655878D01*
X20462290Y-655878D01*
X20462290Y-633120D01*
X20457312Y-628091D01*
G37*
G36*
X21686418Y-475691D02*
G01*
X21681389Y-480720D01*
X21681389Y-560679D01*
X21686418Y-565708D01*
X21766377Y-565708D01*
X21771406Y-560679D01*
X21771406Y-537921D01*
X21734424Y-537921D01*
X21734424Y-504901D01*
X21771406Y-504901D01*
X21771406Y-480720D01*
X21766377Y-475691D01*
G37*
G36*
X21846387Y-475691D02*
G01*
X21841409Y-480720D01*
X21841409Y-504901D01*
X21879407Y-504901D01*
X21879407Y-537921D01*
X21841409Y-537921D01*
X21841409Y-560679D01*
X21846387Y-565708D01*
X21925381Y-565708D01*
X21930410Y-560679D01*
X21930410Y-480720D01*
X21925381Y-475691D01*
G37*
G36*
X21845422Y-628091D02*
G01*
X21840393Y-633120D01*
X21840393Y-655878D01*
X21877375Y-655878D01*
X21877375Y-688898D01*
X21840393Y-688898D01*
X21840393Y-713079D01*
X21845422Y-718108D01*
X21925381Y-718108D01*
X21930410Y-713079D01*
X21930410Y-633120D01*
X21925381Y-628091D01*
G37*
G36*
X21686418Y-628091D02*
G01*
X21681389Y-633120D01*
X21681389Y-713079D01*
X21686418Y-718108D01*
X21765412Y-718108D01*
X21770390Y-713079D01*
X21770390Y-688898D01*
X21732392Y-688898D01*
X21732392Y-655878D01*
X21770390Y-655878D01*
X21770390Y-633120D01*
X21765412Y-628091D01*
G37*
G36*
X1868322Y-4780991D02*
G01*
X1863293Y-4786020D01*
X1863293Y-4808778D01*
X1900326Y-4808778D01*
X1900326Y-4841798D01*
X1863293Y-4841798D01*
X1863293Y-4865979D01*
X1868322Y-4871008D01*
X1948281Y-4871008D01*
X1953310Y-4865979D01*
X1953310Y-4786020D01*
X1948281Y-4780991D01*
G37*
G36*
X1709318Y-4780991D02*
G01*
X1704289Y-4786020D01*
X1704289Y-4865979D01*
X1709318Y-4871008D01*
X1788312Y-4871008D01*
X1793290Y-4865979D01*
X1793290Y-4841798D01*
X1755292Y-4841798D01*
X1755292Y-4808778D01*
X1793290Y-4808778D01*
X1793290Y-4786020D01*
X1788312Y-4780991D01*
G37*
G36*
X1563522Y-4780991D02*
G01*
X1558493Y-4786020D01*
X1558493Y-4808778D01*
X1595526Y-4808778D01*
X1595526Y-4841798D01*
X1558493Y-4841798D01*
X1558493Y-4865979D01*
X1563522Y-4871008D01*
X1643481Y-4871008D01*
X1648510Y-4865979D01*
X1648510Y-4786020D01*
X1643481Y-4780991D01*
G37*
G36*
X1404518Y-4780991D02*
G01*
X1399489Y-4786020D01*
X1399489Y-4865979D01*
X1404518Y-4871008D01*
X1483512Y-4871008D01*
X1488490Y-4865979D01*
X1488490Y-4841798D01*
X1450492Y-4841798D01*
X1450492Y-4808778D01*
X1488490Y-4808778D01*
X1488490Y-4786020D01*
X1483512Y-4780991D01*
G37*
G36*
X3100222Y-4196791D02*
G01*
X3095193Y-4201820D01*
X3095193Y-4224578D01*
X3132175Y-4224578D01*
X3132175Y-4257598D01*
X3095193Y-4257598D01*
X3095193Y-4281779D01*
X3100222Y-4286808D01*
X3180181Y-4286808D01*
X3185210Y-4281779D01*
X3185210Y-4201820D01*
X3180181Y-4196791D01*
G37*
G36*
X2941218Y-4196791D02*
G01*
X2936189Y-4201820D01*
X2936189Y-4281779D01*
X2941218Y-4286808D01*
X3020212Y-4286808D01*
X3025190Y-4281779D01*
X3025190Y-4257598D01*
X2987192Y-4257598D01*
X2987192Y-4224578D01*
X3025190Y-4224578D01*
X3025190Y-4201820D01*
X3020212Y-4196791D01*
G37*
G36*
X3100222Y-4044391D02*
G01*
X3095193Y-4049420D01*
X3095193Y-4072178D01*
X3132175Y-4072178D01*
X3132175Y-4105198D01*
X3095193Y-4105198D01*
X3095193Y-4129379D01*
X3100222Y-4134408D01*
X3180181Y-4134408D01*
X3185210Y-4129379D01*
X3185210Y-4049420D01*
X3180181Y-4044391D01*
G37*
G36*
X2941218Y-4044391D02*
G01*
X2936189Y-4049420D01*
X2936189Y-4129379D01*
X2941218Y-4134408D01*
X3020212Y-4134408D01*
X3025190Y-4129379D01*
X3025190Y-4105198D01*
X2987192Y-4105198D01*
X2987192Y-4072178D01*
X3025190Y-4072178D01*
X3025190Y-4049420D01*
X3020212Y-4044391D01*
G37*
G36*
X3100222Y-3891991D02*
G01*
X3095193Y-3897020D01*
X3095193Y-3919778D01*
X3132175Y-3919778D01*
X3132175Y-3952798D01*
X3095193Y-3952798D01*
X3095193Y-3976979D01*
X3100222Y-3982008D01*
X3180181Y-3982008D01*
X3185210Y-3976979D01*
X3185210Y-3897020D01*
X3180181Y-3891991D01*
G37*
G36*
X2941218Y-3891991D02*
G01*
X2936189Y-3897020D01*
X2936189Y-3976979D01*
X2941218Y-3982008D01*
X3020212Y-3982008D01*
X3025190Y-3976979D01*
X3025190Y-3952798D01*
X2987192Y-3952798D01*
X2987192Y-3919778D01*
X3025190Y-3919778D01*
X3025190Y-3897020D01*
X3020212Y-3891991D01*
G37*
G36*
X7643520Y-2434793D02*
G01*
X7638491Y-2439822D01*
X7638491Y-2519781D01*
X7643520Y-2524810D01*
X7723479Y-2524810D01*
X7728508Y-2519781D01*
X7728508Y-2439822D01*
X7723479Y-2434793D01*
X7700721Y-2434793D01*
X7700721Y-2471826D01*
X7667701Y-2471826D01*
X7667701Y-2434793D01*
G37*
G36*
X7643520Y-2275789D02*
G01*
X7638491Y-2280818D01*
X7638491Y-2359812D01*
X7643520Y-2364790D01*
X7667701Y-2364790D01*
X7667701Y-2326792D01*
X7700721Y-2326792D01*
X7700721Y-2364790D01*
X7723479Y-2364790D01*
X7728508Y-2359812D01*
X7728508Y-2280818D01*
X7723479Y-2275789D01*
G37*
G36*
X7491120Y-2275789D02*
G01*
X7486091Y-2280818D01*
X7486091Y-2360777D01*
X7491120Y-2365806D01*
X7513878Y-2365806D01*
X7513878Y-2328773D01*
X7546898Y-2328773D01*
X7546898Y-2365806D01*
X7571079Y-2365806D01*
X7576108Y-2360777D01*
X7576108Y-2280818D01*
X7571079Y-2275789D01*
G37*
G36*
X7491120Y-2435809D02*
G01*
X7486091Y-2440787D01*
X7486091Y-2519781D01*
X7491120Y-2524810D01*
X7571079Y-2524810D01*
X7576108Y-2519781D01*
X7576108Y-2440787D01*
X7571079Y-2435809D01*
X7546898Y-2435809D01*
X7546898Y-2473807D01*
X7513878Y-2473807D01*
X7513878Y-2435809D01*
G37*
G36*
X6906920Y-2275789D02*
G01*
X6901891Y-2280818D01*
X6901891Y-2360777D01*
X6906920Y-2365806D01*
X6929678Y-2365806D01*
X6929678Y-2328773D01*
X6962698Y-2328773D01*
X6962698Y-2365806D01*
X6986879Y-2365806D01*
X6991908Y-2360777D01*
X6991908Y-2280818D01*
X6986879Y-2275789D01*
G37*
G36*
X6906920Y-2435809D02*
G01*
X6901891Y-2440787D01*
X6901891Y-2519781D01*
X6906920Y-2524810D01*
X6986879Y-2524810D01*
X6991908Y-2519781D01*
X6991908Y-2440787D01*
X6986879Y-2435809D01*
X6962698Y-2435809D01*
X6962698Y-2473807D01*
X6929678Y-2473807D01*
X6929678Y-2435809D01*
G37*
G36*
X5455818Y-2244750D02*
G01*
X5450789Y-2249728D01*
X5450789Y-2329738D01*
X5455818Y-2334768D01*
X5535777Y-2334768D01*
X5540806Y-2329738D01*
X5540806Y-2306929D01*
X5503824Y-2306929D01*
X5503824Y-2273960D01*
X5540806Y-2273960D01*
X5540806Y-2249728D01*
X5535777Y-2244750D01*
G37*
G36*
X5615787Y-2244750D02*
G01*
X5610809Y-2249728D01*
X5610809Y-2273960D01*
X5648807Y-2273960D01*
X5648807Y-2306929D01*
X5610809Y-2306929D01*
X5610809Y-2329738D01*
X5615787Y-2334768D01*
X5694781Y-2334768D01*
X5699810Y-2329738D01*
X5699810Y-2249728D01*
X5694781Y-2244750D01*
G37*
G36*
X5919622Y-2244750D02*
G01*
X5914593Y-2249728D01*
X5914593Y-2272538D01*
X5951575Y-2272538D01*
X5951575Y-2305558D01*
X5914593Y-2305558D01*
X5914593Y-2329738D01*
X5919622Y-2334768D01*
X5999581Y-2334768D01*
X6004610Y-2329738D01*
X6004610Y-2249728D01*
X5999581Y-2244750D01*
G37*
G36*
X5760618Y-2244750D02*
G01*
X5755589Y-2249728D01*
X5755589Y-2329738D01*
X5760618Y-2334768D01*
X5839612Y-2334768D01*
X5844590Y-2329738D01*
X5844590Y-2305558D01*
X5806592Y-2305558D01*
X5806592Y-2272538D01*
X5844590Y-2272538D01*
X5844590Y-2249728D01*
X5839612Y-2244750D01*
G37*
G36*
X5255920Y-2237689D02*
G01*
X5250891Y-2242718D01*
X5250891Y-2322677D01*
X5255920Y-2327706D01*
X5278678Y-2327706D01*
X5278678Y-2290673D01*
X5311698Y-2290673D01*
X5311698Y-2327706D01*
X5335879Y-2327706D01*
X5340908Y-2322677D01*
X5340908Y-2242718D01*
X5335879Y-2237689D01*
G37*
G36*
X5255920Y-2397709D02*
G01*
X5250891Y-2402687D01*
X5250891Y-2481681D01*
X5255920Y-2486710D01*
X5335879Y-2486710D01*
X5340908Y-2481681D01*
X5340908Y-2402687D01*
X5335879Y-2397709D01*
X5311698Y-2397709D01*
X5311698Y-2435707D01*
X5278678Y-2435707D01*
X5278678Y-2397709D01*
G37*
G36*
X5255920Y-2529789D02*
G01*
X5250891Y-2534818D01*
X5250891Y-2614777D01*
X5255920Y-2619806D01*
X5278678Y-2619806D01*
X5278678Y-2582773D01*
X5311698Y-2582773D01*
X5311698Y-2619806D01*
X5335879Y-2619806D01*
X5340908Y-2614777D01*
X5340908Y-2534818D01*
X5335879Y-2529789D01*
G37*
G36*
X5255920Y-2689809D02*
G01*
X5250891Y-2694787D01*
X5250891Y-2773781D01*
X5255920Y-2778810D01*
X5335879Y-2778810D01*
X5340908Y-2773781D01*
X5340908Y-2694787D01*
X5335879Y-2689809D01*
X5311698Y-2689809D01*
X5311698Y-2727807D01*
X5278678Y-2727807D01*
X5278678Y-2689809D01*
G37*
G36*
X4570120Y-2250389D02*
G01*
X4565091Y-2255418D01*
X4565091Y-2335377D01*
X4570120Y-2340406D01*
X4592878Y-2340406D01*
X4592878Y-2303373D01*
X4625898Y-2303373D01*
X4625898Y-2340406D01*
X4650079Y-2340406D01*
X4655108Y-2335377D01*
X4655108Y-2255418D01*
X4650079Y-2250389D01*
G37*
G36*
X4570120Y-2410409D02*
G01*
X4565091Y-2415387D01*
X4565091Y-2494381D01*
X4570120Y-2499410D01*
X4650079Y-2499410D01*
X4655108Y-2494381D01*
X4655108Y-2415387D01*
X4650079Y-2410409D01*
X4625898Y-2410409D01*
X4625898Y-2448407D01*
X4592878Y-2448407D01*
X4592878Y-2410409D01*
G37*
G36*
X4722520Y-2248814D02*
G01*
X4717491Y-2253792D01*
X4717491Y-2333802D01*
X4722520Y-2338832D01*
X4745278Y-2338832D01*
X4745278Y-2301798D01*
X4778298Y-2301798D01*
X4778298Y-2338832D01*
X4802479Y-2338832D01*
X4807508Y-2333802D01*
X4807508Y-2253792D01*
X4802479Y-2248814D01*
G37*
G36*
X4722520Y-2408834D02*
G01*
X4717491Y-2413812D01*
X4717491Y-2492806D01*
X4722520Y-2497785D01*
X4802479Y-2497785D01*
X4807508Y-2492806D01*
X4807508Y-2413812D01*
X4802479Y-2408834D01*
X4778298Y-2408834D01*
X4778298Y-2446832D01*
X4745278Y-2446832D01*
X4745278Y-2408834D01*
G37*
G36*
X2307996Y-905510D02*
G01*
X2297988Y-915517D01*
X2297988Y-1023772D01*
X2307996Y-1033729D01*
X2568803Y-1033729D01*
X2578811Y-1023772D01*
X2578811Y-915517D01*
X2568803Y-905510D01*
X2496159Y-905510D01*
X2486152Y-915517D01*
X2486152Y-939088D01*
X2476144Y-949096D01*
X2400655Y-949096D01*
X2390648Y-939088D01*
X2390648Y-915517D01*
X2380640Y-905510D01*
G37*
G36*
X2307996Y-617270D02*
G01*
X2297988Y-627227D01*
X2297988Y-735482D01*
X2307996Y-745490D01*
X2380640Y-745490D01*
X2390648Y-735482D01*
X2390648Y-711911D01*
X2400655Y-701903D01*
X2476144Y-701903D01*
X2486152Y-711911D01*
X2486152Y-735482D01*
X2496159Y-745490D01*
X2568803Y-745490D01*
X2578811Y-735482D01*
X2578811Y-627227D01*
X2568803Y-617270D01*
G37*
G36*
X3108096Y-905510D02*
G01*
X3098088Y-915517D01*
X3098088Y-1023772D01*
X3108096Y-1033729D01*
X3368903Y-1033729D01*
X3378911Y-1023772D01*
X3378911Y-915517D01*
X3368903Y-905510D01*
X3296259Y-905510D01*
X3286251Y-915517D01*
X3286251Y-939088D01*
X3276244Y-949096D01*
X3200755Y-949096D01*
X3190748Y-939088D01*
X3190748Y-915517D01*
X3180740Y-905510D01*
G37*
G36*
X3108096Y-617270D02*
G01*
X3098088Y-627227D01*
X3098088Y-735482D01*
X3108096Y-745490D01*
X3180740Y-745490D01*
X3190748Y-735482D01*
X3190748Y-711911D01*
X3200755Y-701903D01*
X3276244Y-701903D01*
X3286251Y-711911D01*
X3286251Y-735482D01*
X3296259Y-745490D01*
X3368903Y-745490D01*
X3378911Y-735482D01*
X3378911Y-627227D01*
X3368903Y-617270D01*
G37*
G36*
X4416196Y-905510D02*
G01*
X4406188Y-915517D01*
X4406188Y-1023772D01*
X4416196Y-1033729D01*
X4677003Y-1033729D01*
X4687011Y-1023772D01*
X4687011Y-915517D01*
X4677003Y-905510D01*
X4604359Y-905510D01*
X4594352Y-915517D01*
X4594352Y-939088D01*
X4584344Y-949096D01*
X4508855Y-949096D01*
X4498848Y-939088D01*
X4498848Y-915517D01*
X4488840Y-905510D01*
G37*
G36*
X4416196Y-617270D02*
G01*
X4406188Y-627227D01*
X4406188Y-735482D01*
X4416196Y-745490D01*
X4488840Y-745490D01*
X4498848Y-735482D01*
X4498848Y-711911D01*
X4508855Y-701903D01*
X4584344Y-701903D01*
X4594352Y-711911D01*
X4594352Y-735482D01*
X4604359Y-745490D01*
X4677003Y-745490D01*
X4687011Y-735482D01*
X4687011Y-627227D01*
X4677003Y-617270D01*
G37*
G36*
X5711596Y-905510D02*
G01*
X5701588Y-915517D01*
X5701588Y-1023772D01*
X5711596Y-1033729D01*
X5972403Y-1033729D01*
X5982411Y-1023772D01*
X5982411Y-915517D01*
X5972403Y-905510D01*
X5899759Y-905510D01*
X5889752Y-915517D01*
X5889752Y-939088D01*
X5879744Y-949096D01*
X5804255Y-949096D01*
X5794248Y-939088D01*
X5794248Y-915517D01*
X5784240Y-905510D01*
G37*
G36*
X5711596Y-617270D02*
G01*
X5701588Y-627227D01*
X5701588Y-735482D01*
X5711596Y-745490D01*
X5784240Y-745490D01*
X5794248Y-735482D01*
X5794248Y-711911D01*
X5804255Y-701903D01*
X5879744Y-701903D01*
X5889752Y-711911D01*
X5889752Y-735482D01*
X5899759Y-745490D01*
X5972403Y-745490D01*
X5982411Y-735482D01*
X5982411Y-627227D01*
X5972403Y-617270D01*
G37*
G36*
X7006996Y-905510D02*
G01*
X6996988Y-915517D01*
X6996988Y-1023772D01*
X7006996Y-1033729D01*
X7267803Y-1033729D01*
X7277811Y-1023772D01*
X7277811Y-915517D01*
X7267803Y-905510D01*
X7195159Y-905510D01*
X7185152Y-915517D01*
X7185152Y-939088D01*
X7175144Y-949096D01*
X7099655Y-949096D01*
X7089648Y-939088D01*
X7089648Y-915517D01*
X7079640Y-905510D01*
G37*
G36*
X7006996Y-617270D02*
G01*
X6996988Y-627227D01*
X6996988Y-735482D01*
X7006996Y-745490D01*
X7079640Y-745490D01*
X7089648Y-735482D01*
X7089648Y-711911D01*
X7099655Y-701903D01*
X7175144Y-701903D01*
X7185152Y-711911D01*
X7185152Y-735482D01*
X7195159Y-745490D01*
X7267803Y-745490D01*
X7277811Y-735482D01*
X7277811Y-627227D01*
X7267803Y-617270D01*
G37*
G36*
X8327796Y-905510D02*
G01*
X8317788Y-915517D01*
X8317788Y-1023772D01*
X8327796Y-1033729D01*
X8588603Y-1033729D01*
X8598611Y-1023772D01*
X8598611Y-915517D01*
X8588603Y-905510D01*
X8515959Y-905510D01*
X8505952Y-915517D01*
X8505952Y-939088D01*
X8495944Y-949096D01*
X8420455Y-949096D01*
X8410448Y-939088D01*
X8410448Y-915517D01*
X8400440Y-905510D01*
G37*
G36*
X8327796Y-617270D02*
G01*
X8317788Y-627227D01*
X8317788Y-735482D01*
X8327796Y-745490D01*
X8400440Y-745490D01*
X8410448Y-735482D01*
X8410448Y-711911D01*
X8420455Y-701903D01*
X8495944Y-701903D01*
X8505952Y-711911D01*
X8505952Y-735482D01*
X8515959Y-745490D01*
X8588603Y-745490D01*
X8598611Y-735482D01*
X8598611Y-627227D01*
X8588603Y-617270D01*
G37*
G36*
X9610496Y-905510D02*
G01*
X9600488Y-915517D01*
X9600488Y-1023772D01*
X9610496Y-1033729D01*
X9871303Y-1033729D01*
X9881311Y-1023772D01*
X9881311Y-915517D01*
X9871303Y-905510D01*
X9798659Y-905510D01*
X9788652Y-915517D01*
X9788652Y-939088D01*
X9778644Y-949096D01*
X9703155Y-949096D01*
X9693148Y-939088D01*
X9693148Y-915517D01*
X9683140Y-905510D01*
G37*
G36*
X9610496Y-617270D02*
G01*
X9600488Y-627227D01*
X9600488Y-735482D01*
X9610496Y-745490D01*
X9683140Y-745490D01*
X9693148Y-735482D01*
X9693148Y-711911D01*
X9703155Y-701903D01*
X9778644Y-701903D01*
X9788652Y-711911D01*
X9788652Y-735482D01*
X9798659Y-745490D01*
X9871303Y-745490D01*
X9881311Y-735482D01*
X9881311Y-627227D01*
X9871303Y-617270D01*
G37*
G36*
X10702696Y-905510D02*
G01*
X10692688Y-915517D01*
X10692688Y-1023772D01*
X10702696Y-1033729D01*
X10963503Y-1033729D01*
X10973511Y-1023772D01*
X10973511Y-915517D01*
X10963503Y-905510D01*
X10890859Y-905510D01*
X10880852Y-915517D01*
X10880852Y-939088D01*
X10870844Y-949096D01*
X10795355Y-949096D01*
X10785348Y-939088D01*
X10785348Y-915517D01*
X10775340Y-905510D01*
G37*
G36*
X10702696Y-617270D02*
G01*
X10692688Y-627227D01*
X10692688Y-735482D01*
X10702696Y-745490D01*
X10775340Y-745490D01*
X10785348Y-735482D01*
X10785348Y-711911D01*
X10795355Y-701903D01*
X10870844Y-701903D01*
X10880852Y-711911D01*
X10880852Y-735482D01*
X10890859Y-745490D01*
X10963503Y-745490D01*
X10973511Y-735482D01*
X10973511Y-627227D01*
X10963503Y-617270D01*
G37*
G36*
X12480696Y-905510D02*
G01*
X12470688Y-915517D01*
X12470688Y-1023772D01*
X12480696Y-1033729D01*
X12741503Y-1033729D01*
X12751511Y-1023772D01*
X12751511Y-915517D01*
X12741503Y-905510D01*
X12668859Y-905510D01*
X12658852Y-915517D01*
X12658852Y-939088D01*
X12648844Y-949096D01*
X12573355Y-949096D01*
X12563348Y-939088D01*
X12563348Y-915517D01*
X12553340Y-905510D01*
G37*
G36*
X12480696Y-617270D02*
G01*
X12470688Y-627227D01*
X12470688Y-735482D01*
X12480696Y-745490D01*
X12553340Y-745490D01*
X12563348Y-735482D01*
X12563348Y-711911D01*
X12573355Y-701903D01*
X12648844Y-701903D01*
X12658852Y-711911D01*
X12658852Y-735482D01*
X12668859Y-745490D01*
X12741503Y-745490D01*
X12751511Y-735482D01*
X12751511Y-627227D01*
X12741503Y-617270D01*
G37*
G36*
X13534796Y-905510D02*
G01*
X13524788Y-915517D01*
X13524788Y-1023772D01*
X13534796Y-1033729D01*
X13795603Y-1033729D01*
X13805611Y-1023772D01*
X13805611Y-915517D01*
X13795603Y-905510D01*
X13722959Y-905510D01*
X13712951Y-915517D01*
X13712951Y-939088D01*
X13702944Y-949096D01*
X13627455Y-949096D01*
X13617448Y-939088D01*
X13617448Y-915517D01*
X13607440Y-905510D01*
G37*
G36*
X13534796Y-617270D02*
G01*
X13524788Y-627227D01*
X13524788Y-735482D01*
X13534796Y-745490D01*
X13607440Y-745490D01*
X13617448Y-735482D01*
X13617448Y-711911D01*
X13627455Y-701903D01*
X13702944Y-701903D01*
X13712951Y-711911D01*
X13712951Y-735482D01*
X13722959Y-745490D01*
X13795603Y-745490D01*
X13805611Y-735482D01*
X13805611Y-627227D01*
X13795603Y-617270D01*
G37*
G36*
X14830196Y-905510D02*
G01*
X14820188Y-915517D01*
X14820188Y-1023772D01*
X14830196Y-1033729D01*
X15091003Y-1033729D01*
X15101011Y-1023772D01*
X15101011Y-915517D01*
X15091003Y-905510D01*
X15018359Y-905510D01*
X15008351Y-915517D01*
X15008351Y-939088D01*
X14998344Y-949096D01*
X14922855Y-949096D01*
X14912848Y-939088D01*
X14912848Y-915517D01*
X14902840Y-905510D01*
G37*
G36*
X14830196Y-617270D02*
G01*
X14820188Y-627227D01*
X14820188Y-735482D01*
X14830196Y-745490D01*
X14902840Y-745490D01*
X14912848Y-735482D01*
X14912848Y-711911D01*
X14922855Y-701903D01*
X14998344Y-701903D01*
X15008351Y-711911D01*
X15008351Y-735482D01*
X15018359Y-745490D01*
X15091003Y-745490D01*
X15101011Y-735482D01*
X15101011Y-627227D01*
X15091003Y-617270D01*
G37*
G36*
X16125596Y-905510D02*
G01*
X16115588Y-915517D01*
X16115588Y-1023772D01*
X16125596Y-1033729D01*
X16386403Y-1033729D01*
X16396411Y-1023772D01*
X16396411Y-915517D01*
X16386403Y-905510D01*
X16313759Y-905510D01*
X16303751Y-915517D01*
X16303751Y-939088D01*
X16293744Y-949096D01*
X16218255Y-949096D01*
X16208248Y-939088D01*
X16208248Y-915517D01*
X16198240Y-905510D01*
G37*
G36*
X16125596Y-617270D02*
G01*
X16115588Y-627227D01*
X16115588Y-735482D01*
X16125596Y-745490D01*
X16198240Y-745490D01*
X16208248Y-735482D01*
X16208248Y-711911D01*
X16218255Y-701903D01*
X16293744Y-701903D01*
X16303751Y-711911D01*
X16303751Y-735482D01*
X16313759Y-745490D01*
X16386403Y-745490D01*
X16396411Y-735482D01*
X16396411Y-627227D01*
X16386403Y-617270D01*
G37*
G36*
X17433696Y-905510D02*
G01*
X17423688Y-915517D01*
X17423688Y-1023772D01*
X17433696Y-1033729D01*
X17694503Y-1033729D01*
X17704511Y-1023772D01*
X17704511Y-915517D01*
X17694503Y-905510D01*
X17621859Y-905510D01*
X17611852Y-915517D01*
X17611852Y-939088D01*
X17601844Y-949096D01*
X17526355Y-949096D01*
X17516348Y-939088D01*
X17516348Y-915517D01*
X17506340Y-905510D01*
G37*
G36*
X17433696Y-617270D02*
G01*
X17423688Y-627227D01*
X17423688Y-735482D01*
X17433696Y-745490D01*
X17506340Y-745490D01*
X17516348Y-735482D01*
X17516348Y-711911D01*
X17526355Y-701903D01*
X17601844Y-701903D01*
X17611852Y-711911D01*
X17611852Y-735482D01*
X17621859Y-745490D01*
X17694503Y-745490D01*
X17704511Y-735482D01*
X17704511Y-627227D01*
X17694503Y-617270D01*
G37*
G36*
X18729096Y-905510D02*
G01*
X18719088Y-915517D01*
X18719088Y-1023772D01*
X18729096Y-1033729D01*
X18989903Y-1033729D01*
X18999911Y-1023772D01*
X18999911Y-915517D01*
X18989903Y-905510D01*
X18917259Y-905510D01*
X18907252Y-915517D01*
X18907252Y-939088D01*
X18897244Y-949096D01*
X18821755Y-949096D01*
X18811748Y-939088D01*
X18811748Y-915517D01*
X18801740Y-905510D01*
G37*
G36*
X18729096Y-617270D02*
G01*
X18719088Y-627227D01*
X18719088Y-735482D01*
X18729096Y-745490D01*
X18801740Y-745490D01*
X18811748Y-735482D01*
X18811748Y-711911D01*
X18821755Y-701903D01*
X18897244Y-701903D01*
X18907252Y-711911D01*
X18907252Y-735482D01*
X18917259Y-745490D01*
X18989903Y-745490D01*
X18999911Y-735482D01*
X18999911Y-627227D01*
X18989903Y-617270D01*
G37*
G36*
X20024496Y-905510D02*
G01*
X20014488Y-915517D01*
X20014488Y-1023772D01*
X20024496Y-1033729D01*
X20285303Y-1033729D01*
X20295311Y-1023772D01*
X20295311Y-915517D01*
X20285303Y-905510D01*
X20212659Y-905510D01*
X20202652Y-915517D01*
X20202652Y-939088D01*
X20192644Y-949096D01*
X20117155Y-949096D01*
X20107148Y-939088D01*
X20107148Y-915517D01*
X20097140Y-905510D01*
G37*
G36*
X20024496Y-617270D02*
G01*
X20014488Y-627227D01*
X20014488Y-735482D01*
X20024496Y-745490D01*
X20097140Y-745490D01*
X20107148Y-735482D01*
X20107148Y-711911D01*
X20117155Y-701903D01*
X20192644Y-701903D01*
X20202652Y-711911D01*
X20202652Y-735482D01*
X20212659Y-745490D01*
X20285303Y-745490D01*
X20295311Y-735482D01*
X20295311Y-627227D01*
X20285303Y-617270D01*
G37*
G36*
X21332596Y-905510D02*
G01*
X21322588Y-915517D01*
X21322588Y-1023772D01*
X21332596Y-1033729D01*
X21593403Y-1033729D01*
X21603411Y-1023772D01*
X21603411Y-915517D01*
X21593403Y-905510D01*
X21520759Y-905510D01*
X21510752Y-915517D01*
X21510752Y-939088D01*
X21500744Y-949096D01*
X21425255Y-949096D01*
X21415248Y-939088D01*
X21415248Y-915517D01*
X21405240Y-905510D01*
G37*
G36*
X21332596Y-617270D02*
G01*
X21322588Y-627227D01*
X21322588Y-735482D01*
X21332596Y-745490D01*
X21405240Y-745490D01*
X21415248Y-735482D01*
X21415248Y-711911D01*
X21425255Y-701903D01*
X21500744Y-701903D01*
X21510752Y-711911D01*
X21510752Y-735482D01*
X21520759Y-745490D01*
X21593403Y-745490D01*
X21603411Y-735482D01*
X21603411Y-627227D01*
X21593403Y-617270D01*
G37*
G36*
X8989720Y-1494993D02*
G01*
X8984691Y-1500022D01*
X8984691Y-1579981D01*
X8989720Y-1585010D01*
X9069679Y-1585010D01*
X9074708Y-1579981D01*
X9074708Y-1500022D01*
X9069679Y-1494993D01*
X9046921Y-1494993D01*
X9046921Y-1532026D01*
X9013901Y-1532026D01*
X9013901Y-1494993D01*
G37*
G36*
X8989720Y-1335989D02*
G01*
X8984691Y-1341018D01*
X8984691Y-1420012D01*
X8989720Y-1424990D01*
X9013901Y-1424990D01*
X9013901Y-1386992D01*
X9046921Y-1386992D01*
X9046921Y-1424990D01*
X9069679Y-1424990D01*
X9074708Y-1420012D01*
X9074708Y-1341018D01*
X9069679Y-1335989D01*
G37*
D15*
X19137708Y-2349500D02*
G01*
X18992009Y-2349500D01*
X19137708Y-2476500D02*
G01*
X18992009Y-2476500D01*
X19137708Y-2603500D02*
G01*
X18992009Y-2603500D01*
X19137708Y-2730500D02*
G01*
X18992009Y-2730500D01*
X19692190Y-2349500D02*
G01*
X19546491Y-2349500D01*
X19692190Y-2476500D02*
G01*
X19546491Y-2476500D01*
X19692190Y-2603500D02*
G01*
X19546491Y-2603500D01*
X19692190Y-2730500D02*
G01*
X19546491Y-2730500D01*
D16*
X1803806Y-988303D02*
G01*
X1803806Y-850503D01*
X1738807Y-988303D02*
G01*
X1738807Y-850503D01*
X1673809Y-988303D02*
G01*
X1673809Y-850503D01*
X1608810Y-988303D02*
G01*
X1608810Y-850503D01*
X1543786Y-988303D02*
G01*
X1543786Y-850503D01*
X1478787Y-988303D02*
G01*
X1478787Y-850503D01*
X1413789Y-988303D02*
G01*
X1413789Y-850503D01*
X1348790Y-988303D02*
G01*
X1348790Y-850503D01*
X1283792Y-988303D02*
G01*
X1283792Y-850503D01*
X1218793Y-988303D02*
G01*
X1218793Y-850503D01*
X1803806Y-1562496D02*
G01*
X1803806Y-1424696D01*
X1738807Y-1562496D02*
G01*
X1738807Y-1424696D01*
X1673809Y-1562496D02*
G01*
X1673809Y-1424696D01*
X1608810Y-1562496D02*
G01*
X1608810Y-1424696D01*
X1543786Y-1562496D02*
G01*
X1543786Y-1424696D01*
X1478787Y-1562496D02*
G01*
X1478787Y-1424696D01*
X1413789Y-1562496D02*
G01*
X1413789Y-1424696D01*
X1348790Y-1562496D02*
G01*
X1348790Y-1424696D01*
X1283792Y-1562496D02*
G01*
X1283792Y-1424696D01*
X1218793Y-1562496D02*
G01*
X1218793Y-1424696D01*
D17*
X1269489Y-4165600D02*
G01*
X1123088Y-4165600D01*
X1269489Y-4292600D02*
G01*
X1123088Y-4292600D01*
X1269489Y-4419600D02*
G01*
X1123088Y-4419600D01*
X1269489Y-4546600D02*
G01*
X1123088Y-4546600D01*
X1823311Y-4165600D02*
G01*
X1676910Y-4165600D01*
X1823311Y-4292600D02*
G01*
X1676910Y-4292600D01*
X1823311Y-4419600D02*
G01*
X1676910Y-4419600D01*
X1823311Y-4546600D02*
G01*
X1676910Y-4546600D01*
D12*
X8946794Y-1778421D02*
G01*
X8946794Y-1948421D01*
X8996806Y-1778421D02*
G01*
X8996806Y-1948421D01*
X9046794Y-1778421D02*
G01*
X9046794Y-1948421D01*
X9096806Y-1778421D02*
G01*
X9096806Y-1948421D01*
X9146793Y-1778421D02*
G01*
X9146793Y-1948421D01*
X9196806Y-1778421D02*
G01*
X9196806Y-1948421D01*
X9246793Y-1778421D02*
G01*
X9246793Y-1948421D01*
X9296806Y-1778421D02*
G01*
X9296806Y-1948421D01*
X9346793Y-1778421D02*
G01*
X9346793Y-1948421D01*
X9396806Y-1778421D02*
G01*
X9396806Y-1948421D01*
X9446793Y-1778421D02*
G01*
X9446793Y-1948421D01*
X9496806Y-1778421D02*
G01*
X9496806Y-1948421D01*
X9546793Y-1778421D02*
G01*
X9546793Y-1948421D01*
X9596805Y-1778421D02*
G01*
X9596805Y-1948421D01*
X9646793Y-1778421D02*
G01*
X9646793Y-1948421D01*
X9696805Y-1778421D02*
G01*
X9696805Y-1948421D01*
X9981780Y-2063394D02*
G01*
X9811781Y-2063394D01*
X9981780Y-2113406D02*
G01*
X9811781Y-2113406D01*
X9981780Y-2163394D02*
G01*
X9811781Y-2163394D01*
X9981780Y-2213406D02*
G01*
X9811781Y-2213406D01*
X9981780Y-2263394D02*
G01*
X9811781Y-2263394D01*
X9981780Y-2313406D02*
G01*
X9811781Y-2313406D01*
X9981780Y-2363393D02*
G01*
X9811781Y-2363393D01*
X9981780Y-2413406D02*
G01*
X9811781Y-2413406D01*
X9981780Y-2463393D02*
G01*
X9811781Y-2463393D01*
X9981780Y-2513406D02*
G01*
X9811781Y-2513406D01*
X9981780Y-2563393D02*
G01*
X9811781Y-2563393D01*
X9981780Y-2613405D02*
G01*
X9811781Y-2613405D01*
X9981780Y-2663393D02*
G01*
X9811781Y-2663393D01*
X9981780Y-2713405D02*
G01*
X9811781Y-2713405D01*
X9981780Y-2763393D02*
G01*
X9811781Y-2763393D01*
X9981780Y-2813405D02*
G01*
X9811781Y-2813405D01*
X9696805Y-2928381D02*
G01*
X9696805Y-3098380D01*
X9646793Y-2928381D02*
G01*
X9646793Y-3098380D01*
X9596805Y-2928381D02*
G01*
X9596805Y-3098380D01*
X9546793Y-2928381D02*
G01*
X9546793Y-3098380D01*
X9496806Y-2928381D02*
G01*
X9496806Y-3098380D01*
X9446793Y-2928381D02*
G01*
X9446793Y-3098380D01*
X9396806Y-2928381D02*
G01*
X9396806Y-3098380D01*
X9346793Y-2928381D02*
G01*
X9346793Y-3098380D01*
X9296806Y-2928381D02*
G01*
X9296806Y-3098380D01*
X9246793Y-2928381D02*
G01*
X9246793Y-3098380D01*
X9196806Y-2928381D02*
G01*
X9196806Y-3098380D01*
X9146793Y-2928381D02*
G01*
X9146793Y-3098380D01*
X9096806Y-2928381D02*
G01*
X9096806Y-3098380D01*
X9046794Y-2928381D02*
G01*
X9046794Y-3098380D01*
X8996806Y-2928381D02*
G01*
X8996806Y-3098380D01*
X8946794Y-2928381D02*
G01*
X8946794Y-3098380D01*
X8831821Y-2813405D02*
G01*
X8661821Y-2813405D01*
X8831821Y-2763393D02*
G01*
X8661821Y-2763393D01*
X8831821Y-2713405D02*
G01*
X8661821Y-2713405D01*
X8831821Y-2663393D02*
G01*
X8661821Y-2663393D01*
X8831821Y-2613405D02*
G01*
X8661821Y-2613405D01*
X8831821Y-2563393D02*
G01*
X8661821Y-2563393D01*
X8831821Y-2513406D02*
G01*
X8661821Y-2513406D01*
X8831821Y-2463393D02*
G01*
X8661821Y-2463393D01*
X8831821Y-2413406D02*
G01*
X8661821Y-2413406D01*
X8831821Y-2363393D02*
G01*
X8661821Y-2363393D01*
X8831821Y-2313406D02*
G01*
X8661821Y-2313406D01*
X8831821Y-2263394D02*
G01*
X8661821Y-2263394D01*
X8831821Y-2213406D02*
G01*
X8661821Y-2213406D01*
X8831821Y-2163394D02*
G01*
X8661821Y-2163394D01*
X8831821Y-2113406D02*
G01*
X8661821Y-2113406D01*
X8831821Y-2063394D02*
G01*
X8661821Y-2063394D01*
G36*
X3789199Y-297898D02*
G01*
X3869199Y-297898D01*
X3869199Y-387901D01*
X3789199Y-387901D01*
G37*
G36*
X3649200Y-297898D02*
G01*
X3729200Y-297898D01*
X3729200Y-387901D01*
X3649200Y-387901D01*
G37*
D19*
G01*
X4070197Y-342900D03*
G01*
X4210202Y-342900D03*
D20*
G01*
X6876795Y-1549704D03*
G01*
X6781800Y-1549704D03*
G01*
X6686804Y-1549704D03*
G01*
X6686804Y-1269695D03*
G01*
X6781800Y-1269695D03*
G01*
X6876795Y-1269695D03*
D21*
G01*
X6489700Y-1403197D03*
G01*
X6489700Y-1543202D03*
G01*
X1358900Y-2355697D03*
G01*
X1358900Y-2495702D03*
G01*
X5168900Y-1403197D03*
G01*
X5168900Y-1543202D03*
G01*
X7797800Y-1403197D03*
G01*
X7797800Y-1543202D03*
G36*
X13313900Y-1872698D02*
G01*
X13393900Y-1872698D01*
X13393900Y-1962701D01*
X13313900Y-1962701D01*
G37*
G36*
X13453899Y-1872698D02*
G01*
X13533899Y-1872698D01*
X13533899Y-1962701D01*
X13453899Y-1962701D01*
G37*
G01*
X4241800Y-679602D03*
G01*
X4241800Y-539597D03*
D19*
G01*
X10420502Y-2209800D03*
G01*
X10280497Y-2209800D03*
D20*
G01*
X5555995Y-1549704D03*
G01*
X5461000Y-1549704D03*
G01*
X5366004Y-1549704D03*
G01*
X5366004Y-1269695D03*
G01*
X5461000Y-1269695D03*
G01*
X5555995Y-1269695D03*
G01*
X8184895Y-1549704D03*
G01*
X8089900Y-1549704D03*
G01*
X7994904Y-1549704D03*
G01*
X7994904Y-1269695D03*
G01*
X8089900Y-1269695D03*
G01*
X8184895Y-1269695D03*
G36*
X13475802Y-2074595D02*
G01*
X13575802Y-2074595D01*
X13575802Y-2129596D01*
X13475802Y-2129596D01*
G37*
G36*
X13475802Y-2169591D02*
G01*
X13575802Y-2169591D01*
X13575802Y-2224592D01*
X13475802Y-2224592D01*
G37*
G36*
X13475802Y-2264587D02*
G01*
X13575802Y-2264587D01*
X13575802Y-2319588D01*
X13475802Y-2319588D01*
G37*
G36*
X13195792Y-2264587D02*
G01*
X13295792Y-2264587D01*
X13295792Y-2319588D01*
X13195792Y-2319588D01*
G37*
G36*
X13195792Y-2169591D02*
G01*
X13295792Y-2169591D01*
X13295792Y-2224592D01*
X13195792Y-2224592D01*
G37*
G36*
X13195792Y-2074595D02*
G01*
X13295792Y-2074595D01*
X13295792Y-2129596D01*
X13195792Y-2129596D01*
G37*
G01*
X3854704Y-520395D03*
G01*
X3949700Y-520395D03*
G01*
X4044695Y-520395D03*
G01*
X4044695Y-800404D03*
G01*
X3949700Y-800404D03*
G01*
X3854704Y-800404D03*
D24*
G01*
X10210495Y-2609595D03*
G01*
X10210495Y-2514600D03*
G01*
X10210495Y-2419604D03*
G01*
X10490504Y-2419604D03*
G01*
X10490504Y-2514600D03*
G01*
X10490504Y-2609595D03*
D21*
G01*
X20217866Y-2457094D03*
G01*
X20217866Y-2317114D03*
G01*
X18808700Y-2760954D03*
G01*
X18808700Y-2620975D03*
G01*
X1803400Y-1720697D03*
G01*
X1803400Y-1860702D03*
D19*
G01*
X12198502Y-1600200D03*
G01*
X12058497Y-1600200D03*
G01*
X16935602Y-1955800D03*
G01*
X16795597Y-1955800D03*
D26*
G01*
X3708400Y-2810637D03*
G01*
X3708400Y-2430906D03*
D21*
G01*
X4038701Y-2673197D03*
G01*
X4038701Y-2813202D03*
G01*
X18161000Y-2266797D03*
G01*
X18161000Y-2406802D03*
G01*
X18338800Y-2266797D03*
G01*
X18338800Y-2406802D03*
G01*
X20218400Y-2622397D03*
G01*
X20218400Y-2762402D03*
D27*
G01*
X851204Y-3759200D03*
G01*
X317195Y-3759200D03*
G36*
X4379600Y-2419990D02*
G01*
X4459599Y-2419990D01*
X4459599Y-2499989D01*
X4379600Y-2499989D01*
G37*
G36*
X4379600Y-2249810D02*
G01*
X4459599Y-2249810D01*
X4459599Y-2329809D01*
X4379600Y-2329809D01*
G37*
G36*
X7147900Y-1884657D02*
G01*
X7287900Y-1884657D01*
X7287900Y-2004656D01*
X7147900Y-2004656D01*
G37*
G36*
X7367899Y-1884652D02*
G01*
X7507899Y-1884652D01*
X7507899Y-2004651D01*
X7367899Y-2004651D01*
G37*
G36*
X7367899Y-2059658D02*
G01*
X7507899Y-2059658D01*
X7507899Y-2179657D01*
X7367899Y-2179657D01*
G37*
G36*
X7147900Y-2059658D02*
G01*
X7287900Y-2059658D01*
X7287900Y-2179657D01*
X7147900Y-2179657D01*
G37*
G36*
X3167938Y-3371298D02*
G01*
X3247938Y-3371298D01*
X3247938Y-3461301D01*
X3167938Y-3461301D01*
G37*
G36*
X3307938Y-3371298D02*
G01*
X3387938Y-3371298D01*
X3387938Y-3461301D01*
X3307938Y-3461301D01*
G37*
G36*
X4487400Y-3460198D02*
G01*
X4567400Y-3460198D01*
X4567400Y-3550201D01*
X4487400Y-3550201D01*
G37*
G36*
X4627399Y-3460198D02*
G01*
X4707399Y-3460198D01*
X4707399Y-3550201D01*
X4627399Y-3550201D01*
G37*
G36*
X5784146Y-3460198D02*
G01*
X5864146Y-3460198D01*
X5864146Y-3550201D01*
X5784146Y-3550201D01*
G37*
G36*
X5924146Y-3460198D02*
G01*
X6004145Y-3460198D01*
X6004145Y-3550201D01*
X5924146Y-3550201D01*
G37*
G36*
X7078200Y-3460198D02*
G01*
X7158200Y-3460198D01*
X7158200Y-3550201D01*
X7078200Y-3550201D01*
G37*
G36*
X7218199Y-3460198D02*
G01*
X7298199Y-3460198D01*
X7298199Y-3550201D01*
X7218199Y-3550201D01*
G37*
G36*
X8387641Y-3460201D02*
G01*
X8467641Y-3460201D01*
X8467641Y-3550203D01*
X8387641Y-3550203D01*
G37*
G36*
X8527641Y-3460201D02*
G01*
X8607640Y-3460201D01*
X8607640Y-3550203D01*
X8527641Y-3550203D01*
G37*
G36*
X9681700Y-3460198D02*
G01*
X9761700Y-3460198D01*
X9761700Y-3550201D01*
X9681700Y-3550201D01*
G37*
G36*
X9821699Y-3460198D02*
G01*
X9901699Y-3460198D01*
X9901699Y-3550201D01*
X9821699Y-3550201D01*
G37*
G36*
X10978441Y-3460201D02*
G01*
X11058441Y-3460201D01*
X11058441Y-3550203D01*
X10978441Y-3550203D01*
G37*
G36*
X11118441Y-3460201D02*
G01*
X11198440Y-3460201D01*
X11198440Y-3550203D01*
X11118441Y-3550203D01*
G37*
G36*
X12285200Y-3460198D02*
G01*
X12365200Y-3460198D01*
X12365200Y-3550201D01*
X12285200Y-3550201D01*
G37*
G36*
X12425199Y-3460198D02*
G01*
X12505199Y-3460198D01*
X12505199Y-3550201D01*
X12425199Y-3550201D01*
G37*
G36*
X13593300Y-3460198D02*
G01*
X13673300Y-3460198D01*
X13673300Y-3550201D01*
X13593300Y-3550201D01*
G37*
G36*
X13733299Y-3460198D02*
G01*
X13813299Y-3460198D01*
X13813299Y-3550201D01*
X13733299Y-3550201D01*
G37*
G36*
X14888700Y-3460198D02*
G01*
X14968700Y-3460198D01*
X14968700Y-3550201D01*
X14888700Y-3550201D01*
G37*
G36*
X15028699Y-3460198D02*
G01*
X15108699Y-3460198D01*
X15108699Y-3550201D01*
X15028699Y-3550201D01*
G37*
G36*
X16184100Y-3460198D02*
G01*
X16264100Y-3460198D01*
X16264100Y-3550201D01*
X16184100Y-3550201D01*
G37*
G36*
X16324099Y-3460198D02*
G01*
X16404099Y-3460198D01*
X16404099Y-3550201D01*
X16324099Y-3550201D01*
G37*
G36*
X17479500Y-3460198D02*
G01*
X17559500Y-3460198D01*
X17559500Y-3550201D01*
X17479500Y-3550201D01*
G37*
G36*
X17619499Y-3460198D02*
G01*
X17699499Y-3460198D01*
X17699499Y-3550201D01*
X17619499Y-3550201D01*
G37*
G36*
X18776243Y-3460198D02*
G01*
X18856243Y-3460198D01*
X18856243Y-3550201D01*
X18776243Y-3550201D01*
G37*
G36*
X18916243Y-3460198D02*
G01*
X18996243Y-3460198D01*
X18996243Y-3550201D01*
X18916243Y-3550201D01*
G37*
G36*
X20070300Y-3460198D02*
G01*
X20150300Y-3460198D01*
X20150300Y-3550201D01*
X20070300Y-3550201D01*
G37*
G36*
X20210299Y-3460198D02*
G01*
X20290299Y-3460198D01*
X20290299Y-3550201D01*
X20210299Y-3550201D01*
G37*
G36*
X21375436Y-3460198D02*
G01*
X21455435Y-3460198D01*
X21455435Y-3550201D01*
X21375436Y-3550201D01*
G37*
G36*
X21515435Y-3460198D02*
G01*
X21595435Y-3460198D01*
X21595435Y-3550201D01*
X21515435Y-3550201D01*
G37*
G36*
X22686500Y-3460198D02*
G01*
X22766500Y-3460198D01*
X22766500Y-3550201D01*
X22686500Y-3550201D01*
G37*
G36*
X22826499Y-3460198D02*
G01*
X22906499Y-3460198D01*
X22906499Y-3550201D01*
X22826499Y-3550201D01*
G37*
G36*
X19448000Y-2088598D02*
G01*
X19528000Y-2088598D01*
X19528000Y-2178601D01*
X19448000Y-2178601D01*
G37*
G36*
X19587999Y-2088598D02*
G01*
X19667999Y-2088598D01*
X19667999Y-2178601D01*
X19587999Y-2178601D01*
G37*
D21*
G01*
X18326100Y-2621127D03*
G01*
X18326100Y-2761106D03*
G36*
X13479000Y-2825198D02*
G01*
X13559000Y-2825198D01*
X13559000Y-2915201D01*
X13479000Y-2915201D01*
G37*
G36*
X13618999Y-2825198D02*
G01*
X13698999Y-2825198D01*
X13698999Y-2915201D01*
X13618999Y-2915201D01*
G37*
G36*
X20883100Y-2850598D02*
G01*
X20963100Y-2850598D01*
X20963100Y-2940601D01*
X20883100Y-2940601D01*
G37*
G36*
X21023099Y-2850598D02*
G01*
X21103099Y-2850598D01*
X21103099Y-2940601D01*
X21023099Y-2940601D01*
G37*
D30*
G01*
X1244600Y-3684600D03*
G01*
X1244600Y-3884599D03*
D21*
G01*
X1816100Y-2355697D03*
G01*
X1816100Y-2495702D03*
G01*
X2247900Y-4438497D03*
G01*
X2247900Y-4578502D03*
D19*
G01*
X2088997Y-4267200D03*
G01*
X2229002Y-4267200D03*
G36*
X8272000Y-2558498D02*
G01*
X8352000Y-2558498D01*
X8352000Y-2648501D01*
X8272000Y-2648501D01*
G37*
G36*
X8411999Y-2558498D02*
G01*
X8491999Y-2558498D01*
X8491999Y-2648501D01*
X8411999Y-2648501D01*
G37*
G36*
X9681700Y-3295098D02*
G01*
X9761700Y-3295098D01*
X9761700Y-3385101D01*
X9681700Y-3385101D01*
G37*
G36*
X9821699Y-3295098D02*
G01*
X9901699Y-3295098D01*
X9901699Y-3385101D01*
X9821699Y-3385101D01*
G37*
G36*
X8576800Y-3066498D02*
G01*
X8656800Y-3066498D01*
X8656800Y-3156501D01*
X8576800Y-3156501D01*
G37*
G36*
X8716799Y-3066498D02*
G01*
X8796799Y-3066498D01*
X8796799Y-3156501D01*
X8716799Y-3156501D01*
G37*
G36*
X8272000Y-1758398D02*
G01*
X8352000Y-1758398D01*
X8352000Y-1848401D01*
X8272000Y-1848401D01*
G37*
G36*
X8411999Y-1758398D02*
G01*
X8491999Y-1758398D01*
X8491999Y-1848401D01*
X8411999Y-1848401D01*
G37*
G36*
X8272000Y-1936198D02*
G01*
X8352000Y-1936198D01*
X8352000Y-2026201D01*
X8272000Y-2026201D01*
G37*
G36*
X8411999Y-1936198D02*
G01*
X8491999Y-1936198D01*
X8491999Y-2026201D01*
X8411999Y-2026201D01*
G37*
G01*
X10242702Y-1892300D03*
G01*
X10102697Y-1892300D03*
G36*
X2949508Y-4361898D02*
G01*
X3029508Y-4361898D01*
X3029508Y-4451901D01*
X2949508Y-4451901D01*
G37*
G36*
X3089508Y-4361898D02*
G01*
X3169508Y-4361898D01*
X3169508Y-4451901D01*
X3089508Y-4451901D01*
G37*
D21*
G01*
X6781800Y-2470302D03*
G01*
X6781800Y-2330297D03*
G01*
X6642201Y-2102002D03*
G01*
X6642201Y-1961997D03*
G01*
X6972401Y-1962150D03*
G01*
X6972401Y-2102154D03*
G01*
X6807301Y-1962150D03*
G01*
X6807301Y-2102154D03*
G36*
X677451Y-3248949D02*
G01*
X677451Y-3024850D01*
X882200Y-3024850D01*
X882200Y-3248949D01*
G37*
D31*
G01*
X261569Y-3136900D03*
D32*
G01*
X1244600Y-2731795D03*
G01*
X1244600Y-3211804D03*
D33*
G01*
X1588795Y-3771900D03*
G01*
X2068804Y-3771900D03*
G36*
X2312499Y-3279800D02*
G01*
X2312499Y-2917799D01*
X2554899Y-2917799D01*
X2554899Y-3279800D01*
G37*
G36*
X1929300Y-3279800D02*
G01*
X1929300Y-2917799D01*
X1686900Y-2917799D01*
X1686900Y-3279800D01*
G37*
D35*
G01*
X13924000Y-2831007D03*
G01*
X13924000Y-2766009D03*
G01*
X13924000Y-2701010D03*
G01*
X13924000Y-2635986D03*
G01*
X13924000Y-2571013D03*
G01*
X13924000Y-2505989D03*
G01*
X13924000Y-2440990D03*
G01*
X13924000Y-2375992D03*
G01*
X14523999Y-2375992D03*
G01*
X14523999Y-2440990D03*
G01*
X14523999Y-2505989D03*
G01*
X14523999Y-2571013D03*
G01*
X14523999Y-2635986D03*
G01*
X14523999Y-2701010D03*
G01*
X14523999Y-2766009D03*
G01*
X14523999Y-2831007D03*
G01*
X21315324Y-2831033D03*
G01*
X21315324Y-2766034D03*
G01*
X21315324Y-2701036D03*
G01*
X21315324Y-2636037D03*
G01*
X21315324Y-2571013D03*
G01*
X21315324Y-2506014D03*
G01*
X21315324Y-2441016D03*
G01*
X21315324Y-2376017D03*
G01*
X21915323Y-2376017D03*
G01*
X21915323Y-2441016D03*
G01*
X21915323Y-2506014D03*
G01*
X21915323Y-2571013D03*
G01*
X21915323Y-2636037D03*
G01*
X21915323Y-2701036D03*
G01*
X21915323Y-2766034D03*
G01*
X21915323Y-2831033D03*
G36*
X4176400Y-2419990D02*
G01*
X4256399Y-2419990D01*
X4256399Y-2499989D01*
X4176400Y-2499989D01*
G37*
G36*
X4176400Y-2249810D02*
G01*
X4256399Y-2249810D01*
X4256399Y-2329809D01*
X4176400Y-2329809D01*
G37*
D36*
G01*
X2699004Y-862888D03*
G01*
X2794000Y-1092911D03*
G01*
X2888995Y-862914D03*
G01*
X3499104Y-862888D03*
G01*
X3594100Y-1092911D03*
G01*
X3689095Y-862914D03*
G01*
X4807204Y-862888D03*
G01*
X4902200Y-1092911D03*
G01*
X4997195Y-862914D03*
G01*
X6102604Y-862888D03*
G01*
X6197600Y-1092911D03*
G01*
X6292595Y-862914D03*
G01*
X7398004Y-862888D03*
G01*
X7493000Y-1092911D03*
G01*
X7587995Y-862914D03*
G01*
X8706104Y-862888D03*
G01*
X8801100Y-1092911D03*
G01*
X8896095Y-862914D03*
G01*
X10001504Y-862888D03*
G01*
X10096500Y-1092911D03*
G01*
X10191495Y-862914D03*
G01*
X11093704Y-862888D03*
G01*
X11188700Y-1092911D03*
G01*
X11283695Y-862914D03*
G01*
X12859004Y-862888D03*
G01*
X12954000Y-1092911D03*
G01*
X13048995Y-862914D03*
G01*
X13913104Y-862888D03*
G01*
X14008100Y-1092911D03*
G01*
X14103095Y-862914D03*
G01*
X15208504Y-862888D03*
G01*
X15303500Y-1092911D03*
G01*
X15398495Y-862914D03*
G01*
X16503904Y-862888D03*
G01*
X16598900Y-1092911D03*
G01*
X16693895Y-862914D03*
G01*
X17812004Y-862888D03*
G01*
X17907000Y-1092911D03*
G01*
X18001995Y-862914D03*
G01*
X19107404Y-862888D03*
G01*
X19202400Y-1092911D03*
G01*
X19297395Y-862914D03*
G01*
X20402804Y-862888D03*
G01*
X20497800Y-1092911D03*
G01*
X20592795Y-862914D03*
G01*
X21710904Y-862888D03*
G01*
X21805900Y-1092911D03*
G01*
X21900895Y-862914D03*
G36*
X5536549Y-2665984D02*
G01*
X5606552Y-2665984D01*
X5606552Y-2790982D01*
X5536549Y-2790982D01*
G37*
G36*
X5441553Y-2416047D02*
G01*
X5511556Y-2416047D01*
X5511556Y-2541046D01*
X5441553Y-2541046D01*
G37*
G36*
X5631545Y-2416047D02*
G01*
X5701548Y-2416047D01*
X5701548Y-2541046D01*
X5631545Y-2541046D01*
G37*
G36*
X5857798Y-2665968D02*
G01*
X5927801Y-2665968D01*
X5927801Y-2790967D01*
X5857798Y-2790967D01*
G37*
G36*
X5762802Y-2416032D02*
G01*
X5832805Y-2416032D01*
X5832805Y-2541031D01*
X5762802Y-2541031D01*
G37*
G36*
X5952794Y-2416032D02*
G01*
X6022797Y-2416032D01*
X6022797Y-2541031D01*
X5952794Y-2541031D01*
G37*
D21*
G01*
X4229100Y-2813202D03*
G01*
X4229100Y-2673197D03*
G01*
X7670800Y-1961997D03*
G01*
X7670800Y-2102002D03*
G01*
X4406900Y-2813202D03*
G01*
X4406900Y-2673197D03*
G36*
X12173229Y-1796879D02*
G01*
X12353569Y-1796879D01*
X12353569Y-1837519D01*
X12173229Y-1837519D01*
G37*
G36*
X12173229Y-1861880D02*
G01*
X12353569Y-1861880D01*
X12353569Y-1902520D01*
X12173229Y-1902520D01*
G37*
G36*
X12173229Y-1926879D02*
G01*
X12353569Y-1926879D01*
X12353569Y-1967519D01*
X12173229Y-1967519D01*
G37*
G36*
X12173229Y-1991880D02*
G01*
X12353569Y-1991880D01*
X12353569Y-2032520D01*
X12173229Y-2032520D01*
G37*
G36*
X12173229Y-2056879D02*
G01*
X12353569Y-2056879D01*
X12353569Y-2097519D01*
X12173229Y-2097519D01*
G37*
G36*
X12173229Y-2121880D02*
G01*
X12353569Y-2121880D01*
X12353569Y-2162520D01*
X12173229Y-2162520D01*
G37*
G36*
X12173229Y-2186879D02*
G01*
X12353569Y-2186879D01*
X12353569Y-2227519D01*
X12173229Y-2227519D01*
G37*
G36*
X12173229Y-2251880D02*
G01*
X12353569Y-2251880D01*
X12353569Y-2292520D01*
X12173229Y-2292520D01*
G37*
G36*
X11573230Y-2251880D02*
G01*
X11753570Y-2251880D01*
X11753570Y-2292520D01*
X11573230Y-2292520D01*
G37*
G36*
X11573230Y-2186879D02*
G01*
X11753570Y-2186879D01*
X11753570Y-2227519D01*
X11573230Y-2227519D01*
G37*
G36*
X11573230Y-2121880D02*
G01*
X11753570Y-2121880D01*
X11753570Y-2162520D01*
X11573230Y-2162520D01*
G37*
G36*
X11573230Y-2056879D02*
G01*
X11753570Y-2056879D01*
X11753570Y-2097519D01*
X11573230Y-2097519D01*
G37*
G36*
X11573230Y-1991880D02*
G01*
X11753570Y-1991880D01*
X11753570Y-2032520D01*
X11573230Y-2032520D01*
G37*
G36*
X11573230Y-1926879D02*
G01*
X11753570Y-1926879D01*
X11753570Y-1967519D01*
X11573230Y-1967519D01*
G37*
G36*
X11573230Y-1861880D02*
G01*
X11753570Y-1861880D01*
X11753570Y-1902520D01*
X11573230Y-1902520D01*
G37*
G36*
X11573230Y-1796879D02*
G01*
X11753570Y-1796879D01*
X11753570Y-1837519D01*
X11573230Y-1837519D01*
G37*
G36*
X16427729Y-1936579D02*
G01*
X16608069Y-1936579D01*
X16608069Y-1977219D01*
X16427729Y-1977219D01*
G37*
G36*
X16427729Y-2001580D02*
G01*
X16608069Y-2001580D01*
X16608069Y-2042220D01*
X16427729Y-2042220D01*
G37*
G36*
X16427729Y-2066579D02*
G01*
X16608069Y-2066579D01*
X16608069Y-2107219D01*
X16427729Y-2107219D01*
G37*
G36*
X16427729Y-2131580D02*
G01*
X16608069Y-2131580D01*
X16608069Y-2172220D01*
X16427729Y-2172220D01*
G37*
G36*
X16427729Y-2196579D02*
G01*
X16608069Y-2196579D01*
X16608069Y-2237219D01*
X16427729Y-2237219D01*
G37*
G36*
X16427729Y-2261580D02*
G01*
X16608069Y-2261580D01*
X16608069Y-2302220D01*
X16427729Y-2302220D01*
G37*
G36*
X16427729Y-2326579D02*
G01*
X16608069Y-2326579D01*
X16608069Y-2367219D01*
X16427729Y-2367219D01*
G37*
G36*
X16427729Y-2391580D02*
G01*
X16608069Y-2391580D01*
X16608069Y-2432220D01*
X16427729Y-2432220D01*
G37*
G36*
X15827730Y-2391580D02*
G01*
X16008070Y-2391580D01*
X16008070Y-2432220D01*
X15827730Y-2432220D01*
G37*
G36*
X15827730Y-2326579D02*
G01*
X16008070Y-2326579D01*
X16008070Y-2367219D01*
X15827730Y-2367219D01*
G37*
G36*
X15827730Y-2261580D02*
G01*
X16008070Y-2261580D01*
X16008070Y-2302220D01*
X15827730Y-2302220D01*
G37*
G36*
X15827730Y-2196579D02*
G01*
X16008070Y-2196579D01*
X16008070Y-2237219D01*
X15827730Y-2237219D01*
G37*
G36*
X15827730Y-2131580D02*
G01*
X16008070Y-2131580D01*
X16008070Y-2172220D01*
X15827730Y-2172220D01*
G37*
G36*
X15827730Y-2066579D02*
G01*
X16008070Y-2066579D01*
X16008070Y-2107219D01*
X15827730Y-2107219D01*
G37*
G36*
X15827730Y-2001580D02*
G01*
X16008070Y-2001580D01*
X16008070Y-2042220D01*
X15827730Y-2042220D01*
G37*
G36*
X15827730Y-1936579D02*
G01*
X16008070Y-1936579D01*
X16008070Y-1977219D01*
X15827730Y-1977219D01*
G37*
G36*
X1373200Y-4256100D02*
G01*
X1573199Y-4256100D01*
X1573199Y-4456099D01*
X1373200Y-4456099D01*
G37*
D40*
G01*
X3086100Y-3065779D03*
D41*
G01*
X2856102Y-2446020D03*
G01*
X3086100Y-2446020D03*
G01*
X3316097Y-2446020D03*
D20*
G01*
X7144004Y-2311095D03*
G01*
X7239000Y-2311095D03*
G01*
X7333995Y-2311095D03*
G01*
X7333995Y-2591104D03*
G01*
X7239000Y-2591104D03*
G01*
X7144004Y-2591104D03*
M02*
