M48
METRIC,LZ,000.000
;FILE_FORMAT=3:3
;TYPE=PLATED
;Layer: PTH_Through
;EasyEDA v6.5.46, 2025-12-03 10:19:34
;c3818a3604be4def9b4ee8151928d401,9141f797b262442c9e18f5b3b47b5ddf,10
;Gerber Generator version 0.2
;Holesize 1 = 0.305 mm
T01C0.305
;Holesize 2 = 0.915 mm
T02C0.915
;Holesize 3 = 0.966 mm
T03C0.966
;Holesize 4 = 1.199 mm
T04C1.199
%
G05
G90
T01
X015232Y-044061
X015232Y-043061
X014232Y-043061
X014232Y-044061
X013970Y-036830
X020955Y-035306
X210631Y-030226
X215900Y-027178
X215900Y-029464
X217297Y-027010
X211455Y-025654
X131699Y-029464
X130556Y-028448
X132461Y-027686
X141097Y-025710
X143891Y-027660
X142875Y-029083
X197739Y-021336
X181864Y-027624
X079375Y-030861
X080010Y-031496
X080772Y-032131
X090043Y-025781
X091059Y-025781
X092075Y-025781
X082550Y-029083
X083820Y-016383
X064897Y-019620
X084520Y-024765
X100076Y-033401
X035433Y-029591
X036068Y-029591
X036703Y-029591
X037338Y-029591
X037973Y-029591
X038608Y-029591
X039243Y-029591
X039243Y-028956
X039222Y-028118
X066294Y-024703
X108331Y-005207
X212471Y-006814
X199390Y-006814
X186436Y-006814
X173482Y-006814
X160401Y-006814
X147447Y-006814
X134493Y-006814
X123952Y-006814
X095250Y-006814
X082423Y-006814
X069215Y-006814
X056261Y-006814
X030226Y-006814
X022225Y-006814
X034163Y-032893
X020574Y-048260
X046674Y-033782
X059641Y-033782
X072582Y-033782
X086946Y-035052
X099887Y-035052
X111584Y-033782
X124652Y-033782
X139003Y-035052
X150687Y-033782
X163641Y-033782
X176595Y-033782
X189562Y-033782
X203773Y-035052
X215554Y-033782
X228665Y-033782
X052959Y-021463
X136525Y-030734
X173482Y-008636
X172847Y-008636
X172212Y-008636
X207899Y-028956
X207899Y-029718
X207264Y-029718
X200025Y-035052
X187071Y-035052
X193675Y-022352
X193040Y-022352
X192405Y-022352
X190881Y-028448
X190246Y-028448
X189611Y-028448
X189611Y-029083
X190246Y-029083
X190881Y-029083
X181356Y-026162
X181991Y-026162
X173990Y-035052
X226187Y-035052
X161036Y-035052
X148082Y-035052
X146939Y-024003
X146939Y-024638
X147574Y-024638
X146939Y-025273
X147574Y-025273
X143383Y-024892
X133731Y-030988
X134493Y-030988
X135255Y-030988
X134239Y-030353
X135001Y-030353
X138557Y-030861
X139827Y-030861
X139192Y-030861
X137922Y-030861
X135128Y-035052
X122047Y-035052
X159512Y-009017
X160147Y-009017
X159512Y-009652
X146431Y-008636
X147066Y-008636
X146431Y-009271
X112141Y-002921
X111506Y-002921
X105283Y-002032
X105918Y-002032
X113284Y-011176
X113919Y-011176
X113919Y-011811
X113284Y-011811
X090043Y-004572
X090678Y-004572
X102743Y-017018
X103378Y-017018
X086360Y-004064
X085725Y-004064
X075819Y-022098
X076454Y-022098
X078613Y-023114
X070485Y-022098
X069850Y-022098
X069215Y-022098
X068580Y-022098
X067945Y-022098
X067310Y-022098
X073533Y-024384
X072898Y-024384
X077978Y-023114
X058928Y-025908
X058928Y-023876
X055753Y-025908
X054229Y-027686
X050292Y-025781
X050292Y-025146
X049657Y-025146
X050292Y-024511
X049657Y-024511
X074422Y-033147
X075057Y-033147
X083820Y-029972
X084455Y-029972
X088646Y-030480
X082423Y-024638
X081788Y-024638
X081153Y-024638
X089535Y-023368
X089535Y-024003
X085725Y-024384
X085725Y-025019
X091059Y-020574
X091694Y-020574
X092329Y-020574
X092329Y-021209
X091694Y-021209
X094234Y-025146
X094869Y-025146
X166751Y-021463
X166751Y-020828
X166751Y-022098
X116332Y-011938
X116967Y-011938
X116332Y-012573
X116967Y-012573
X096012Y-032004
X098044Y-030353
X098679Y-030353
X086741Y-037846
X087376Y-037846
X088011Y-037846
X088646Y-037846
X089281Y-037846
X089916Y-037846
X088646Y-037211
X089281Y-037211
X086106Y-037846
X222885Y-027432
X213233Y-035052
X213106Y-034290
X207137Y-034290
X207137Y-034925
X207137Y-035560
X207137Y-036195
X207137Y-036830
X202819Y-011303
X203454Y-011303
X202819Y-011938
X203454Y-011938
X199263Y-008636
X198501Y-008636
X198501Y-009271
X199263Y-009271
X216662Y-011176
X215900Y-011176
X215900Y-011811
X216662Y-011811
X212344Y-008636
X211709Y-008636
X211074Y-008636
X186182Y-008636
X185547Y-008636
X184912Y-008636
X189738Y-011176
X190373Y-011176
X190373Y-011811
X189738Y-011811
X176784Y-011176
X177419Y-011176
X177419Y-011811
X176784Y-011811
X163703Y-011176
X164338Y-011176
X164338Y-011811
X163703Y-011811
X150749Y-011176
X151384Y-011176
X151384Y-011811
X150749Y-011811
X137795Y-011176
X138430Y-011176
X138430Y-011811
X137795Y-011811
X134239Y-008509
X134239Y-009144
X127254Y-011176
X127889Y-011176
X127889Y-011811
X127254Y-011811
X123571Y-009525
X123571Y-010160
X123571Y-010795
X123571Y-011430
X123571Y-012065
X124206Y-011430
X124206Y-012065
X110109Y-011176
X110109Y-011811
X110744Y-011811
X110744Y-012446
X077978Y-026035
X078613Y-026035
X070358Y-026035
X015240Y-042164
X015240Y-041529
X014605Y-041529
X014605Y-042164
X015494Y-044958
X014859Y-044958
X014224Y-044958
X014224Y-045593
X014859Y-045593
X015494Y-045593
X023749Y-042672
X024384Y-042672
X024384Y-042037
X023749Y-042037
X023749Y-041402
X024384Y-041402
X025019Y-042672
X025019Y-042037
X025019Y-041402
X032766Y-021590
X033401Y-021590
X034036Y-021590
X034671Y-021590
X034671Y-022225
X034036Y-022225
X033401Y-022225
X032766Y-022225
X032766Y-022860
X033401Y-022860
X034036Y-022860
X034671Y-022860
X035306Y-022860
X035941Y-022860
X036576Y-022860
X037211Y-022860
X037846Y-022860
X038481Y-022860
X039116Y-022860
X039116Y-022225
X039116Y-021590
X039751Y-021590
X039751Y-022225
X039751Y-022860
X040386Y-022860
X040386Y-022225
X040386Y-021590
X041021Y-021590
X040386Y-023495
X039751Y-023495
X039116Y-023495
X039116Y-024130
X039751Y-024130
X040386Y-024130
X015748Y-028448
X015113Y-028448
X015113Y-029083
X015113Y-029718
X015113Y-030353
X015113Y-030988
X015113Y-031623
X015113Y-032258
X015113Y-032893
X015748Y-029083
X015748Y-029718
X015748Y-030353
X015748Y-030988
X015748Y-031623
X015748Y-032258
X015748Y-032893
X015113Y-033528
X015748Y-033528
X014224Y-038227
X014224Y-038862
X018288Y-038735
X017653Y-038735
X039243Y-038608
X039243Y-037973
X039878Y-037973
X039878Y-038608
X058293Y-041402
X057658Y-041402
X057658Y-042037
X045847Y-045466
X046482Y-045466
X046482Y-044831
X046482Y-037973
X057658Y-039370
X045847Y-040386
X059436Y-037973
X074549Y-037719
X073914Y-037719
X077089Y-034544
X077089Y-035179
X077089Y-035814
X076454Y-034544
X076454Y-035179
X076454Y-035814
X075819Y-034544
X075819Y-035179
X075819Y-033909
X073279Y-037719
X074549Y-038354
X073914Y-038354
X073279Y-038354
X070231Y-038862
X069596Y-038862
X068961Y-038862
X068961Y-038227
X069596Y-038227
X069596Y-037592
X068961Y-037592
X088392Y-018034
X087757Y-018034
X087122Y-018034
X086487Y-018034
X085852Y-018669
X086487Y-018669
X087122Y-018669
X087757Y-018669
X088392Y-018669
X087757Y-019304
X087122Y-019304
X094107Y-026416
X094742Y-026416
X094107Y-025781
X094742Y-025781
X093472Y-025781
X090678Y-005334
X090043Y-005334
X134239Y-009779
X027432Y-015748
X028067Y-015748
X028702Y-015748
X028702Y-016383
X028067Y-016383
X027432Y-016383
X027432Y-017018
X028067Y-017018
X028702Y-017018
X051562Y-043307
X052197Y-043307
X052832Y-043307
X052832Y-043942
X052197Y-043942
X051562Y-043942
X051562Y-044577
X052197Y-044577
X052832Y-044577
X050292Y-037211
X050927Y-037211
X051562Y-037211
X051562Y-037846
X050927Y-037846
X050292Y-037846
X050292Y-038481
X050927Y-038481
X051562Y-038481
X042926Y-037592
X043561Y-037592
X044196Y-037592
X044196Y-038227
X043561Y-038227
X042926Y-038227
X043561Y-038862
X044196Y-038862
X023876Y-038862
X024511Y-038862
X025146Y-038862
X025146Y-039497
X024511Y-039497
X023876Y-039497
X023876Y-040132
X024511Y-040132
X025146Y-040132
X121539Y-010160
X122174Y-010160
X122809Y-010160
X122809Y-010795
X122174Y-010795
X121539Y-010795
X121539Y-011430
X122174Y-011430
X122809Y-011430
X129286Y-014351
X129921Y-014351
X130556Y-014351
X130556Y-014986
X129921Y-014986
X129286Y-014986
X129286Y-015621
X129921Y-015621
X130556Y-015621
X135001Y-001270
X135636Y-001270
X136271Y-001270
X136271Y-001905
X135636Y-001905
X135001Y-001905
X135001Y-002540
X135636Y-002540
X136271Y-002540
X147955Y-001397
X148590Y-001397
X149225Y-001397
X149225Y-002032
X148590Y-002032
X147955Y-002032
X147955Y-002667
X148590Y-002667
X149225Y-002667
X160147Y-001524
X160782Y-001524
X161417Y-001524
X161417Y-002159
X160782Y-002159
X160147Y-002159
X160147Y-002794
X160782Y-002794
X161417Y-002794
X172466Y-001905
X173101Y-001905
X173736Y-001905
X173736Y-002540
X173101Y-002540
X172466Y-002540
X172466Y-003175
X173101Y-003175
X173736Y-003175
X183642Y-001524
X184277Y-001524
X184912Y-001524
X184912Y-002159
X184277Y-002159
X183642Y-002159
X183642Y-002794
X184277Y-002794
X184912Y-002794
X197612Y-001651
X198247Y-001651
X198882Y-001651
X198882Y-002286
X198247Y-002286
X197612Y-002286
X197612Y-002921
X198247Y-002921
X198882Y-002921
X210312Y-001524
X210947Y-001524
X211582Y-001524
X211582Y-002159
X210947Y-002159
X210312Y-002159
X210312Y-002794
X210947Y-002794
X211582Y-002794
X210312Y-011684
X210947Y-011684
X211582Y-011684
X211582Y-012319
X210947Y-012319
X210312Y-012319
X210312Y-012954
X210947Y-012954
X211582Y-012954
X196596Y-011557
X197231Y-011557
X197866Y-011557
X197866Y-012192
X197231Y-012192
X196596Y-012192
X196596Y-012827
X197231Y-012827
X197866Y-012827
X184150Y-011684
X184785Y-011684
X185420Y-011684
X185420Y-012319
X184785Y-012319
X184150Y-012319
X184150Y-012954
X184785Y-012954
X185420Y-012954
X171577Y-011684
X172212Y-011684
X172847Y-011684
X172847Y-012319
X172212Y-012319
X171577Y-012319
X171577Y-012954
X172212Y-012954
X172847Y-012954
X159639Y-011684
X160274Y-011684
X160909Y-011684
X160909Y-012319
X160274Y-012319
X159639Y-012319
X159639Y-012954
X160274Y-012954
X160909Y-012954
X155321Y-011684
X155956Y-011684
X156591Y-011684
X156591Y-012319
X155956Y-012319
X155321Y-012319
X155321Y-012954
X155956Y-012954
X156591Y-012954
X146558Y-011303
X147193Y-011303
X147828Y-011303
X147828Y-011938
X147193Y-011938
X146558Y-011938
X147193Y-012573
X147828Y-012573
X155702Y-017018
X156337Y-017018
X156972Y-017018
X156972Y-017653
X156337Y-017653
X155702Y-017653
X155702Y-018288
X156337Y-018288
X156972Y-018288
X156210Y-022225
X156845Y-022225
X157480Y-022225
X157480Y-022860
X156845Y-022860
X156210Y-022860
X156845Y-023495
X157480Y-023495
X142367Y-013462
X143002Y-013462
X143637Y-013462
X143637Y-014097
X143002Y-014097
X142367Y-014097
X142367Y-014732
X143002Y-014732
X143637Y-014732
X123825Y-038608
X124460Y-038608
X125095Y-038608
X125095Y-039243
X124460Y-039243
X123825Y-039243
X123825Y-039878
X124460Y-039878
X125095Y-039878
X128524Y-038608
X129159Y-038608
X129794Y-038608
X129794Y-039243
X129159Y-039243
X128524Y-039243
X128524Y-039878
X129159Y-039878
X129794Y-039878
X063500Y-037084
X064135Y-037084
X064770Y-037084
X064770Y-037719
X064135Y-037719
X063500Y-037719
X063500Y-038354
X064135Y-038354
X064770Y-038354
X153670Y-038354
X154305Y-038354
X154940Y-038354
X154940Y-038989
X154305Y-038989
X153670Y-038989
X153670Y-039624
X154305Y-039624
X154940Y-039624
X140843Y-038227
X141478Y-038227
X142113Y-038227
X142113Y-038862
X141478Y-038862
X140843Y-038862
X140843Y-039497
X141478Y-039497
X142113Y-039497
X203962Y-021336
X204597Y-021336
X205232Y-021971
X204597Y-021971
X203962Y-021971
X203962Y-022606
X204597Y-022606
X205232Y-022606
X204089Y-025019
X204724Y-025019
X205359Y-025019
X205359Y-025654
X204724Y-025654
X204089Y-025654
X204089Y-026289
X204724Y-026289
X205359Y-026289
X195961Y-028829
X196596Y-028829
X197231Y-028829
X197231Y-029464
X196596Y-029464
X195961Y-029464
X195961Y-030099
X196596Y-030099
X197231Y-030099
X189357Y-020574
X189992Y-020574
X190627Y-020574
X190627Y-021209
X189992Y-021209
X189357Y-021209
X189357Y-021844
X189992Y-021844
X190627Y-021844
X209550Y-019177
X210185Y-019177
X210820Y-019177
X210820Y-019812
X210185Y-019812
X209550Y-019812
X209550Y-020447
X210185Y-020447
X210820Y-020447
X218821Y-038735
X219456Y-038735
X220091Y-038735
X220091Y-039370
X219456Y-039370
X218821Y-039370
X218821Y-040005
X219456Y-040005
X220091Y-040005
X234823Y-021209
X235458Y-021209
X236093Y-021209
X236093Y-021844
X235458Y-021844
X234823Y-021844
X234823Y-022479
X235458Y-022479
X236093Y-022479
X218059Y-019177
X218694Y-019177
X219329Y-019177
X219329Y-019812
X218694Y-019812
X218059Y-019812
X218059Y-020447
X218694Y-020447
X219329Y-020447
X003556Y-025781
X004191Y-025781
X004826Y-025781
X004826Y-026416
X004191Y-026416
X003556Y-026416
X003556Y-027051
X004191Y-027051
X004826Y-027051
X102489Y-042545
X103124Y-042545
X103759Y-042545
X103759Y-043180
X103124Y-043180
X102489Y-043180
X102489Y-043815
X103124Y-043815
X103759Y-043815
X099568Y-042545
X100203Y-042545
X100838Y-042545
X100838Y-043180
X100203Y-043180
X099568Y-043180
X099568Y-043815
X100203Y-043815
X100838Y-043815
X096266Y-042418
X096901Y-042418
X097536Y-042418
X097536Y-043053
X096901Y-043053
X096266Y-043053
X096266Y-043688
X096901Y-043688
X097536Y-043688
X050165Y-027305
X100965Y-017653
X163830Y-020219
X163703Y-021209
X151257Y-021209
X157353Y-020219
X167956Y-018542
X109601Y-020066
X108331Y-020066
X106680Y-019304
X105410Y-019050
X104267Y-018796
X037846Y-002286
X040767Y-002286
X043490Y-006803
X050546Y-018923
X046355Y-019812
X082550Y-008636
X078613Y-009271
X067056Y-009906
X052324Y-010541
X055245Y-011163
X066868Y-011824
X018923Y-011557
X019431Y-012192
X018923Y-012827
X019964Y-008636
X019469Y-009271
X018923Y-009906
X028829Y-021717
X028829Y-022352
X028829Y-022987
X028140Y-021713
X028140Y-022348
X028140Y-022983
X027431Y-021707
X027431Y-022342
X027431Y-022977
X027430Y-023694
X027430Y-024329
X027430Y-024964
X019304Y-017207
X106299Y-024130
X119634Y-020447
X189208Y-023092
X197853Y-024765
X177927Y-023092
X177927Y-024765
X102752Y-030861
X102752Y-027305
X114681Y-025908
X115824Y-027051
X132207Y-019177
X120585Y-008509
X124206Y-022072
X124841Y-018161
X039497Y-004318
X046228Y-003556
X046863Y-003556
X046228Y-004191
X046863Y-004191
X043180Y-012954
X043815Y-012954
X043815Y-013589
X052578Y-016637
X051816Y-016637
X054610Y-017780
X056642Y-012827
X057277Y-012827
X059944Y-013081
X063373Y-013208
X065659Y-012827
X064897Y-012827
X064262Y-003810
X064897Y-003810
X065532Y-003810
X065532Y-004445
X064897Y-004445
X064262Y-004445
X064135Y-017780
X063500Y-017780
X057404Y-017399
X056769Y-017399
X056769Y-016764
X066421Y-018288
X067056Y-018288
X067818Y-018288
X068580Y-018288
X069342Y-018288
X078994Y-016637
X083312Y-012954
X083312Y-013589
X083312Y-014224
X121031Y-020122
X114935Y-022722
X139192Y-021971
X139827Y-021971
X140462Y-021971
X139192Y-019177
X139192Y-019812
X139827Y-019177
X139827Y-019812
X148209Y-019812
X147574Y-019812
X147574Y-019177
X170942Y-018923
X170942Y-019558
X170942Y-020193
X101600Y-021971
X100965Y-021971
X100965Y-022606
X101600Y-022606
X105029Y-027178
X104394Y-027178
X037211Y-038735
X038100Y-038735
X037205Y-040005
X177292Y-018923
X177927Y-018923
X178562Y-018923
X177292Y-019558
X177927Y-019558
X178562Y-019558
X177292Y-020193
X177927Y-020193
X178562Y-020193
X162814Y-025400
X163449Y-025400
X164084Y-025400
X162814Y-026035
X163449Y-026035
X164084Y-026035
X162814Y-026670
X163449Y-026670
X164084Y-026670
X221869Y-022225
X222504Y-022225
X223139Y-022225
X221869Y-022860
X222504Y-022860
X223139Y-022860
X221869Y-023495
X222504Y-023495
X223139Y-023495
X109855Y-027559
X110490Y-027559
X111125Y-027559
X109855Y-028194
X110490Y-028194
X111125Y-028194
X109855Y-028829
X110490Y-028829
X111125Y-028829
X092964Y-013462
X093599Y-013462
X094234Y-013462
X092964Y-014097
X093599Y-014097
X094234Y-014097
X092964Y-014732
X093599Y-014732
X094234Y-014732
X051435Y-003429
X052070Y-003429
X052705Y-003429
X051435Y-004064
X052070Y-004064
X052705Y-004064
X051435Y-004699
X052070Y-004699
X052705Y-004699
X033782Y-018415
X034417Y-018415
X035052Y-018415
X033782Y-019050
X034417Y-019050
X035052Y-019050
X033782Y-019685
X034417Y-019685
X035052Y-019685
X011557Y-005207
X012192Y-005207
X012827Y-005207
X011557Y-005842
X012192Y-005842
X012827Y-005842
X011557Y-006477
X012192Y-006477
X012827Y-006477
X003429Y-017526
X004064Y-017526
X004699Y-017526
X003429Y-018161
X004064Y-018161
X004699Y-018161
X003429Y-018796
X004064Y-018796
X004699Y-018796
X024638Y-002921
X025273Y-002921
X025908Y-002921
X024638Y-003556
X025273Y-003556
X025908Y-003556
X024638Y-004191
X025273Y-004191
X025908Y-004191
X114173Y-022479
X113538Y-022479
X152527Y-029591
X151765Y-029591
X151765Y-028956
X194183Y-026035
X194183Y-023876
X193421Y-023876
X182245Y-029845
X216281Y-024892
X151765Y-022352
X156464Y-026797
X157099Y-026797
X172466Y-026797
X169799Y-014859
X169164Y-014859
X102616Y-037084
X095504Y-026543
X096139Y-026543
X096774Y-026543
X095504Y-027178
X096139Y-027178
X096774Y-027178
X095504Y-027813
X096139Y-027813
X096774Y-027813
X024892Y-017145
X024892Y-017145
X025408Y-017661
X024892Y-017145
X024892Y-017145
X025726Y-017979
X025408Y-017661
X025726Y-017979
X026043Y-018296
X014859Y-020447
X015494Y-020447
X016129Y-020447
X014859Y-021082
X015494Y-021082
X016129Y-021082
X014859Y-021717
X015494Y-021717
X016129Y-021717
X025273Y-046355
X025908Y-046355
X026543Y-046355
X025273Y-046990
X025908Y-046990
X026543Y-046990
X033909Y-047625
X034544Y-047625
X035179Y-047625
X033909Y-048260
X034544Y-048260
X035179Y-048260
X033909Y-048895
X034544Y-048895
X035179Y-048895
X034417Y-044577
X034925Y-004064
X043815Y-004572
X039497Y-003175
T02
X008636Y-022003
X008636Y-024003
X008636Y-026003
X008271Y-009462
X010271Y-009462
X008271Y-011462
X010271Y-011462
X008271Y-013462
X010271Y-013462
X010270Y-017462
X010270Y-015463
X008271Y-015463
X008271Y-017462
T03
X026980Y-035000
X029520Y-035000
X039980Y-035000
X042520Y-035000
X052980Y-035000
X055520Y-035000
X065980Y-035000
X068520Y-035000
X078980Y-035000
X081520Y-035000
X091980Y-035000
X094520Y-035000
X104980Y-035000
X107520Y-035000
X117980Y-035000
X120520Y-035000
X130980Y-035000
X133520Y-035000
X143980Y-035000
X146520Y-035000
X156980Y-035000
X159520Y-035000
X169980Y-035000
X172520Y-035000
X182980Y-035000
X185520Y-035000
X195980Y-035000
X198520Y-035000
X208980Y-035000
X211520Y-035000
X221980Y-035000
X224520Y-035000
X020480Y-015000
X023020Y-015000
X033480Y-015000
X036020Y-015000
X046480Y-015000
X049020Y-015000
X059480Y-015000
X062020Y-015000
X072480Y-015000
X075020Y-015000
X085480Y-015000
X088020Y-015000
X098480Y-015000
X101020Y-015000
X111480Y-015000
X114020Y-015000
X124480Y-015000
X127020Y-015000
X137480Y-015000
X140020Y-015000
X150480Y-015000
X153020Y-015000
X163480Y-015000
X166020Y-015000
X176480Y-015000
X179020Y-015000
X189480Y-015000
X192020Y-015000
X202480Y-015000
X205020Y-015000
X215480Y-015000
X218020Y-015000
T04
X045513Y-042164
X043011Y-042164
X040512Y-042164
X038012Y-042164
X035513Y-042164
M30
