G04 Layer: BottomSilkscreenLayer*
G04 EasyEDA v6.5.46, 2025-12-03 10:19:34*
G04 c3818a3604be4def9b4ee8151928d401,9141f797b262442c9e18f5b3b47b5ddf,10*
G04 Gerber Generator version 0.2*
G04 Scale: 100 percent, Rotated: No, Reflected: No *
G04 Dimensions in millimeters *
G04 leading zeros omitted , absolute positions ,4 integer and 5 decimal *
%FSLAX45Y45*%
%MOMM*%

%ADD10C,0.1520*%
%ADD11C,0.2540*%

%LPD*%
D10*
X1854200Y-887961D02*
G01*
X1854200Y-997064D01*
X1854200Y-887961D02*
G01*
X1817832Y-887961D01*
X1802244Y-893155D01*
X1791855Y-903546D01*
X1786658Y-913937D01*
X1781464Y-929525D01*
X1781464Y-955502D01*
X1786658Y-971087D01*
X1791855Y-981478D01*
X1802244Y-991870D01*
X1817832Y-997064D01*
X1854200Y-997064D01*
X1669242Y-913937D02*
G01*
X1674436Y-903546D01*
X1684827Y-893155D01*
X1695218Y-887961D01*
X1716001Y-887961D01*
X1726392Y-893155D01*
X1736783Y-903546D01*
X1741977Y-913937D01*
X1747174Y-929525D01*
X1747174Y-955502D01*
X1741977Y-971087D01*
X1736783Y-981478D01*
X1726392Y-991870D01*
X1716001Y-997064D01*
X1695218Y-997064D01*
X1684827Y-991870D01*
X1674436Y-981478D01*
X1669242Y-971087D01*
X1669242Y-955502D01*
X1695218Y-955502D02*
G01*
X1669242Y-955502D01*
X1634952Y-887961D02*
G01*
X1634952Y-997064D01*
X1634952Y-887961D02*
G01*
X1562214Y-997064D01*
X1562214Y-887961D02*
G01*
X1562214Y-997064D01*
X1527924Y-887961D02*
G01*
X1527924Y-997064D01*
X1527924Y-887961D02*
G01*
X1491556Y-887961D01*
X1475971Y-893155D01*
X1465579Y-903546D01*
X1460385Y-913937D01*
X1455188Y-929525D01*
X1455188Y-955502D01*
X1460385Y-971087D01*
X1465579Y-981478D01*
X1475971Y-991870D01*
X1491556Y-997064D01*
X1527924Y-997064D01*
X1791970Y-1091184D02*
G01*
X1843786Y-1091184D01*
X1849120Y-1137920D01*
X1843786Y-1132839D01*
X1828292Y-1127505D01*
X1812544Y-1127505D01*
X1797050Y-1132839D01*
X1786636Y-1143000D01*
X1781555Y-1158747D01*
X1781555Y-1169162D01*
X1786636Y-1184655D01*
X1797050Y-1195070D01*
X1812544Y-1200150D01*
X1828292Y-1200150D01*
X1843786Y-1195070D01*
X1849120Y-1189989D01*
X1854200Y-1179576D01*
X1747265Y-1091184D02*
G01*
X1705610Y-1200150D01*
X1663954Y-1091184D02*
G01*
X1705610Y-1200150D01*
X1841500Y-1294384D02*
G01*
X1841500Y-1403350D01*
X1841500Y-1294384D02*
G01*
X1794763Y-1294384D01*
X1779270Y-1299463D01*
X1773936Y-1304797D01*
X1768855Y-1315212D01*
X1768855Y-1325626D01*
X1773936Y-1336039D01*
X1779270Y-1341120D01*
X1794763Y-1346200D01*
X1841500Y-1346200D01*
X1805178Y-1346200D02*
G01*
X1768855Y-1403350D01*
X1656587Y-1320292D02*
G01*
X1661668Y-1309878D01*
X1672081Y-1299463D01*
X1682495Y-1294384D01*
X1703323Y-1294384D01*
X1713737Y-1299463D01*
X1724152Y-1309878D01*
X1729231Y-1320292D01*
X1734565Y-1336039D01*
X1734565Y-1361947D01*
X1729231Y-1377442D01*
X1724152Y-1387855D01*
X1713737Y-1398270D01*
X1703323Y-1403350D01*
X1682495Y-1403350D01*
X1672081Y-1398270D01*
X1661668Y-1387855D01*
X1656587Y-1377442D01*
X1622297Y-1294384D02*
G01*
X1622297Y-1403350D01*
X1622297Y-1403350D02*
G01*
X1559813Y-1403350D01*
X1525523Y-1294384D02*
G01*
X1525523Y-1403350D01*
X1452879Y-1294384D02*
G01*
X1525523Y-1367028D01*
X1499615Y-1341120D02*
G01*
X1452879Y-1403350D01*
X1857755Y-1513078D02*
G01*
X1868170Y-1502663D01*
X1883663Y-1497584D01*
X1904492Y-1497584D01*
X1919986Y-1502663D01*
X1930400Y-1513078D01*
X1930400Y-1523492D01*
X1925320Y-1533905D01*
X1919986Y-1539239D01*
X1909571Y-1544320D01*
X1878329Y-1554734D01*
X1868170Y-1559813D01*
X1862836Y-1565147D01*
X1857755Y-1575562D01*
X1857755Y-1591055D01*
X1868170Y-1601470D01*
X1883663Y-1606550D01*
X1904492Y-1606550D01*
X1919986Y-1601470D01*
X1930400Y-1591055D01*
X1823465Y-1497584D02*
G01*
X1823465Y-1606550D01*
X1823465Y-1497584D02*
G01*
X1776729Y-1497584D01*
X1760981Y-1502663D01*
X1755902Y-1507997D01*
X1750568Y-1518412D01*
X1750568Y-1528826D01*
X1755902Y-1539239D01*
X1760981Y-1544320D01*
X1776729Y-1549400D01*
X1823465Y-1549400D01*
X1786889Y-1549400D02*
G01*
X1750568Y-1606550D01*
X1638300Y-1523492D02*
G01*
X1643634Y-1513078D01*
X1654047Y-1502663D01*
X1664462Y-1497584D01*
X1685289Y-1497584D01*
X1695450Y-1502663D01*
X1705863Y-1513078D01*
X1711197Y-1523492D01*
X1716278Y-1539239D01*
X1716278Y-1565147D01*
X1711197Y-1580642D01*
X1705863Y-1591055D01*
X1695450Y-1601470D01*
X1685289Y-1606550D01*
X1664462Y-1606550D01*
X1654047Y-1601470D01*
X1643634Y-1591055D01*
X1638300Y-1580642D01*
X1604010Y-1497584D02*
G01*
X1604010Y-1606550D01*
X1604010Y-1606550D02*
G01*
X1541779Y-1606550D01*
X1507489Y-1497584D02*
G01*
X1507489Y-1606550D01*
X1434845Y-1497584D02*
G01*
X1507489Y-1570228D01*
X1481581Y-1544320D02*
G01*
X1434845Y-1606550D01*
X1822957Y-1713484D02*
G01*
X1833371Y-1718563D01*
X1843786Y-1728978D01*
X1849120Y-1739392D01*
X1854200Y-1755139D01*
X1854200Y-1781047D01*
X1849120Y-1796542D01*
X1843786Y-1806955D01*
X1833371Y-1817370D01*
X1822957Y-1822450D01*
X1802129Y-1822450D01*
X1791970Y-1817370D01*
X1781555Y-1806955D01*
X1776221Y-1796542D01*
X1771142Y-1781047D01*
X1771142Y-1755139D01*
X1776221Y-1739392D01*
X1781555Y-1728978D01*
X1791970Y-1718563D01*
X1802129Y-1713484D01*
X1822957Y-1713484D01*
X1807463Y-1801876D02*
G01*
X1776221Y-1832863D01*
X1736852Y-1713484D02*
G01*
X1736852Y-1822450D01*
X1736852Y-1713484D02*
G01*
X1700529Y-1713484D01*
X1684781Y-1718563D01*
X1674368Y-1728978D01*
X1669287Y-1739392D01*
X1663954Y-1755139D01*
X1663954Y-1781047D01*
X1669287Y-1796542D01*
X1674368Y-1806955D01*
X1684781Y-1817370D01*
X1700529Y-1822450D01*
X1736852Y-1822450D01*
X1619250Y-1713484D02*
G01*
X1562100Y-1713484D01*
X1593342Y-1755139D01*
X1577847Y-1755139D01*
X1567434Y-1760220D01*
X1562100Y-1765300D01*
X1557020Y-1781047D01*
X1557020Y-1791462D01*
X1562100Y-1806955D01*
X1572513Y-1817370D01*
X1588262Y-1822450D01*
X1603755Y-1822450D01*
X1619250Y-1817370D01*
X1624584Y-1812289D01*
X1629663Y-1801876D01*
X1317244Y-1700784D02*
G01*
X1358900Y-1809750D01*
X1317244Y-1700784D02*
G01*
X1275842Y-1809750D01*
X1343405Y-1773428D02*
G01*
X1291336Y-1773428D01*
X1346200Y-1510284D02*
G01*
X1346200Y-1619250D01*
X1346200Y-1510284D02*
G01*
X1299463Y-1510284D01*
X1283970Y-1515363D01*
X1278636Y-1520697D01*
X1273555Y-1531112D01*
X1273555Y-1541526D01*
X1278636Y-1551939D01*
X1283970Y-1557020D01*
X1299463Y-1562100D01*
X1346200Y-1562100D02*
G01*
X1299463Y-1562100D01*
X1283970Y-1567434D01*
X1278636Y-1572513D01*
X1273555Y-1582928D01*
X1273555Y-1598676D01*
X1278636Y-1609089D01*
X1283970Y-1614170D01*
X1299463Y-1619250D01*
X1346200Y-1619250D01*
X1280921Y-1320292D02*
G01*
X1286255Y-1309878D01*
X1296670Y-1299463D01*
X1306829Y-1294384D01*
X1327657Y-1294384D01*
X1338071Y-1299463D01*
X1348486Y-1309878D01*
X1353820Y-1320292D01*
X1358900Y-1336039D01*
X1358900Y-1361947D01*
X1353820Y-1377442D01*
X1348486Y-1387855D01*
X1338071Y-1398270D01*
X1327657Y-1403350D01*
X1306829Y-1403350D01*
X1296670Y-1398270D01*
X1286255Y-1387855D01*
X1280921Y-1377442D01*
X1358900Y-1091184D02*
G01*
X1358900Y-1200150D01*
X1324610Y-1091184D02*
G01*
X1324610Y-1200150D01*
X1324610Y-1091184D02*
G01*
X1251965Y-1200150D01*
X1251965Y-1091184D02*
G01*
X1251965Y-1200150D01*
X1207262Y-1091184D02*
G01*
X1150112Y-1091184D01*
X1181100Y-1132839D01*
X1165605Y-1132839D01*
X1155192Y-1137920D01*
X1150112Y-1143000D01*
X1144778Y-1158747D01*
X1144778Y-1169162D01*
X1150112Y-1184655D01*
X1160526Y-1195070D01*
X1176020Y-1200150D01*
X1191513Y-1200150D01*
X1207262Y-1195070D01*
X1212342Y-1189989D01*
X1217676Y-1179576D01*
X1358900Y-887984D02*
G01*
X1358900Y-996950D01*
X1324610Y-887984D02*
G01*
X1324610Y-996950D01*
X1324610Y-887984D02*
G01*
X1251965Y-996950D01*
X1251965Y-887984D02*
G01*
X1251965Y-996950D01*
X1165605Y-887984D02*
G01*
X1217676Y-960628D01*
X1139697Y-960628D01*
X1165605Y-887984D02*
G01*
X1165605Y-996950D01*
X194055Y-1716278D02*
G01*
X204470Y-1705863D01*
X219963Y-1700784D01*
X240792Y-1700784D01*
X256286Y-1705863D01*
X266700Y-1716278D01*
X266700Y-1726692D01*
X261620Y-1737105D01*
X256286Y-1742439D01*
X245871Y-1747520D01*
X214629Y-1757934D01*
X204470Y-1763013D01*
X199136Y-1768347D01*
X194055Y-1778762D01*
X194055Y-1794255D01*
X204470Y-1804670D01*
X219963Y-1809750D01*
X240792Y-1809750D01*
X256286Y-1804670D01*
X266700Y-1794255D01*
X133604Y-1700784D02*
G01*
X149352Y-1705863D01*
X154431Y-1716278D01*
X154431Y-1726692D01*
X149352Y-1737105D01*
X138937Y-1742439D01*
X118110Y-1747520D01*
X102615Y-1752600D01*
X92202Y-1763013D01*
X86868Y-1773428D01*
X86868Y-1789176D01*
X92202Y-1799589D01*
X97281Y-1804670D01*
X113029Y-1809750D01*
X133604Y-1809750D01*
X149352Y-1804670D01*
X154431Y-1799589D01*
X159765Y-1789176D01*
X159765Y-1773428D01*
X154431Y-1763013D01*
X144018Y-1752600D01*
X128523Y-1747520D01*
X107695Y-1742439D01*
X97281Y-1737105D01*
X92202Y-1726692D01*
X92202Y-1716278D01*
X97281Y-1705863D01*
X113029Y-1700784D01*
X133604Y-1700784D01*
X194055Y-1513078D02*
G01*
X204470Y-1502663D01*
X219963Y-1497584D01*
X240792Y-1497584D01*
X256286Y-1502663D01*
X266700Y-1513078D01*
X266700Y-1523492D01*
X261620Y-1533905D01*
X256286Y-1539239D01*
X245871Y-1544320D01*
X214629Y-1554734D01*
X204470Y-1559813D01*
X199136Y-1565147D01*
X194055Y-1575562D01*
X194055Y-1591055D01*
X204470Y-1601470D01*
X219963Y-1606550D01*
X240792Y-1606550D01*
X256286Y-1601470D01*
X266700Y-1591055D01*
X86868Y-1497584D02*
G01*
X138937Y-1606550D01*
X159765Y-1497584D02*
G01*
X86868Y-1497584D01*
X194055Y-1322578D02*
G01*
X204470Y-1312163D01*
X219963Y-1307084D01*
X240792Y-1307084D01*
X256286Y-1312163D01*
X266700Y-1322578D01*
X266700Y-1332992D01*
X261620Y-1343405D01*
X256286Y-1348739D01*
X245871Y-1353820D01*
X214629Y-1364234D01*
X204470Y-1369313D01*
X199136Y-1374647D01*
X194055Y-1385062D01*
X194055Y-1400555D01*
X204470Y-1410970D01*
X219963Y-1416050D01*
X240792Y-1416050D01*
X256286Y-1410970D01*
X266700Y-1400555D01*
X97281Y-1322578D02*
G01*
X102615Y-1312163D01*
X118110Y-1307084D01*
X128523Y-1307084D01*
X144018Y-1312163D01*
X154431Y-1327912D01*
X159765Y-1353820D01*
X159765Y-1379728D01*
X154431Y-1400555D01*
X144018Y-1410970D01*
X128523Y-1416050D01*
X123189Y-1416050D01*
X107695Y-1410970D01*
X97281Y-1400555D01*
X92202Y-1385062D01*
X92202Y-1379728D01*
X97281Y-1364234D01*
X107695Y-1353820D01*
X123189Y-1348739D01*
X128523Y-1348739D01*
X144018Y-1353820D01*
X154431Y-1364234D01*
X159765Y-1379728D01*
X194055Y-1119378D02*
G01*
X204470Y-1108963D01*
X219963Y-1103884D01*
X240792Y-1103884D01*
X256286Y-1108963D01*
X266700Y-1119378D01*
X266700Y-1129792D01*
X261620Y-1140205D01*
X256286Y-1145539D01*
X245871Y-1150620D01*
X214629Y-1161034D01*
X204470Y-1166113D01*
X199136Y-1171447D01*
X194055Y-1181862D01*
X194055Y-1197355D01*
X204470Y-1207770D01*
X219963Y-1212850D01*
X240792Y-1212850D01*
X256286Y-1207770D01*
X266700Y-1197355D01*
X97281Y-1103884D02*
G01*
X149352Y-1103884D01*
X154431Y-1150620D01*
X149352Y-1145539D01*
X133604Y-1140205D01*
X118110Y-1140205D01*
X102615Y-1145539D01*
X92202Y-1155700D01*
X86868Y-1171447D01*
X86868Y-1181862D01*
X92202Y-1197355D01*
X102615Y-1207770D01*
X118110Y-1212850D01*
X133604Y-1212850D01*
X149352Y-1207770D01*
X154431Y-1202689D01*
X159765Y-1192276D01*
X194055Y-916178D02*
G01*
X204470Y-905763D01*
X219963Y-900684D01*
X240792Y-900684D01*
X256286Y-905763D01*
X266700Y-916178D01*
X266700Y-926592D01*
X261620Y-937005D01*
X256286Y-942339D01*
X245871Y-947420D01*
X214629Y-957834D01*
X204470Y-962913D01*
X199136Y-968247D01*
X194055Y-978662D01*
X194055Y-994155D01*
X204470Y-1004570D01*
X219963Y-1009650D01*
X240792Y-1009650D01*
X256286Y-1004570D01*
X266700Y-994155D01*
X107695Y-900684D02*
G01*
X159765Y-973328D01*
X81787Y-973328D01*
X107695Y-900684D02*
G01*
X107695Y-1009650D01*
X638555Y-1716278D02*
G01*
X648970Y-1705863D01*
X664463Y-1700784D01*
X685292Y-1700784D01*
X700786Y-1705863D01*
X711200Y-1716278D01*
X711200Y-1726692D01*
X706120Y-1737105D01*
X700786Y-1742439D01*
X690371Y-1747520D01*
X659129Y-1757934D01*
X648970Y-1763013D01*
X643636Y-1768347D01*
X638555Y-1778762D01*
X638555Y-1794255D01*
X648970Y-1804670D01*
X664463Y-1809750D01*
X685292Y-1809750D01*
X700786Y-1804670D01*
X711200Y-1794255D01*
X593852Y-1700784D02*
G01*
X536702Y-1700784D01*
X567689Y-1742439D01*
X552195Y-1742439D01*
X541781Y-1747520D01*
X536702Y-1752600D01*
X531368Y-1768347D01*
X531368Y-1778762D01*
X536702Y-1794255D01*
X547115Y-1804670D01*
X562610Y-1809750D01*
X578104Y-1809750D01*
X593852Y-1804670D01*
X598931Y-1799589D01*
X604265Y-1789176D01*
X638555Y-1513078D02*
G01*
X648970Y-1502663D01*
X664463Y-1497584D01*
X685292Y-1497584D01*
X700786Y-1502663D01*
X711200Y-1513078D01*
X711200Y-1523492D01*
X706120Y-1533905D01*
X700786Y-1539239D01*
X690371Y-1544320D01*
X659129Y-1554734D01*
X648970Y-1559813D01*
X643636Y-1565147D01*
X638555Y-1575562D01*
X638555Y-1591055D01*
X648970Y-1601470D01*
X664463Y-1606550D01*
X685292Y-1606550D01*
X700786Y-1601470D01*
X711200Y-1591055D01*
X598931Y-1523492D02*
G01*
X598931Y-1518412D01*
X593852Y-1507997D01*
X588518Y-1502663D01*
X578104Y-1497584D01*
X557529Y-1497584D01*
X547115Y-1502663D01*
X541781Y-1507997D01*
X536702Y-1518412D01*
X536702Y-1528826D01*
X541781Y-1539239D01*
X552195Y-1554734D01*
X604265Y-1606550D01*
X531368Y-1606550D01*
X638555Y-1322578D02*
G01*
X648970Y-1312163D01*
X664463Y-1307084D01*
X685292Y-1307084D01*
X700786Y-1312163D01*
X711200Y-1322578D01*
X711200Y-1332992D01*
X706120Y-1343405D01*
X700786Y-1348739D01*
X690371Y-1353820D01*
X659129Y-1364234D01*
X648970Y-1369313D01*
X643636Y-1374647D01*
X638555Y-1385062D01*
X638555Y-1400555D01*
X648970Y-1410970D01*
X664463Y-1416050D01*
X685292Y-1416050D01*
X700786Y-1410970D01*
X711200Y-1400555D01*
X604265Y-1327912D02*
G01*
X593852Y-1322578D01*
X578104Y-1307084D01*
X578104Y-1416050D01*
X648970Y-1103884D02*
G01*
X700786Y-1103884D01*
X706120Y-1150620D01*
X700786Y-1145539D01*
X685292Y-1140205D01*
X669544Y-1140205D01*
X654050Y-1145539D01*
X643636Y-1155700D01*
X638555Y-1171447D01*
X638555Y-1181862D01*
X643636Y-1197355D01*
X654050Y-1207770D01*
X669544Y-1212850D01*
X685292Y-1212850D01*
X700786Y-1207770D01*
X706120Y-1202689D01*
X711200Y-1192276D01*
X604265Y-1103884D02*
G01*
X562610Y-1212850D01*
X520954Y-1103884D02*
G01*
X562610Y-1212850D01*
X711200Y-900661D02*
G01*
X711200Y-1009764D01*
X711200Y-900661D02*
G01*
X674832Y-900661D01*
X659244Y-905855D01*
X648855Y-916246D01*
X643658Y-926637D01*
X638464Y-942225D01*
X638464Y-968202D01*
X643658Y-983787D01*
X648855Y-994178D01*
X659244Y-1004570D01*
X674832Y-1009764D01*
X711200Y-1009764D01*
X526242Y-926637D02*
G01*
X531436Y-916246D01*
X541827Y-905855D01*
X552218Y-900661D01*
X573001Y-900661D01*
X583392Y-905855D01*
X593783Y-916246D01*
X598977Y-926637D01*
X604174Y-942225D01*
X604174Y-968202D01*
X598977Y-983787D01*
X593783Y-994178D01*
X583392Y-1004570D01*
X573001Y-1009764D01*
X552218Y-1009764D01*
X541827Y-1004570D01*
X531436Y-994178D01*
X526242Y-983787D01*
X526242Y-968202D01*
X552218Y-968202D02*
G01*
X526242Y-968202D01*
X491952Y-900661D02*
G01*
X491952Y-1009764D01*
X491952Y-900661D02*
G01*
X419214Y-1009764D01*
X419214Y-900661D02*
G01*
X419214Y-1009764D01*
X384924Y-900661D02*
G01*
X384924Y-1009764D01*
X384924Y-900661D02*
G01*
X348556Y-900661D01*
X332971Y-905855D01*
X322579Y-916246D01*
X317385Y-926637D01*
X312188Y-942225D01*
X312188Y-968202D01*
X317385Y-983787D01*
X322579Y-994178D01*
X332971Y-1004570D01*
X348556Y-1009764D01*
X384924Y-1009764D01*
D11*
X1144600Y-1663319D02*
G01*
X1843100Y-1663319D01*
X1144600Y-1447419D02*
G01*
X1843100Y-1447419D01*
X1144600Y-1256919D02*
G01*
X1843100Y-1256919D01*
X1144600Y-1041019D02*
G01*
X1843100Y-1041019D01*
X1398600Y-863219D02*
G01*
X1398600Y-1828419D01*
M02*
