G04 Layer: TopSolderMaskLayer*
G04 EasyEDA v6.5.46, 2025-12-03 10:19:34*
G04 c3818a3604be4def9b4ee8151928d401,9141f797b262442c9e18f5b3b47b5ddf,10*
G04 Gerber Generator version 0.2*
G04 Scale: 100 percent, Rotated: No, Reflected: No *
G04 Dimensions in millimeters *
G04 leading zeros omitted , absolute positions ,4 integer and 5 decimal *
%FSLAX45Y45*%
%MOMM*%

%AMMACRO1*4,1,8,-0.4243,-0.4828,-0.454,-0.453,-0.454,0.4531,-0.4243,0.4828,0.4243,0.4828,0.454,0.4531,0.454,-0.453,0.4243,-0.4828,-0.4243,-0.4828,0*%
%AMMACRO2*4,1,8,-0.4531,-0.454,-0.4828,-0.4243,-0.4828,0.4243,-0.4531,0.454,0.453,0.454,0.4828,0.4243,0.4828,-0.4243,0.453,-0.454,-0.4531,-0.454,0*%
%AMMACRO3*4,1,8,-1.4251,-0.6921,-1.4548,-0.6623,-1.4548,0.6623,-1.4251,0.6921,1.425,0.6921,1.4548,0.6623,1.4548,-0.6623,1.425,-0.6921,-1.4251,-0.6921,0*%
%AMMACRO4*4,1,8,-1.7711,-0.6508,-1.8008,-0.621,-1.8008,0.6211,-1.7711,0.6508,1.771,0.6508,1.8008,0.6211,1.8008,-0.621,1.771,-0.6508,-1.7711,-0.6508,0*%
%AMMACRO5*4,1,8,-0.4921,-0.5016,-0.5516,-0.4421,-0.5516,0.4421,-0.4921,0.5016,0.4921,0.5016,0.5516,0.4421,0.5516,-0.4421,0.4921,-0.5016,-0.4921,-0.5016,0*%
%AMMACRO6*4,1,8,-0.4211,-0.4508,-0.4508,-0.421,-0.4508,0.4211,-0.4211,0.4508,0.421,0.4508,0.4508,0.4211,0.4508,-0.421,0.421,-0.4508,-0.4211,-0.4508,0*%
%AMMACRO7*4,1,8,-0.4211,-0.5008,-0.4508,-0.471,-0.4508,0.4711,-0.4211,0.5008,0.421,0.5008,0.4508,0.4711,0.4508,-0.471,0.421,-0.5008,-0.4211,-0.5008,0*%
%AMMACRO8*4,1,8,-0.2961,-0.5508,-0.3258,-0.521,-0.3258,0.5211,-0.2961,0.5508,0.296,0.5508,0.3258,0.5211,0.3258,-0.521,0.296,-0.5508,-0.2961,-0.5508,0*%
%AMMACRO9*4,1,8,-0.4421,-0.5516,-0.5016,-0.4921,-0.5016,0.4921,-0.4421,0.5516,0.4421,0.5516,0.5016,0.4921,0.5016,-0.4921,0.4421,-0.5516,-0.4421,-0.5516,0*%
%AMMACRO10*4,1,8,-0.5211,-0.3258,-0.5508,-0.296,-0.5508,0.2961,-0.5211,0.3258,0.521,0.3258,0.5508,0.2961,0.5508,-0.296,0.521,-0.3258,-0.5211,-0.3258,0*%
%AMMACRO11*4,1,8,-0.4711,-0.4508,-0.5008,-0.421,-0.5008,0.4211,-0.4711,0.4508,0.471,0.4508,0.5008,0.4211,0.5008,-0.421,0.471,-0.4508,-0.4711,-0.4508,0*%
%AMMACRO12*4,1,8,-1.2091,-1.0008,-1.2388,-0.971,-1.2388,0.9711,-1.2091,1.0008,1.209,1.0008,1.2388,0.9711,1.2388,-0.971,1.209,-1.0008,-1.2091,-1.0008,0*%
%AMMACRO13*4,1,8,-0.7211,-0.6508,-0.7508,-0.621,-0.7508,0.6211,-0.7211,0.6508,0.721,0.6508,0.7508,0.6211,0.7508,-0.621,0.721,-0.6508,-0.7211,-0.6508,0*%
%AMMACRO14*4,1,8,-0.8171,-0.6016,-0.8766,-0.5421,-0.8766,0.5421,-0.8171,0.6016,0.8171,0.6016,0.8766,0.5421,0.8766,-0.5421,0.8171,-0.6016,-0.8171,-0.6016,0*%
%AMMACRO15*4,1,8,-1.0448,-1.1713,-1.0745,-1.1415,-1.0745,1.1416,-1.0448,1.1713,1.0448,1.1713,1.0745,1.1416,1.0745,-1.1415,1.0448,-1.1713,-1.0448,-1.1713,0*%
%AMMACRO16*4,1,8,-1.2911,-0.9508,-1.3208,-0.921,-1.3208,0.9211,-1.2911,0.9508,1.291,0.9508,1.3208,0.9211,1.3208,-0.921,1.291,-0.9508,-1.2911,-0.9508,0*%
%AMMACRO17*4,1,8,-0.9211,-1.3208,-0.9508,-1.291,-0.9508,1.2911,-0.9211,1.3208,0.921,1.3208,0.9508,1.2911,0.9508,-1.291,0.921,-1.3208,-0.9211,-1.3208,0*%
%AMMACRO18*4,1,8,-1.2331,-1.8608,-1.2628,-1.831,-1.2628,1.8311,-1.2331,1.8608,1.233,1.8608,1.2628,1.8311,1.2628,-1.831,1.233,-1.8608,-1.2331,-1.8608,0*%
%AMMACRO19*4,1,8,-0.9438,-0.3048,-1.0033,-0.2453,-1.0033,0.2453,-0.9438,0.3048,0.9438,0.3048,1.0033,0.2453,1.0033,-0.2453,0.9438,-0.3048,-0.9438,-0.3048,0*%
%AMMACRO20*4,1,8,-0.7831,-0.8128,-0.8128,-0.783,-0.8128,0.7831,-0.7831,0.8128,0.783,0.8128,0.8128,0.7831,0.8128,-0.783,0.783,-0.8128,-0.7831,-0.8128,0*%
%AMMACRO21*4,1,8,-0.4211,-0.5508,-0.4508,-0.521,-0.4508,0.5211,-0.4211,0.5508,0.421,0.5508,0.4508,0.5211,0.4508,-0.521,0.421,-0.5508,-0.4211,-0.5508,0*%
%AMMACRO22*4,1,8,-0.3921,-0.7266,-0.4516,-0.6671,-0.4516,0.6671,-0.3921,0.7266,0.3921,0.7266,0.4516,0.6671,0.4516,-0.6671,0.3921,-0.7266,-0.3921,-0.7266,0*%
%AMMACRO23*4,1,8,-1.0211,-1.0508,-1.0508,-1.021,-1.0508,1.0211,-1.0211,1.0508,1.021,1.0508,1.0508,1.0211,1.0508,-1.021,1.021,-1.0508,-1.0211,-1.0508,0*%
%AMMACRO24*4,1,8,-1.7711,-1.1508,-1.8008,-1.121,-1.8008,1.1211,-1.7711,1.1508,1.771,1.1508,1.8008,1.1211,1.8008,-1.121,1.771,-1.1508,-1.7711,-1.1508,0*%
%AMMACRO25*4,1,8,-0.5711,-1.1508,-0.6008,-1.121,-0.6008,1.1211,-0.5711,1.1508,0.571,1.1508,0.6008,1.1211,0.6008,-1.121,0.571,-1.1508,-0.5711,-1.1508,0*%
%ADD10MACRO1*%
%ADD11MACRO2*%
%ADD12MACRO3*%
%ADD13MACRO4*%
%ADD14MACRO5*%
%ADD15MACRO6*%
%ADD16MACRO7*%
%ADD17C,1.9016*%
%ADD18MACRO8*%
%ADD19MACRO9*%
%ADD20MACRO10*%
%ADD21MACRO11*%
%ADD22O,2.1466048X0.68961*%
%ADD23O,0.4656074X1.8436082*%
%ADD24MACRO12*%
%ADD25MACRO13*%
%ADD26MACRO14*%
%ADD27MACRO15*%
%ADD28MACRO16*%
%ADD29MACRO17*%
%ADD30MACRO18*%
%ADD31MACRO19*%
%ADD32C,1.7526*%
%ADD33C,1.6256*%
%ADD34MACRO20*%
%ADD35C,1.7272*%
%ADD36MACRO21*%
%ADD37MACRO22*%
%ADD38O,2.1395944X0.6755891999999999*%
%ADD39MACRO23*%
%ADD40MACRO24*%
%ADD41MACRO25*%
%ADD42O,0.40159940000000005X2.101596*%
%ADD43O,2.101596X0.40159940000000005*%
%ADD44O,0.0188X0.40159940000000005*%

%LPD*%
D10*
G01*
X3351924Y-3581400D03*
G01*
X3201275Y-3581400D03*
G01*
X4672724Y-3670300D03*
G01*
X4522075Y-3670300D03*
G01*
X5968124Y-3670300D03*
G01*
X5817475Y-3670300D03*
G01*
X7263524Y-3670300D03*
G01*
X7112875Y-3670300D03*
G01*
X8571624Y-3670300D03*
G01*
X8420975Y-3670300D03*
G01*
X9867024Y-3670300D03*
G01*
X9716375Y-3670300D03*
G01*
X11162424Y-3670300D03*
G01*
X11011775Y-3670300D03*
G01*
X12470524Y-3670300D03*
G01*
X12319875Y-3670300D03*
G01*
X13778624Y-3670300D03*
G01*
X13627975Y-3670300D03*
G01*
X15074024Y-3670300D03*
G01*
X14923375Y-3670300D03*
G01*
X16369424Y-3670300D03*
G01*
X16218775Y-3670300D03*
G01*
X17664824Y-3670300D03*
G01*
X17514175Y-3670300D03*
G01*
X18960224Y-3670300D03*
G01*
X18809575Y-3670300D03*
G01*
X20255624Y-3670300D03*
G01*
X20104975Y-3670300D03*
G01*
X21563724Y-3670300D03*
G01*
X21413075Y-3670300D03*
G01*
X22871824Y-3670300D03*
G01*
X22721175Y-3670300D03*
D11*
G01*
X18503900Y-2261475D03*
G01*
X18503900Y-2412124D03*
G01*
X20053300Y-2450224D03*
G01*
X20053300Y-2299575D03*
D12*
G01*
X2438400Y-969625D03*
G01*
X2438400Y-681374D03*
G01*
X3238500Y-969625D03*
G01*
X3238500Y-681374D03*
G01*
X4546600Y-969625D03*
G01*
X4546600Y-681374D03*
G01*
X5842000Y-969625D03*
G01*
X5842000Y-681374D03*
G01*
X7137400Y-969625D03*
G01*
X7137400Y-681374D03*
G01*
X8458200Y-969625D03*
G01*
X8458200Y-681374D03*
G01*
X9740900Y-969625D03*
G01*
X9740900Y-681374D03*
G01*
X10833100Y-969625D03*
G01*
X10833100Y-681374D03*
G01*
X12611100Y-969625D03*
G01*
X12611100Y-681374D03*
G01*
X13665200Y-969625D03*
G01*
X13665200Y-681374D03*
G01*
X14960600Y-969625D03*
G01*
X14960600Y-681374D03*
G01*
X16256000Y-969625D03*
G01*
X16256000Y-681374D03*
G01*
X17564100Y-969625D03*
G01*
X17564100Y-681374D03*
G01*
X18859500Y-969625D03*
G01*
X18859500Y-681374D03*
G01*
X20154900Y-969625D03*
G01*
X20154900Y-681374D03*
G01*
X21463000Y-969625D03*
G01*
X21463000Y-681374D03*
D11*
G01*
X18643600Y-2617075D03*
G01*
X18643600Y-2767724D03*
G01*
X18491200Y-2767724D03*
G01*
X18491200Y-2617075D03*
D13*
G01*
X2514897Y-2235200D03*
G01*
X1980902Y-2235200D03*
D14*
G01*
X2806700Y-1898500D03*
G01*
X2806700Y-2038499D03*
D11*
G01*
X18161000Y-2261475D03*
G01*
X18161000Y-2412124D03*
G01*
X20231100Y-2617075D03*
G01*
X20231100Y-2767724D03*
D13*
G01*
X851197Y-3759200D03*
G01*
X317202Y-3759200D03*
D15*
G01*
X4216400Y-2459990D03*
G01*
X4216400Y-2289809D03*
G01*
X4419600Y-2459990D03*
G01*
X4419600Y-2289809D03*
D16*
G01*
X3829199Y-342900D03*
G01*
X3689200Y-342900D03*
G01*
X4070200Y-342900D03*
G01*
X4210199Y-342900D03*
D17*
G01*
X4551299Y-4216400D03*
G01*
X4301109Y-4216400D03*
G01*
X4051172Y-4216400D03*
G01*
X3801236Y-4216400D03*
G01*
X3551300Y-4216400D03*
D18*
G01*
X6876803Y-1549697D03*
G01*
X6781807Y-1549697D03*
G01*
X6686811Y-1549697D03*
G01*
X6686811Y-1269687D03*
G01*
X6781807Y-1269687D03*
G01*
X6876803Y-1269687D03*
D14*
G01*
X6477000Y-1403200D03*
G01*
X6477000Y-1543199D03*
D11*
G01*
X6565900Y-889875D03*
G01*
X6565900Y-1040524D03*
G01*
X6832600Y-889875D03*
G01*
X6832600Y-1040524D03*
D14*
G01*
X1358900Y-2355700D03*
G01*
X1358900Y-2495699D03*
G01*
X5143500Y-1403200D03*
G01*
X5143500Y-1543199D03*
G01*
X7797800Y-1403200D03*
G01*
X7797800Y-1543199D03*
D19*
G01*
X13353900Y-1917700D03*
G01*
X13493899Y-1917700D03*
D14*
G01*
X4241800Y-679599D03*
G01*
X4241800Y-539600D03*
D19*
G01*
X10420499Y-2209800D03*
G01*
X10280500Y-2209800D03*
D11*
G01*
X5366692Y-877172D03*
G01*
X5366692Y-1027822D03*
G01*
X5524500Y-877175D03*
G01*
X5524500Y-1027824D03*
G01*
X7988300Y-889875D03*
G01*
X7988300Y-1040524D03*
G01*
X8140700Y-889875D03*
G01*
X8140700Y-1040524D03*
G01*
X4064000Y-1307224D03*
G01*
X4064000Y-1156575D03*
G01*
X3898900Y-1307224D03*
G01*
X3898900Y-1156575D03*
D10*
G01*
X12699124Y-1943100D03*
G01*
X12548475Y-1943100D03*
D18*
G01*
X5556003Y-1549702D03*
G01*
X5461007Y-1549702D03*
G01*
X5366011Y-1549702D03*
G01*
X5366011Y-1269692D03*
G01*
X5461007Y-1269692D03*
G01*
X5556003Y-1269692D03*
G01*
X8184903Y-1549697D03*
G01*
X8089907Y-1549697D03*
G01*
X7994911Y-1549697D03*
G01*
X7994911Y-1269687D03*
G01*
X8089907Y-1269687D03*
G01*
X8184903Y-1269687D03*
D20*
G01*
X13525802Y-2102096D03*
G01*
X13525802Y-2197092D03*
G01*
X13525802Y-2292088D03*
G01*
X13245792Y-2292088D03*
G01*
X13245792Y-2197092D03*
G01*
X13245792Y-2102096D03*
D18*
G01*
X3854696Y-520397D03*
G01*
X3949692Y-520397D03*
G01*
X4044688Y-520397D03*
G01*
X4044688Y-800407D03*
G01*
X3949692Y-800407D03*
G01*
X3854696Y-800407D03*
D20*
G01*
X10210497Y-2609603D03*
G01*
X10210497Y-2514607D03*
G01*
X10210497Y-2419611D03*
G01*
X10490507Y-2419611D03*
G01*
X10490507Y-2514607D03*
G01*
X10490507Y-2609603D03*
D10*
G01*
X10425824Y-2984500D03*
G01*
X10275175Y-2984500D03*
G01*
X10425824Y-2832100D03*
G01*
X10275175Y-2832100D03*
G01*
X2158124Y-1079500D03*
G01*
X2007475Y-1079500D03*
D21*
G01*
X20231100Y-2444899D03*
G01*
X20231100Y-2304900D03*
D14*
G01*
X18808700Y-2760962D03*
G01*
X18808700Y-2620962D03*
G01*
X1803400Y-1720700D03*
G01*
X1803400Y-1860699D03*
D22*
G01*
X19064859Y-2349500D03*
G01*
X19064859Y-2476500D03*
G01*
X19064859Y-2603500D03*
G01*
X19064859Y-2730500D03*
G01*
X19619341Y-2349500D03*
G01*
X19619341Y-2476500D03*
G01*
X19619341Y-2603500D03*
G01*
X19619341Y-2730500D03*
D23*
G01*
X1803806Y-919403D03*
G01*
X1738807Y-919403D03*
G01*
X1673809Y-919403D03*
G01*
X1608810Y-919403D03*
G01*
X1543786Y-919403D03*
G01*
X1478787Y-919403D03*
G01*
X1413789Y-919403D03*
G01*
X1348790Y-919403D03*
G01*
X1283792Y-919403D03*
G01*
X1218793Y-919403D03*
G01*
X1803806Y-1493596D03*
G01*
X1738807Y-1493596D03*
G01*
X1673809Y-1493596D03*
G01*
X1608810Y-1493596D03*
G01*
X1543786Y-1493596D03*
G01*
X1478787Y-1493596D03*
G01*
X1413789Y-1493596D03*
G01*
X1348790Y-1493596D03*
G01*
X1283792Y-1493596D03*
G01*
X1218793Y-1493596D03*
D19*
G01*
X12198499Y-1600200D03*
G01*
X12058500Y-1600200D03*
G01*
X16935599Y-1955800D03*
G01*
X16795600Y-1955800D03*
D24*
G01*
X3708398Y-2810637D03*
G01*
X3708398Y-2430906D03*
D14*
G01*
X4038688Y-2673200D03*
G01*
X4038688Y-2813199D03*
D21*
G01*
X18338800Y-2266800D03*
G01*
X18338800Y-2406799D03*
D25*
G01*
X7217900Y-1944657D03*
G01*
X7437899Y-1944651D03*
G01*
X7437899Y-2119657D03*
G01*
X7217900Y-2119657D03*
D19*
G01*
X3207938Y-3416300D03*
G01*
X3347938Y-3416300D03*
G01*
X4527400Y-3505200D03*
G01*
X4667399Y-3505200D03*
G01*
X5824146Y-3505200D03*
G01*
X5964146Y-3505200D03*
G01*
X7118200Y-3505200D03*
G01*
X7258199Y-3505200D03*
G01*
X8427641Y-3505202D03*
G01*
X8567640Y-3505202D03*
G01*
X9721700Y-3505200D03*
G01*
X9861699Y-3505200D03*
G01*
X11018441Y-3505202D03*
G01*
X11158440Y-3505202D03*
G01*
X12325200Y-3505200D03*
G01*
X12465199Y-3505200D03*
G01*
X13633300Y-3505200D03*
G01*
X13773299Y-3505200D03*
G01*
X14928700Y-3505200D03*
G01*
X15068699Y-3505200D03*
G01*
X16224100Y-3505200D03*
G01*
X16364099Y-3505200D03*
G01*
X17519500Y-3505200D03*
G01*
X17659499Y-3505200D03*
G01*
X18816243Y-3505200D03*
G01*
X18956243Y-3505200D03*
G01*
X20110300Y-3505200D03*
G01*
X20250299Y-3505200D03*
G01*
X21415435Y-3505200D03*
G01*
X21555435Y-3505200D03*
G01*
X22726500Y-3505200D03*
G01*
X22866499Y-3505200D03*
G01*
X19488000Y-2133600D03*
G01*
X19627999Y-2133600D03*
D14*
G01*
X18326100Y-2621117D03*
G01*
X18326100Y-2761117D03*
D19*
G01*
X13519000Y-2870200D03*
G01*
X13658999Y-2870200D03*
G01*
X20923100Y-2895600D03*
G01*
X21063099Y-2895600D03*
D26*
G01*
X1244600Y-3684600D03*
G01*
X1244600Y-3884599D03*
D21*
G01*
X2247900Y-4438500D03*
G01*
X2247900Y-4578499D03*
D16*
G01*
X2089000Y-4267200D03*
G01*
X2228999Y-4267200D03*
D19*
G01*
X8312000Y-2603500D03*
G01*
X8451999Y-2603500D03*
G01*
X9721700Y-3340100D03*
G01*
X9861699Y-3340100D03*
G01*
X8616800Y-3111500D03*
G01*
X8756799Y-3111500D03*
G01*
X8312000Y-1803400D03*
G01*
X8451999Y-1803400D03*
G01*
X8312000Y-1981200D03*
G01*
X8451999Y-1981200D03*
G01*
X10242699Y-1892300D03*
G01*
X10102700Y-1892300D03*
G01*
X2989508Y-4406900D03*
G01*
X3129508Y-4406900D03*
D14*
G01*
X6781800Y-2470299D03*
G01*
X6781800Y-2330300D03*
G01*
X6642188Y-2101999D03*
G01*
X6642188Y-1962000D03*
G01*
X6972388Y-1962155D03*
G01*
X6972388Y-2102154D03*
G01*
X6807288Y-1962155D03*
G01*
X6807288Y-2102154D03*
D27*
G01*
X779825Y-3136900D03*
G01*
X261574Y-3136900D03*
D28*
G01*
X1244600Y-2731800D03*
G01*
X1244600Y-3211799D03*
D29*
G01*
X1588800Y-3771900D03*
G01*
X2068799Y-3771900D03*
D30*
G01*
X2433699Y-3098800D03*
G01*
X1808100Y-3098800D03*
D11*
G01*
X18656300Y-2412124D03*
G01*
X18656300Y-2261475D03*
G01*
X20053300Y-2767724D03*
G01*
X20053300Y-2617075D03*
G01*
X939800Y-4331575D03*
G01*
X939800Y-4482224D03*
G01*
X939800Y-4636375D03*
G01*
X939800Y-4787024D03*
D10*
G01*
X1256424Y-4826000D03*
G01*
X1105775Y-4826000D03*
D11*
G01*
X2082800Y-4433175D03*
G01*
X2082800Y-4583824D03*
D31*
G01*
X13924000Y-2831000D03*
G01*
X13924000Y-2765999D03*
G01*
X13924000Y-2701000D03*
G01*
X13924000Y-2635999D03*
G01*
X13924000Y-2571000D03*
G01*
X13924000Y-2505999D03*
G01*
X13924000Y-2441000D03*
G01*
X13924000Y-2375999D03*
G01*
X14523999Y-2375999D03*
G01*
X14523999Y-2441000D03*
G01*
X14523999Y-2505999D03*
G01*
X14523999Y-2571000D03*
G01*
X14523999Y-2635999D03*
G01*
X14523999Y-2701000D03*
G01*
X14523999Y-2765999D03*
G01*
X14523999Y-2831000D03*
G01*
X21315316Y-2831025D03*
G01*
X21315316Y-2766024D03*
G01*
X21315316Y-2701025D03*
G01*
X21315316Y-2636024D03*
G01*
X21315316Y-2571026D03*
G01*
X21315316Y-2506024D03*
G01*
X21315316Y-2441026D03*
G01*
X21315316Y-2376025D03*
G01*
X21915315Y-2376025D03*
G01*
X21915315Y-2441026D03*
G01*
X21915315Y-2506024D03*
G01*
X21915315Y-2571026D03*
G01*
X21915315Y-2636024D03*
G01*
X21915315Y-2701025D03*
G01*
X21915315Y-2766024D03*
G01*
X21915315Y-2831025D03*
D32*
G01*
X2698013Y-3499993D03*
G01*
X2952013Y-3499993D03*
G01*
X3998010Y-3499993D03*
G01*
X4252010Y-3499993D03*
G01*
X5298008Y-3499993D03*
G01*
X5552008Y-3499993D03*
G01*
X6598005Y-3499993D03*
G01*
X6852005Y-3499993D03*
G01*
X7898002Y-3499993D03*
G01*
X8152002Y-3499993D03*
G01*
X9198000Y-3499993D03*
G01*
X9452000Y-3499993D03*
G01*
X10497997Y-3499993D03*
G01*
X10751997Y-3499993D03*
G01*
X11797995Y-3499993D03*
G01*
X12051995Y-3499993D03*
G01*
X13097992Y-3499993D03*
G01*
X13351992Y-3499993D03*
G01*
X14397990Y-3499993D03*
G01*
X14651990Y-3499993D03*
G01*
X15698012Y-3499993D03*
G01*
X15952012Y-3499993D03*
G01*
X16998010Y-3499993D03*
G01*
X17252010Y-3499993D03*
G01*
X18298007Y-3499993D03*
G01*
X18552007Y-3499993D03*
G01*
X19598004Y-3499993D03*
G01*
X19852004Y-3499993D03*
G01*
X20898002Y-3499993D03*
G01*
X21152002Y-3499993D03*
G01*
X22197999Y-3499993D03*
G01*
X22451999Y-3499993D03*
G01*
X2048002Y-1499996D03*
G01*
X2302002Y-1499996D03*
G01*
X3347999Y-1499996D03*
G01*
X3601999Y-1499996D03*
G01*
X4647996Y-1499971D03*
G01*
X4901996Y-1499971D03*
G01*
X5947994Y-1499971D03*
G01*
X6201994Y-1499971D03*
G01*
X7247991Y-1499971D03*
G01*
X7501991Y-1499971D03*
G01*
X8547988Y-1499996D03*
G01*
X8801988Y-1499996D03*
G01*
X9848011Y-1499996D03*
G01*
X10102011Y-1499996D03*
G01*
X11148009Y-1499996D03*
G01*
X11402009Y-1499996D03*
G01*
X12448006Y-1499996D03*
G01*
X12702006Y-1499996D03*
G01*
X13748004Y-1499996D03*
G01*
X14002004Y-1499996D03*
G01*
X15048001Y-1499996D03*
G01*
X15302001Y-1499996D03*
G01*
X16347998Y-1499996D03*
G01*
X16601998Y-1499996D03*
G01*
X17647996Y-1499996D03*
G01*
X17901996Y-1499996D03*
G01*
X18947993Y-1499996D03*
G01*
X19201993Y-1499996D03*
G01*
X20247991Y-1499996D03*
G01*
X20501991Y-1499996D03*
G01*
X21548013Y-1499996D03*
G01*
X21802013Y-1499996D03*
D33*
G01*
X863600Y-2200300D03*
G01*
X863600Y-2400300D03*
D34*
G01*
X863600Y-2600299D03*
D35*
G01*
X827100Y-946200D03*
G01*
X1027099Y-946200D03*
G01*
X827100Y-1146200D03*
G01*
X1027099Y-1146200D03*
G01*
X827100Y-1346200D03*
G01*
X1027099Y-1346200D03*
G01*
X1026998Y-1746199D03*
G01*
X1026998Y-1546301D03*
G01*
X827100Y-1546301D03*
G01*
X827100Y-1746199D03*
D36*
G01*
X2698998Y-862898D03*
G01*
X2793994Y-1092901D03*
G01*
X2889001Y-862901D03*
G01*
X3499098Y-862898D03*
G01*
X3594094Y-1092901D03*
G01*
X3689101Y-862901D03*
G01*
X4807198Y-862898D03*
G01*
X4902194Y-1092901D03*
G01*
X4997201Y-862901D03*
G01*
X6102598Y-862898D03*
G01*
X6197594Y-1092901D03*
G01*
X6292601Y-862901D03*
G01*
X7397998Y-862898D03*
G01*
X7492994Y-1092901D03*
G01*
X7588001Y-862901D03*
G01*
X8706098Y-862898D03*
G01*
X8801094Y-1092901D03*
G01*
X8896101Y-862901D03*
G01*
X10001498Y-862898D03*
G01*
X10096494Y-1092901D03*
G01*
X10191501Y-862901D03*
G01*
X11093698Y-862898D03*
G01*
X11188694Y-1092901D03*
G01*
X11283701Y-862901D03*
G01*
X12858998Y-862898D03*
G01*
X12953994Y-1092901D03*
G01*
X13049001Y-862901D03*
G01*
X13913098Y-862898D03*
G01*
X14008094Y-1092901D03*
G01*
X14103101Y-862901D03*
G01*
X15208498Y-862898D03*
G01*
X15303494Y-1092901D03*
G01*
X15398501Y-862901D03*
G01*
X16503898Y-862898D03*
G01*
X16598894Y-1092901D03*
G01*
X16693901Y-862901D03*
G01*
X17811998Y-862898D03*
G01*
X17906994Y-1092901D03*
G01*
X18002001Y-862901D03*
G01*
X19107398Y-862898D03*
G01*
X19202394Y-1092901D03*
G01*
X19297401Y-862901D03*
G01*
X20402798Y-862898D03*
G01*
X20497794Y-1092901D03*
G01*
X20592801Y-862901D03*
G01*
X21710898Y-862898D03*
G01*
X21805894Y-1092901D03*
G01*
X21900901Y-862901D03*
D37*
G01*
X5892800Y-2728468D03*
G01*
X5797803Y-2478531D03*
G01*
X5987796Y-2478531D03*
D10*
G01*
X2718675Y-520700D03*
G01*
X2869324Y-520700D03*
G01*
X2869324Y-673100D03*
G01*
X2718675Y-673100D03*
G01*
X3531475Y-520700D03*
G01*
X3682124Y-520700D03*
G01*
X3682124Y-673100D03*
G01*
X3531475Y-673100D03*
G01*
X4826875Y-520700D03*
G01*
X4977524Y-520700D03*
G01*
X4977524Y-673100D03*
G01*
X4826875Y-673100D03*
G01*
X6109575Y-520700D03*
G01*
X6260224Y-520700D03*
G01*
X6260224Y-673100D03*
G01*
X6109575Y-673100D03*
G01*
X7417675Y-520700D03*
G01*
X7568324Y-520700D03*
G01*
X7568324Y-673100D03*
G01*
X7417675Y-673100D03*
G01*
X8725775Y-520700D03*
G01*
X8876424Y-520700D03*
G01*
X8876424Y-673100D03*
G01*
X8725775Y-673100D03*
G01*
X10008475Y-520700D03*
G01*
X10159124Y-520700D03*
G01*
X10159124Y-673100D03*
G01*
X10008475Y-673100D03*
G01*
X11100675Y-520700D03*
G01*
X11251324Y-520700D03*
G01*
X11251324Y-673100D03*
G01*
X11100675Y-673100D03*
G01*
X12878675Y-520700D03*
G01*
X13029324Y-520700D03*
G01*
X13029324Y-673100D03*
G01*
X12878675Y-673100D03*
G01*
X13932775Y-520700D03*
G01*
X14083424Y-520700D03*
G01*
X14083424Y-673100D03*
G01*
X13932775Y-673100D03*
G01*
X15228175Y-520700D03*
G01*
X15378824Y-520700D03*
G01*
X15378824Y-673100D03*
G01*
X15228175Y-673100D03*
G01*
X16523575Y-520700D03*
G01*
X16674224Y-520700D03*
G01*
X16674224Y-673100D03*
G01*
X16523575Y-673100D03*
G01*
X17831675Y-520700D03*
G01*
X17982324Y-520700D03*
G01*
X17982324Y-673100D03*
G01*
X17831675Y-673100D03*
G01*
X19127075Y-520700D03*
G01*
X19277724Y-520700D03*
G01*
X19277724Y-673100D03*
G01*
X19127075Y-673100D03*
G01*
X20422475Y-520700D03*
G01*
X20573124Y-520700D03*
G01*
X20573124Y-673100D03*
G01*
X20422475Y-673100D03*
G01*
X21730575Y-520700D03*
G01*
X21881224Y-520700D03*
G01*
X21881224Y-673100D03*
G01*
X21730575Y-673100D03*
G01*
X1904124Y-4826000D03*
G01*
X1753475Y-4826000D03*
G01*
X1599324Y-4826000D03*
G01*
X1448675Y-4826000D03*
G01*
X3136024Y-4241800D03*
G01*
X2985375Y-4241800D03*
G01*
X3136024Y-4089400D03*
G01*
X2985375Y-4089400D03*
G01*
X3136024Y-3937000D03*
G01*
X2985375Y-3937000D03*
D11*
G01*
X7683500Y-2475624D03*
G01*
X7683500Y-2324975D03*
G01*
X7531100Y-2324975D03*
G01*
X7531100Y-2475624D03*
G01*
X6946900Y-2324975D03*
G01*
X6946900Y-2475624D03*
D10*
G01*
X5955424Y-2289751D03*
G01*
X5804775Y-2289751D03*
D11*
G01*
X4610100Y-2299575D03*
G01*
X4610100Y-2450224D03*
G01*
X4762500Y-2297987D03*
G01*
X4762500Y-2448637D03*
D14*
G01*
X4229100Y-2813199D03*
G01*
X4229100Y-2673200D03*
G01*
X7670800Y-1962000D03*
G01*
X7670800Y-2101999D03*
G01*
X4406900Y-2813199D03*
G01*
X4406900Y-2673200D03*
D31*
G01*
X12263399Y-1817199D03*
G01*
X12263399Y-1882200D03*
G01*
X12263399Y-1947199D03*
G01*
X12263399Y-2012200D03*
G01*
X12263399Y-2077199D03*
G01*
X12263399Y-2142200D03*
G01*
X12263399Y-2207199D03*
G01*
X12263399Y-2272200D03*
G01*
X11663400Y-2272200D03*
G01*
X11663400Y-2207199D03*
G01*
X11663400Y-2142200D03*
G01*
X11663400Y-2077199D03*
G01*
X11663400Y-2012200D03*
G01*
X11663400Y-1947199D03*
G01*
X11663400Y-1882200D03*
G01*
X11663400Y-1817199D03*
G01*
X16517899Y-1956899D03*
G01*
X16517899Y-2021900D03*
G01*
X16517899Y-2086899D03*
G01*
X16517899Y-2151900D03*
G01*
X16517899Y-2216899D03*
G01*
X16517899Y-2281900D03*
G01*
X16517899Y-2346899D03*
G01*
X16517899Y-2411900D03*
G01*
X15917900Y-2411900D03*
G01*
X15917900Y-2346899D03*
G01*
X15917900Y-2281900D03*
G01*
X15917900Y-2216899D03*
G01*
X15917900Y-2151900D03*
G01*
X15917900Y-2086899D03*
G01*
X15917900Y-2021900D03*
G01*
X15917900Y-1956899D03*
D38*
G01*
X1196289Y-4165600D03*
G01*
X1196289Y-4292600D03*
G01*
X1196289Y-4419600D03*
G01*
X1196289Y-4546600D03*
G01*
X1750110Y-4165600D03*
G01*
X1750110Y-4292600D03*
G01*
X1750110Y-4419600D03*
G01*
X1750110Y-4546600D03*
D39*
G01*
X1473200Y-4356100D03*
D40*
G01*
X3086100Y-3065780D03*
D41*
G01*
X2856099Y-2446019D03*
G01*
X3086100Y-2446019D03*
G01*
X3316100Y-2446019D03*
D42*
G01*
X8946794Y-1863420D03*
G01*
X8996806Y-1863420D03*
G01*
X9046794Y-1863420D03*
G01*
X9096806Y-1863420D03*
G01*
X9146793Y-1863420D03*
G01*
X9196806Y-1863420D03*
G01*
X9246793Y-1863420D03*
G01*
X9296806Y-1863420D03*
G01*
X9346793Y-1863420D03*
G01*
X9396806Y-1863420D03*
G01*
X9446793Y-1863420D03*
G01*
X9496806Y-1863420D03*
G01*
X9546793Y-1863420D03*
G01*
X9596805Y-1863420D03*
G01*
X9646793Y-1863420D03*
G01*
X9696805Y-1863420D03*
D43*
G01*
X9896779Y-2063394D03*
G01*
X9896779Y-2113406D03*
G01*
X9896779Y-2163394D03*
G01*
X9896779Y-2213406D03*
G01*
X9896779Y-2263394D03*
G01*
X9896779Y-2313406D03*
G01*
X9896779Y-2363393D03*
G01*
X9896779Y-2413406D03*
G01*
X9896779Y-2463393D03*
G01*
X9896779Y-2513406D03*
G01*
X9896779Y-2563393D03*
G01*
X9896779Y-2613405D03*
G01*
X9896779Y-2663393D03*
G01*
X9896779Y-2713405D03*
G01*
X9896779Y-2763393D03*
G01*
X9896779Y-2813405D03*
D42*
G01*
X9696805Y-3013379D03*
G01*
X9646793Y-3013379D03*
G01*
X9596805Y-3013379D03*
G01*
X9546793Y-3013379D03*
G01*
X9496806Y-3013379D03*
G01*
X9446793Y-3013379D03*
G01*
X9396806Y-3013379D03*
G01*
X9346793Y-3013379D03*
G01*
X9296806Y-3013379D03*
G01*
X9246793Y-3013379D03*
G01*
X9196806Y-3013379D03*
G01*
X9146793Y-3013379D03*
G01*
X9096806Y-3013379D03*
G01*
X9046794Y-3013379D03*
G01*
X8996806Y-3013379D03*
G01*
X8946794Y-3013379D03*
D43*
G01*
X8746820Y-2813405D03*
G01*
X8746820Y-2763393D03*
G01*
X8746820Y-2713405D03*
G01*
X8746820Y-2663393D03*
G01*
X8746820Y-2613405D03*
G01*
X8746820Y-2563393D03*
G01*
X8746820Y-2513406D03*
G01*
X8746820Y-2463393D03*
G01*
X8746820Y-2413406D03*
G01*
X8746820Y-2363393D03*
G01*
X8746820Y-2313406D03*
G01*
X8746820Y-2263394D03*
G01*
X8746820Y-2213406D03*
G01*
X8746820Y-2163394D03*
G01*
X8746820Y-2113406D03*
G01*
X8746820Y-2063394D03*
D18*
G01*
X7143996Y-2311097D03*
G01*
X7238992Y-2311097D03*
G01*
X7333988Y-2311097D03*
G01*
X7333988Y-2591107D03*
G01*
X7238992Y-2591107D03*
G01*
X7143996Y-2591107D03*
D11*
G01*
X9029700Y-1535824D03*
G01*
X9029700Y-1385175D03*
M02*
